<?xml version="1.0" standalone="no"?><!DOCTYPE svg PUBLIC "-//W3C//DTD SVG 1.1//EN" "http://www.w3.org/Graphics/SVG/1.1/DTD/svg11.dtd"><svg class="icon" width="32px" height="32.00px" viewBox="0 0 1024 1024" version="1.1" xmlns="http://www.w3.org/2000/svg"><path d="M170.667 106.667A42.667 42.667 0 0 1 213.333 64h417.835a21.333 21.333 0 0 1 15.061 6.23l200.875 200.874a21.333 21.333 0 0 1 6.23 15.061v631.168A42.667 42.667 0 0 1 810.666 960H213.333a42.667 42.667 0 0 1-42.666-42.667V106.667z" fill="#FFC60A" /><path d="M640 65.92a21.29 21.29 0 0 1 6.23 4.31l200.874 200.874a21.376 21.376 0 0 1 4.31 6.23H682.666A42.667 42.667 0 0 1 640 234.666V65.92z" fill="#DC9B04" /><path d="M343.296 422.827h337.45c3.2 0 5.803 2.56 5.803 5.802v46.507a5.803 5.803 0 0 1-5.802 5.845H343.253a5.803 5.803 0 0 1-5.802-5.845v-46.507a5.827 5.827 0 0 1 5.845-5.845z m0 139.605h69.803c3.2 0 5.802 2.56 5.802 5.803v46.549a5.803 5.803 0 0 1-5.802 5.803h-69.803a5.803 5.803 0 0 1-5.845-5.803v-46.507a5.827 5.827 0 0 1 5.845-5.845z m0 139.648h69.803c3.2 0 5.802 2.56 5.802 5.803v46.506a5.803 5.803 0 0 1-5.802 5.846h-69.803a5.803 5.803 0 0 1-5.845-5.803V707.84c0-3.2 2.602-5.803 5.845-5.803z m128-139.648h209.45c3.2 0 5.803 2.56 5.803 5.803v46.549a5.803 5.803 0 0 1-5.802 5.803H471.253a5.803 5.803 0 0 1-5.802-5.803v-46.507c0-3.242 2.602-5.845 5.802-5.845z m0 139.648h209.45c3.2 0 5.803 2.56 5.803 5.803v46.506a5.803 5.803 0 0 1-5.802 5.846H471.253a5.803 5.803 0 0 1-5.802-5.803V707.84c0-3.2 2.602-5.803 5.802-5.803z" fill="#FFFFFF" /></svg>