<?xml version="1.0" standalone="no"?><!DOCTYPE svg PUBLIC "-//W3C//DTD SVG 1.1//EN" "http://www.w3.org/Graphics/SVG/1.1/DTD/svg11.dtd"><svg class="icon" width="32px" height="32.00px" viewBox="0 0 1024 1024" version="1.1" xmlns="http://www.w3.org/2000/svg"><path d="M170.667 106.667A42.667 42.667 0 0 1 213.333 64h417.835a21.333 21.333 0 0 1 15.061 6.23l200.875 200.874a21.333 21.333 0 0 1 6.23 15.061v631.168A42.667 42.667 0 0 1 810.666 960H213.333a42.667 42.667 0 0 1-42.666-42.667V106.667z" fill="#FF8800" /><path d="M640 65.92a21.29 21.29 0 0 1 6.23 4.31l200.874 200.874a21.376 21.376 0 0 1 4.31 6.23H682.666A42.667 42.667 0 0 1 640 234.666V65.92z" fill="#DE7802" /><path d="M343.936 766.123l32.213-87.339h130.432l32.171 87.339c1.28 3.456 4.523 5.76 8.107 5.76h36.608a8.533 8.533 0 0 0 3.2-0.598 8.96 8.96 0 0 0 4.949-11.52L469.675 440.107a8.704 8.704 0 0 0-8.107-5.675h-40.021a8.704 8.704 0 0 0-8.107 5.675L291.499 759.765a9.088 9.088 0 0 0-0.598 3.2c0 4.907 3.926 8.918 8.747 8.918h36.139a8.704 8.704 0 0 0 8.149-5.76z m146.603-133.888h-98.347l49.536-128 48.81 128zM657.664 548.864a21.333 21.333 0 0 1 21.333-21.333h9.728a21.333 21.333 0 0 1 21.334 21.333v9.685a21.333 21.333 0 0 1-21.334 21.334h-9.728a21.333 21.333 0 0 1-21.333-21.334v-9.685z m21.333 60.117a21.333 21.333 0 0 0-21.333 21.334v120.234a21.333 21.333 0 0 0 21.333 21.334h9.728a21.333 21.333 0 0 0 21.334-21.334V630.315a21.333 21.333 0 0 0-21.334-21.334h-9.728z" fill="#FFFFFF" /></svg>