<?xml version="1.0" standalone="no"?><!DOCTYPE svg PUBLIC "-//W3C//DTD SVG 1.1//EN" "http://www.w3.org/Graphics/SVG/1.1/DTD/svg11.dtd"><svg class="icon" width="32px" height="32.00px" viewBox="0 0 1024 1024" version="1.1" xmlns="http://www.w3.org/2000/svg"><path d="M170.667 106.667A42.667 42.667 0 0 1 213.333 64h417.835a21.333 21.333 0 0 1 15.061 6.23l200.875 200.874a21.333 21.333 0 0 1 6.23 15.061v631.168A42.667 42.667 0 0 1 810.666 960H213.333a42.667 42.667 0 0 1-42.666-42.667V106.667z" fill="#FFC60A" /><path d="M640 65.92a21.29 21.29 0 0 1 6.23 4.31l200.874 200.874a21.376 21.376 0 0 1 4.31 6.23H682.666A42.667 42.667 0 0 1 640 234.666V65.92z" fill="#DC9B04" /><path d="M346.624 387.84a42.667 42.667 0 0 0-42.667 42.667v7.808a42.667 42.667 0 0 0 42.667 42.666h7.765a42.667 42.667 0 0 0 42.667-42.666v-7.766a42.667 42.667 0 0 0-42.667-42.666h-7.765zM701.781 505.6a25.6 25.6 0 0 1 44.374 17.408v227.541a21.333 21.333 0 0 1-21.334 21.334H305.195a17.067 17.067 0 0 1-13.056-28.032l124.8-148.907a42.667 42.667 0 0 1 65.408 0l64.981 77.483L701.781 505.6z" fill="#FFFFFF" /></svg>