<?xml version="1.0" standalone="no"?><!DOCTYPE svg PUBLIC "-//W3C//DTD SVG 1.1//EN" "http://www.w3.org/Graphics/SVG/1.1/DTD/svg11.dtd"><svg class="icon" width="32px" height="32.00px" viewBox="0 0 1024 1024" version="1.1" xmlns="http://www.w3.org/2000/svg"><path d="M170.667 106.667A42.667 42.667 0 0 1 213.333 64h417.835a21.333 21.333 0 0 1 15.061 6.23l200.875 200.874a21.333 21.333 0 0 1 6.23 15.061v631.168A42.667 42.667 0 0 1 810.666 960H213.333a42.667 42.667 0 0 1-42.666-42.667V106.667z" fill="#8F959E" /><path d="M640 65.92a21.29 21.29 0 0 1 6.23 4.31l200.874 200.874a21.376 21.376 0 0 1 4.31 6.23H682.666A42.667 42.667 0 0 1 640 234.666V65.92z" fill="#646A73" /><path d="M609.621 420.864c-23.296-22.059-53.845-32.981-91.861-32.981-42.667 0-76.117 13.653-100.395 41.557-20.48 23.979-31.573 46.933-33.152 83.115l-0.128 4.266a10.581 10.581 0 0 0 10.667 10.667h25.173a10.752 10.752 0 0 0 10.752-10.581l0.086-4.096c1.28-25.003 7.765-38.102 19.413-52.651 14.677-19.584 36.267-29.227 65.835-29.227 26.453 0 46.25 6.742 59.904 20.395 13.013 13.568 19.84 32.085 19.84 55.253 0 15.787-5.76 30.891-17.408 45.867-3.712 4.65-9.088 10.155-26.283 27.392-27.221 23.808-44.032 43.136-52.907 62.165a108.8 108.8 0 0 0-11.008 48.982v12.032c0 5.888 4.779 10.666 10.667 10.666h25.813a10.667 10.667 0 0 0 10.667-10.666v-12.032c0-15.104 3.712-28.63 11.392-41.814 5.803-9.813 13.227-17.536 26.112-28.842 25.899-23.467 40.277-37.376 46.72-45.568a112.555 112.555 0 0 0 23.339-69.376c0-35.243-11.094-63.574-33.238-84.48z m-110.208 339.37a10.667 10.667 0 0 0-10.666 10.667v25.216c0 5.888 4.778 10.667 10.666 10.667h25.174a10.667 10.667 0 0 0 10.666-10.667v-25.173a10.667 10.667 0 0 0-10.666-10.667h-25.174z" fill="#FFFFFF" /></svg>