<?xml version="1.0" standalone="no"?><!DOCTYPE svg PUBLIC "-//W3C//DTD SVG 1.1//EN" "http://www.w3.org/Graphics/SVG/1.1/DTD/svg11.dtd"><svg class="icon" width="32px" height="32.00px" viewBox="0 0 1024 1024" version="1.1" xmlns="http://www.w3.org/2000/svg"><path d="M106.667 170.667A42.667 42.667 0 0 1 149.333 128H401.58a85.333 85.333 0 0 1 55.253 20.31l76.501 65.023H832a64 64 0 0 1 64 64v535.723a64 64 0 0 1-64 64H170.667a64 64 0 0 1-64-64v-642.39z" fill="#049FD7" /><path d="M106.667 256a42.667 42.667 0 0 1 42.666-42.667h725.334A42.667 42.667 0 0 1 917.333 256v597.333A42.667 42.667 0 0 1 874.667 896H149.333a42.667 42.667 0 0 1-42.666-42.667V256z" fill="#50CEFB" /><path d="M381.44 447.061c4.352-25.386 23.979-41.728 48.043-41.728s43.05 19.072 47.914 41.728c2.688 12.502 5.931 35.499 0 65.28-2.005 10.198-10.88 28.758-10.88 28.758s-9.386 21.333-5.504 35.925c2.859 10.795 8.875 14.165 22.742 21.93a465.36 465.36 0 0 1 17.664 10.24c15.616 9.643 27.733 19.073 35.882 26.454a193.525 193.525 0 0 1 21.419-11.733c29.312-13.739 30.976-22.358 32.043-27.904l0.085-0.342c1.067-5.546-0.043-15.061-5.461-26.24a126.72 126.72 0 0 1-8.107-23.04s-4.907-31.914-1.195-52.224c3.67-20.266 20.267-33.365 40.619-33.365s36.437 15.275 40.533 33.365c2.304 10.027 4.992 28.416 0 52.224-1.706 8.15-9.216 23.04-9.216 23.04s-7.893 17.067-4.608 28.715c2.39 8.661 7.467 11.35 19.2 17.536 4.139 2.176 9.046 4.779 14.934 8.235 22.784 13.226 36.608 26.026 40.149 30.89l0.939 1.28c3.413 4.523 7.424 9.814 6.57 16.811-0.938 7.68-11.093 9.77-11.093 9.77H311.339c-4.267 0-9.814-0.426-12.203-12.202-2.39-11.776 7.637-22.613 7.637-22.613s18.902-21.163 54.187-38.656c34.603-17.152 36.608-27.947 37.888-34.859l0.085-0.427c1.28-6.912-0.085-18.773-6.442-32.81-6.4-13.995-9.6-28.758-9.6-28.758s-5.803-39.936-1.451-65.28z" fill="#FFFFFF" /></svg>