<?xml version="1.0" standalone="no"?><!DOCTYPE svg PUBLIC "-//W3C//DTD SVG 1.1//EN" "http://www.w3.org/Graphics/SVG/1.1/DTD/svg11.dtd"><svg class="icon" width="32px" height="32.00px" viewBox="0 0 1024 1024" version="1.1" xmlns="http://www.w3.org/2000/svg"><path d="M170.667 106.667A42.667 42.667 0 0 1 213.333 64h417.835a21.333 21.333 0 0 1 15.061 6.23l200.875 200.874a21.333 21.333 0 0 1 6.23 15.061v631.168A42.667 42.667 0 0 1 810.666 960H213.333a42.667 42.667 0 0 1-42.666-42.667V106.667z" fill="#3370FF" /><path d="M640 65.92a21.29 21.29 0 0 1 6.23 4.31l200.874 200.874a21.376 21.376 0 0 1 4.31 6.23H682.666A42.667 42.667 0 0 1 640 234.666V65.92z" fill="#245BDB" /><path d="M658.304 405.333c13.44 0 24.363 10.752 24.363 24.022v335.957c0 13.27-10.923 24.021-24.363 24.021h-292.65a24.192 24.192 0 0 1-24.32-24.021v-336c0-13.227 10.922-23.979 24.362-23.979h292.608z m-97.536 264.022h-97.536v83.968h97.536v-83.968z m-24.405 23.978v27.734H487.68v-27.734h48.725z m25.514-192H512v48h-48.768v48H512v48h49.92v-48h-48.81v-48h48.767v-48z m-49.877-48h-48.768v48H512v-48z" fill="#FFFFFF" /></svg>