<?xml version="1.0" standalone="no"?><!DOCTYPE svg PUBLIC "-//W3C//DTD SVG 1.1//EN" "http://www.w3.org/Graphics/SVG/1.1/DTD/svg11.dtd"><svg class="icon" width="32px" height="32.00px" viewBox="0 0 1024 1024" version="1.1" xmlns="http://www.w3.org/2000/svg"><path d="M170.667 133.76c0-26.752 21.077-48.427 47.061-48.427h425.13c6.23 0 12.203 2.56 16.598 7.04l186.88 190.635a24.576 24.576 0 0 1 6.997 17.195v632.704c0 26.752-21.077 48.426-47.061 48.426H217.728c-25.984 0-47.061-21.674-47.061-48.426V133.76z" fill="#34C724" /><path d="M652.544 87.467a23.467 23.467 0 0 1 6.912 4.906l186.88 190.635a24.32 24.32 0 0 1 5.29 8.15H699.649c-26.027 0-47.104-21.675-47.104-48.427V87.467z" fill="#2EA121" /><path d="M515.285 445.995c38.486 0 70.102 12.501 94.848 34.048 12.032 10.41 22.486 28.501 29.867 43.904 6.315 13.226-3.755 27.562-18.39 27.562h-8.191a23.04 23.04 0 0 1-19.03-10.538c-5.93-8.96-15.104-21.334-24.106-27.734-14.678-10.794-33.451-16.469-56.406-16.469-34.346 0-60.032 13.013-77.44 38.485-16.042 22.486-25.941 53.419-25.941 93.568 0 41.131 9.899 73.387 25.472 95.403 16.981 23.467 43.52 37.803 79.317 37.803 23.382 0 42.624-8.448 57.259-20.182 9.13-7.765 17.323-22.357 22.528-33.194a23.125 23.125 0 0 1 20.565-13.398h9.558c13.952 0 23.978 13.227 18.944 26.24-7.211 18.774-18.774 43.008-34.006 56.15-27.264 23.466-48.938 32.81-94.848 34.048-52.736 1.408-94.89-19.926-121.472-56.15-23.381-31.317-34.816-73.429-34.816-126.293 0-51.883 11.904-94.507 36.182-126.805 27.52-37.206 67.84-56.448 120.106-56.448z" fill="#FFFFFF" /></svg>