<?xml version="1.0" standalone="no"?><!DOCTYPE svg PUBLIC "-//W3C//DTD SVG 1.1//EN" "http://www.w3.org/Graphics/SVG/1.1/DTD/svg11.dtd"><svg class="icon" width="32px" height="32.00px" viewBox="0 0 1024 1024" version="1.1" xmlns="http://www.w3.org/2000/svg"><path d="M170.667 106.667A42.667 42.667 0 0 1 213.333 64h420.694a21.333 21.333 0 0 1 15.232 6.4l197.973 201.387a21.333 21.333 0 0 1 6.101 14.933v630.613A42.667 42.667 0 0 1 810.667 960H213.333a42.667 42.667 0 0 1-42.666-42.667V106.667z" fill="#3370FF" /><path d="M640 64.853a21.333 21.333 0 0 1 9.259 5.547l197.973 201.387a21.333 21.333 0 0 1 3.925 5.546h-162.73A48.427 48.427 0 0 1 640 228.907V64.853z" fill="#245BDB" /><path d="M344.448 434.432h323.499a6.956 6.956 0 0 1 6.954 6.955v32.597c0 3.84-3.114 6.997-6.954 6.997H344.448a6.997 6.997 0 0 1-6.997-6.997v-32.597c0-3.84 3.114-6.955 6.997-6.955z m0 139.648h323.499a6.956 6.956 0 0 1 6.954 6.955v32.597c0 3.84-3.114 6.997-6.954 6.997H344.448a6.997 6.997 0 0 1-6.997-6.997v-32.597c0-3.84 3.114-6.955 6.997-6.955z m0 139.605h172.203c3.84 0 6.997 3.115 6.997 6.998v32.597c0 3.84-3.115 6.955-6.997 6.955H344.448a6.997 6.997 0 0 1-6.997-6.955v-32.597c0-3.84 3.114-6.998 6.997-6.998z" fill="#FFFFFF" /></svg>