<?xml version="1.0" standalone="no"?><!DOCTYPE svg PUBLIC "-//W3C//DTD SVG 1.1//EN" "http://www.w3.org/Graphics/SVG/1.1/DTD/svg11.dtd"><svg t="1637552483344" class="icon" viewBox="0 0 1024 1024" version="1.1" xmlns="http://www.w3.org/2000/svg" p-id="48560" xmlns:xlink="http://www.w3.org/1999/xlink" width="512" height="512"><defs><style type="text/css"></style></defs><path d="M121.884444 48.782222C121.884444 21.76 143.786667 0 170.666667 0h477.582222c6.4 0 12.657778 2.56 17.208889 7.111111l229.546666 229.546667c4.551111 4.551111 7.111111 10.808889 7.111112 17.208889v721.351111c0 12.942222-5.12 25.315556-14.222223 34.417778-9.102222 9.102222-21.617778 14.222222-34.417777 14.222222H170.666667c-26.88 0-48.782222-21.902222-48.782223-48.782222V48.782222z m0 0" fill="#3370FF" p-id="48561"></path><path d="M657.635556 2.133333c2.702222 1.137778 5.12 2.844444 7.111111 4.977778l229.546666 229.546667c1.991111 1.991111 3.697778 4.408889 4.977778 7.111111H706.417778c-12.942222 0-25.315556-5.12-34.417778-14.222222-9.102222-9.102222-14.222222-21.475556-14.222222-34.417778V2.133333z m0 0" fill="#245BDB" p-id="48562"></path><path d="M688.213333 415.004444H335.075556c-24.32 0-43.946667 19.768889-43.946667 44.088889l-0.142222 264.817778c0 24.32 19.768889 44.088889 44.088889 44.088889h353.137777c24.32 0 44.088889-19.768889 44.088889-44.088889V459.093333c0-24.32-19.768889-44.088889-44.088889-44.088889z m0 88.177778l-176.497777 110.364445-176.497778-110.364445v-44.088889l176.497778 110.364445 176.497777-110.364445v44.088889z m0 0" fill="#FFFFFF" p-id="48563"></path></svg>