<?xml version="1.0" standalone="no"?><!DOCTYPE svg PUBLIC "-//W3C//DTD SVG 1.1//EN" "http://www.w3.org/Graphics/SVG/1.1/DTD/svg11.dtd"><svg class="icon" width="32px" height="32.00px" viewBox="0 0 1024 1024" version="1.1" xmlns="http://www.w3.org/2000/svg"><path d="M170.667 106.667A42.667 42.667 0 0 1 213.333 64h417.835a21.333 21.333 0 0 1 15.061 6.23l200.875 200.874a21.333 21.333 0 0 1 6.23 15.061v631.168A42.667 42.667 0 0 1 810.666 960H213.333a42.667 42.667 0 0 1-42.666-42.667V106.667z" fill="#3370FF" /><path d="M640 65.92a21.29 21.29 0 0 1 6.23 4.31l200.874 200.874a21.376 21.376 0 0 1 4.31 6.23H682.666A42.667 42.667 0 0 1 640 234.666V65.92z" fill="#245BDB" /><path d="M586.752 443.648a83.627 83.627 0 0 0 15.957-47.53V389.674c0-1.451-0.384-1.792-1.834-1.75a9.813 9.813 0 0 0-0.896 0.086h-0.086c-18.602 2.261-34.73 10.282-49.408 21.504-6.314 4.864-11.093 11.221-15.786 17.664-7.424 10.24-12.544 21.504-14.934 33.962a52.48 52.48 0 0 0-1.024 19.755c0.214 1.11 0.64 1.536 1.75 1.621a55.893 55.893 0 0 0 20.821-2.816c13.312-4.224 24.235-12.245 34.133-21.845 3.755-3.67 6.827-7.936 9.899-12.203l1.408-1.962zM355.84 560.213c-4.821 16.342-6.827 33.067-6.741 53.035l0.384 4.864c0.341 4.608 0.725 10.283 1.493 15.915a255.147 255.147 0 0 0 22.059 73.941c6.272 13.483 13.525 26.368 22.186 38.4 8.192 11.563 16.64 22.955 27.136 32.555 6.358 5.802 13.227 10.581 21.206 13.696a35.84 35.84 0 0 0 16.554 2.389c6.144-0.597 12.203-1.707 18.006-3.84 4.522-1.707 9.088-3.413 13.568-5.205 10.453-4.267 21.333-6.784 32.554-7.68 8.96-0.64 17.664 1.024 26.112 3.84 4.736 1.536 9.43 3.285 14.08 5.034l7.851 2.859c6.997 2.56 14.293 4.139 21.675 4.267 10.24 0.213 19.797-2.859 28.245-8.96 6.443-4.694 12.373-10.027 17.365-16.384a255.701 255.701 0 0 1 5.974-7.339c9.557-12.245 18.432-24.96 25.685-38.827 5.888-11.264 10.752-23.04 14.933-35.157 0.683-1.92 0.598-2.219-1.237-3.072a13.653 13.653 0 0 0-0.512-0.213l-0.085-0.043a87.595 87.595 0 0 1-28.672-20.693 89.813 89.813 0 0 1-16-22.656 98.56 98.56 0 0 1-8.747-43.606c0-11.221 2.56-21.888 6.699-32.042 7.338-17.963 20.138-31.147 36.309-41.088 1.579-0.939 1.707-1.451 0.512-2.902a63.872 63.872 0 0 0-3.37-3.84 109.227 109.227 0 0 0-12.502-12.885 88.875 88.875 0 0 0-25.643-14.421c-10.965-4.31-22.442-6.4-34.176-6.912a73.515 73.515 0 0 0-19.242 0.981c-9.984 2.219-19.627 5.461-29.312 8.875-6.699 2.389-13.483 4.608-20.267 6.826l-5.888 1.92a13.568 13.568 0 0 1-7.04 0.256 105.899 105.899 0 0 1-16.299-4.821 263.51 263.51 0 0 0-30.506-9.941 77.44 77.44 0 0 0-20.608-2.774 95.787 95.787 0 0 0-51.243 17.494 111.701 111.701 0 0 0-19.2 16.64 96.768 96.768 0 0 0-12.501 18.261 115.797 115.797 0 0 0-10.795 23.296z" fill="#FFFFFF" /></svg>