<?xml version="1.0" standalone="no"?><!DOCTYPE svg PUBLIC "-//W3C//DTD SVG 1.1//EN" "http://www.w3.org/Graphics/SVG/1.1/DTD/svg11.dtd"><svg class="icon" width="32px" height="32.00px" viewBox="0 0 1024 1024" version="1.1" xmlns="http://www.w3.org/2000/svg"><path d="M106.667 170.667A42.667 42.667 0 0 1 149.333 128H401.58a85.333 85.333 0 0 1 55.253 20.31l76.501 65.023H832a64 64 0 0 1 64 64v535.723a64 64 0 0 1-64 64H170.667a64 64 0 0 1-64-64v-642.39z" fill="#FFA53D" /><path d="M106.667 256a42.667 42.667 0 0 1 42.666-42.667h725.334A42.667 42.667 0 0 1 917.333 256v597.333A42.667 42.667 0 0 1 874.667 896H149.333a42.667 42.667 0 0 1-42.666-42.667V256z" fill="#FFC60A" /></svg>