<?xml version="1.0" standalone="no"?><!DOCTYPE svg PUBLIC "-//W3C//DTD SVG 1.1//EN" "http://www.w3.org/Graphics/SVG/1.1/DTD/svg11.dtd"><svg class="icon" width="32px" height="32.00px" viewBox="0 0 1024 1024" version="1.1" xmlns="http://www.w3.org/2000/svg"><path d="M170.667 106.667A42.667 42.667 0 0 1 213.333 64h417.835a21.333 21.333 0 0 1 15.061 6.23l200.875 200.874a21.333 21.333 0 0 1 6.23 15.061v631.168A42.667 42.667 0 0 1 810.666 960H213.333a42.667 42.667 0 0 1-42.666-42.667V106.667z" fill="#34C724" /><path d="M640 65.92a21.29 21.29 0 0 1 6.23 4.31l200.874 200.874a21.376 21.376 0 0 1 4.31 6.23H682.666A42.667 42.667 0 0 1 640 234.666V65.92z" fill="#2EA121" /><path d="M540.117 399.701a10.667 10.667 0 0 0-10.666 10.667v304.47c0 5.887 4.778 10.666 10.666 10.666h48.47a10.667 10.667 0 0 0 10.666-10.667V410.368a10.667 10.667 0 0 0-10.666-10.667H540.16z m104.747 81.451a10.667 10.667 0 0 0-10.667 10.667v223.018a10.643 10.643 0 0 0 10.667 10.667h48.47A10.667 10.667 0 0 0 704 714.837V491.82a10.667 10.667 0 0 0-10.667-10.667h-48.469z m-220.16 92.117a10.667 10.667 0 0 1 10.667-10.666h48.512a10.667 10.667 0 0 1 10.666 10.666v141.568a10.667 10.667 0 0 1-10.666 10.667h-48.47a10.667 10.667 0 0 1-10.666-10.667V573.27z m-94.037 70.784A10.667 10.667 0 0 0 320 654.72v60.16c0 5.845 4.779 10.667 10.667 10.667h48.469a10.667 10.667 0 0 0 10.667-10.667v-60.16a10.667 10.667 0 0 0-10.667-10.667h-48.47z m-28.16 127.062a10.667 10.667 0 0 1 10.666-10.667h397.611a10.667 10.667 0 0 1 10.667 10.667v1.92a10.667 10.667 0 0 1-10.667 10.666H313.216a10.667 10.667 0 0 1-10.667-10.666v-1.92z" fill="#FFFFFF" /></svg>