<?xml version="1.0" standalone="no"?><!DOCTYPE svg PUBLIC "-//W3C//DTD SVG 1.1//EN" "http://www.w3.org/Graphics/SVG/1.1/DTD/svg11.dtd"><svg class="icon" width="32px" height="32.00px" viewBox="0 0 1024 1024" version="1.1" xmlns="http://www.w3.org/2000/svg"><path d="M170.667 106.667A42.667 42.667 0 0 1 213.333 64h417.835a21.333 21.333 0 0 1 15.061 6.23l200.875 200.874a21.333 21.333 0 0 1 6.23 15.061v631.168A42.667 42.667 0 0 1 810.666 960H213.333a42.667 42.667 0 0 1-42.666-42.667V106.667z" fill="#34C724" /><path d="M640 65.92a21.29 21.29 0 0 1 6.23 4.31l200.874 200.874a21.376 21.376 0 0 1 4.31 6.23H682.666A42.667 42.667 0 0 1 640 234.666V65.92z" fill="#2EA121" /><path d="M639.232 412.16a21.333 21.333 0 0 1 16.341 18.688l3.926 40.533a21.333 21.333 0 0 1-25.814 22.87l-98.218-21.632a8.533 8.533 0 0 0-10.326 9.13l22.998 241.067a15.787 15.787 0 0 1-1.28 7.595 93.099 93.099 0 1 1-36.523-77.867l-21.59-246.955a21.333 21.333 0 0 1 26.113-22.613l124.373 29.184z" fill="#FFFFFF" /></svg>