<?xml version="1.0" standalone="no"?><!DOCTYPE svg PUBLIC "-//W3C//DTD SVG 1.1//EN" "http://www.w3.org/Graphics/SVG/1.1/DTD/svg11.dtd"><svg class="icon" width="32px" height="32.00px" viewBox="0 0 1024 1024" version="1.1" xmlns="http://www.w3.org/2000/svg"><path d="M170.667 106.667A42.667 42.667 0 0 1 213.333 64h417.835a21.333 21.333 0 0 1 15.061 6.23l200.875 200.874a21.333 21.333 0 0 1 6.23 15.061v631.168A42.667 42.667 0 0 1 810.666 960H213.333a42.667 42.667 0 0 1-42.666-42.667V106.667z" fill="#F54A45" /><path d="M640 67.84a42.667 42.667 0 0 1 12.501 8.661l188.331 188.331a42.422 42.422 0 0 1 8.661 12.501h-124.16A85.333 85.333 0 0 1 640 192V67.84z" fill="#D83931" /><path d="M748.8 663.51c-10.539-12.374-32.256-18.433-66.347-18.433-19.797 0-47.104 0.512-74.538 4.566-74.88-53.974-92.459-112-92.459-112s12.8-32.128 13.61-84.566c0.513-33.152-4.735-57.898-18.133-68.522a37.675 37.675 0 0 0-22.357-8.32 29.867 29.867 0 0 0-17.621 5.504c-38.955 28.074 3.584 160.554 4.693 164.096a1177.6 1177.6 0 0 1-65.323 133.333c-7.765 13.483-7.765 13.739-12.97 19.883 0 0-68.139 33.792-100.139 71.253-18.048 21.205-18.645 35.755-17.664 46.635 1.536 13.056 18.219 24.746 34.987 24.746l2.048-0.042c17.066-1.024 36.01-5.718 57.13-25.686 15.275-14.464 32.427-53.674 54.528-92.074 63.36-17.792 119.126-30.422 165.846-37.675 34.261 18.219 85.248 38.827 119.936 38.827 11.648 0 21.034-2.39 27.861-6.998 8.15-5.546 11.605-12.373 13.781-25.13 2.134-12.715-0.853-22.4-6.826-29.398z m-74.453 19.925c31.658 0 48.768 5.589 57.6 10.24 2.688 1.493 4.693 2.858 6.058 4.053-2.474 1.92-7.338 4.352-16.17 4.352-14.592 0-33.792-6.187-57.174-18.475 3.286-0.085 6.528-0.17 9.686-0.17z m-181.76-279.126l0.085-0.128c4.95 3.627 7.253 29.184 6.827 43.99-0.683 19.882-0.811 27.562-3.328 39.765-6.742-25.43-7.254-71.253-3.542-83.627z m1.578 186.027c15.446 25.43 34.987 51.2 57.088 70.827-43.093 9.216-78.805 17.706-104.533 26.709a795.179 795.179 0 0 0 47.445-97.536zM320.427 805.717c3.925-5.76 14.549-16.896 41.557-38.485-14.507 33.365-30.763 38.485-45.867 46.507a50.904 50.904 0 0 1 4.31-8.022z" fill="#FFFFFF" /></svg>