<?xml version="1.0" standalone="no"?><!DOCTYPE svg PUBLIC "-//W3C//DTD SVG 1.1//EN" "http://www.w3.org/Graphics/SVG/1.1/DTD/svg11.dtd"><svg class="icon" width="32px" height="32.00px" viewBox="0 0 1024 1024" version="1.1" xmlns="http://www.w3.org/2000/svg"><path d="M170.667 106.667A42.667 42.667 0 0 1 213.333 64H651.82a21.333 21.333 0 0 1 15.872 7.083l180.181 200.149a21.333 21.333 0 0 1 5.461 14.293v631.808A42.667 42.667 0 0 1 810.667 960H213.333a42.667 42.667 0 0 1-42.666-42.667V106.667z" fill="#14C0FF" /><path d="M661.333 66.219a21.333 21.333 0 0 1 6.358 4.864l180.181 200.149a22.291 22.291 0 0 1 3.84 6.101H704a42.667 42.667 0 0 1-42.667-42.666V66.219z" fill="#049FD7" /><path d="M372.352 608.981h52.395c3.2 0 5.802 2.56 5.802 5.803v23.296a5.803 5.803 0 0 1-5.802 5.803h-52.395v69.802c0 12.886 10.453 23.296 23.296 23.296h29.099c3.2 0 5.802 2.56 5.802 5.803v23.296a5.803 5.803 0 0 1-5.802 5.803H384a46.507 46.507 0 0 1-46.507-46.55V539.136a58.197 58.197 0 1 1 34.902 11.648v58.197z m127.061-23.296a10.667 10.667 0 0 0-10.666 10.667v36.864c0 5.888 4.778 10.667 10.666 10.667h211.371a10.667 10.667 0 0 0 10.667-10.667v-36.864a10.667 10.667 0 0 0-10.667-10.667h-211.37z m0 128a10.667 10.667 0 0 0-10.666 10.667v36.864c0 5.888 4.778 10.667 10.666 10.667h211.371a10.667 10.667 0 0 0 10.667-10.667v-36.864a10.667 10.667 0 0 0-10.667-10.667h-211.37z m1.92-255.018a10.667 10.667 0 0 0-10.666 10.666v36.864c0 5.888 4.778 10.667 10.666 10.667h211.414a10.667 10.667 0 0 0 10.666-10.667v-36.864a10.667 10.667 0 0 0-10.666-10.666H501.333z" fill="#FFFFFF" /></svg>