<?xml version="1.0" standalone="no"?><!DOCTYPE svg PUBLIC "-//W3C//DTD SVG 1.1//EN" "http://www.w3.org/Graphics/SVG/1.1/DTD/svg11.dtd"><svg class="icon" width="32px" height="32.00px" viewBox="0 0 1024 1024" version="1.1" xmlns="http://www.w3.org/2000/svg"><path d="M170.667 106.667A42.667 42.667 0 0 1 213.333 64h417.835a21.333 21.333 0 0 1 15.061 6.23l200.875 200.874a21.333 21.333 0 0 1 6.23 15.061v631.168A42.667 42.667 0 0 1 810.666 960H213.333a42.667 42.667 0 0 1-42.666-42.667V106.667z" fill="#3370FF" /><path d="M640 65.92a21.29 21.29 0 0 1 6.23 4.31l200.874 200.874a21.376 21.376 0 0 1 4.31 6.23H688.426A48.427 48.427 0 0 1 640 228.906V65.92z" fill="#245BDB" /><path d="M535.296 457.685v320a5.803 5.803 0 0 1-5.845 5.846h-34.902a5.803 5.803 0 0 1-5.802-5.846v-320H343.253a5.803 5.803 0 0 1-5.802-5.802V416.98a5.827 5.827 0 0 1 5.845-5.845h337.45c3.2 0 5.803 2.603 5.803 5.845v34.902a5.803 5.803 0 0 1-5.802 5.802H535.253z" fill="#FFFFFF" /></svg>