<?xml version="1.0" standalone="no"?><!DOCTYPE svg PUBLIC "-//W3C//DTD SVG 1.1//EN" "http://www.w3.org/Graphics/SVG/1.1/DTD/svg11.dtd"><svg class="icon" width="32px" height="32.00px" viewBox="0 0 1024 1024" version="1.1" xmlns="http://www.w3.org/2000/svg"><path d="M170.667 106.667A42.667 42.667 0 0 1 213.333 64h417.835a21.333 21.333 0 0 1 15.061 6.23l200.875 200.874a21.333 21.333 0 0 1 6.23 15.061v631.168A42.667 42.667 0 0 1 810.666 960H213.333a42.667 42.667 0 0 1-42.666-42.667V106.667z" fill="#FF8800" /><path d="M640 65.92a21.29 21.29 0 0 1 6.23 4.31l200.874 200.874a21.376 21.376 0 0 1 4.31 6.23H682.666A42.667 42.667 0 0 1 640 234.666V65.92z" fill="#DE7802" /><path d="M698.155 411.136H325.803a11.648 11.648 0 0 0-11.648 11.648v349.099c0 6.4 5.205 11.648 11.648 11.648h372.352c6.4 0 11.648-5.248 11.648-11.648V422.784a11.648 11.648 0 0 0-11.648-11.648z m-337.451 81.493h302.55V702.08H360.746V492.587z" fill="#FFFFFF" /></svg>