<?xml version="1.0" standalone="no"?><!DOCTYPE svg PUBLIC "-//W3C//DTD SVG 1.1//EN" "http://www.w3.org/Graphics/SVG/1.1/DTD/svg11.dtd"><svg class="icon" width="32px" height="32.00px" viewBox="0 0 1024 1024" version="1.1" xmlns="http://www.w3.org/2000/svg"><path d="M170.667 106.667A42.667 42.667 0 0 1 213.333 64h417.835a21.333 21.333 0 0 1 15.061 6.23l200.875 200.874a21.333 21.333 0 0 1 6.23 15.061v631.168A42.667 42.667 0 0 1 810.666 960H213.333a42.667 42.667 0 0 1-42.666-42.667V106.667z" fill="#3370FF" /><path d="M640 65.92a21.29 21.29 0 0 1 6.23 4.31l200.874 200.874a21.376 21.376 0 0 1 4.31 6.23H682.666A42.667 42.667 0 0 1 640 234.666V65.92z" fill="#245BDB" /><path d="M439.339 489.643L331.52 603.136l107.819 113.493c3.84 4.096 3.797 10.624-0.171 14.592l-0.043 0.043-14.506 14.421a9.813 9.813 0 0 1-14.08-0.17L282.112 610.389a10.539 10.539 0 0 1 0-14.464L410.539 460.8a9.813 9.813 0 0 1 14.08-0.213l14.506 14.464a10.539 10.539 0 0 1 0.256 14.549l-0.042 0.085z m256.853 113.493L596.096 489.643a11.093 11.093 0 0 1 0.17-14.55v-0.042l13.483-14.464a8.661 8.661 0 0 1 13.099 0.213l119.21 135.125a11.136 11.136 0 0 1 0 14.422l-119.21 135.168a8.661 8.661 0 0 1-13.099 0.213l-13.482-14.464a11.093 11.093 0 0 1-0.214-14.592h0.043l100.139-113.493zM538.88 387.926l20.95 2.26c5.76 0.64 9.813 5.42 9.173 10.753l-50.091 397.269c-0.64 5.333-5.845 9.13-11.52 8.533l-21.035-2.261c-5.717-0.64-9.813-5.419-9.173-10.752l50.09-397.27c0.683-5.333 5.846-9.13 11.606-8.533z" fill="#FFFFFF" /></svg>