<?xml version="1.0" standalone="no"?><!DOCTYPE svg PUBLIC "-//W3C//DTD SVG 1.1//EN" "http://www.w3.org/Graphics/SVG/1.1/DTD/svg11.dtd"><svg class="icon" width="32px" height="32.00px" viewBox="0 0 1024 1024" version="1.1" xmlns="http://www.w3.org/2000/svg"><path d="M170.667 106.667A42.667 42.667 0 0 1 213.333 64h417.835a21.333 21.333 0 0 1 15.061 6.23l200.875 200.874a21.333 21.333 0 0 1 6.23 15.061v631.168A42.667 42.667 0 0 1 810.666 960H213.333a42.667 42.667 0 0 1-42.666-42.667V106.667z" fill="#FF8800" /><path d="M640 65.92a21.29 21.29 0 0 1 6.23 4.31l200.874 200.874a21.376 21.376 0 0 1 4.31 6.23H682.666A42.667 42.667 0 0 1 640 234.666V65.92z" fill="#DE7802" /><path d="M680.96 581.675c20.224-22.614 21.76-56.363 3.584-80.726l-39.125-52.48a63.872 63.872 0 0 0-51.2-25.685h-163.84c-20.054 0-38.912 9.43-50.987 25.472l-39.68 52.65c-18.347 24.32-16.896 58.24 3.413 80.982L482.22 737.451a39.936 39.936 0 0 0 59.52 0L680.96 581.717z" fill="#FFFFFF" /></svg>