<?xml version="1.0" standalone="no"?><!DOCTYPE svg PUBLIC "-//W3C//DTD SVG 1.1//EN" "http://www.w3.org/Graphics/SVG/1.1/DTD/svg11.dtd"><svg class="icon" width="32px" height="32.00px" viewBox="0 0 1024 1024" version="1.1" xmlns="http://www.w3.org/2000/svg"><path d="M170.667 106.667A42.667 42.667 0 0 1 213.333 64h417.835a21.333 21.333 0 0 1 15.061 6.23l200.875 200.874a21.333 21.333 0 0 1 6.23 15.061v631.168A42.667 42.667 0 0 1 810.666 960H213.333a42.667 42.667 0 0 1-42.666-42.667V106.667z" fill="#FF8800" /><path d="M640 65.92a21.29 21.29 0 0 1 6.23 4.31l200.874 200.874a21.376 21.376 0 0 1 4.31 6.23H682.666A42.667 42.667 0 0 1 640 234.666V65.92z" fill="#DE7802" /><path d="M610.987 420.395a34.901 34.901 0 0 0-47.702 12.8L448.683 631.68a4.267 4.267 0 0 0 1.578 5.803l53.078 30.634a4.267 4.267 0 0 0 5.802-1.536l114.646-198.528a34.901 34.901 0 0 0-12.8-47.658zM441.3 657.067a4.267 4.267 0 0 0-6.4 3.114l-10.709 75.862a4.267 4.267 0 0 0 6.827 3.925l60.288-47.232a4.267 4.267 0 0 0-0.47-7.04l-49.536-28.587zM302.507 782.976a10.667 10.667 0 0 1 10.666-10.667h397.611a10.667 10.667 0 0 1 10.667 10.667v1.963a10.667 10.667 0 0 1-10.667 10.666H313.216a10.667 10.667 0 0 1-10.667-10.666v-1.963z" fill="#FFFFFF" /></svg>