<?xml version="1.0" standalone="no"?><!DOCTYPE svg PUBLIC "-//W3C//DTD SVG 1.1//EN" "http://www.w3.org/Graphics/SVG/1.1/DTD/svg11.dtd"><svg class="icon" width="32px" height="32.00px" viewBox="0 0 1024 1024" version="1.1" xmlns="http://www.w3.org/2000/svg"><path d="M170.667 106.667A42.667 42.667 0 0 1 213.333 64h417.835a21.333 21.333 0 0 1 15.061 6.23l200.875 200.874a21.333 21.333 0 0 1 6.23 15.061v631.168A42.667 42.667 0 0 1 810.666 960H213.333a42.667 42.667 0 0 1-42.666-42.667V106.667z" fill="#3370FF" /><path d="M640 65.92a21.29 21.29 0 0 1 6.23 4.31l200.874 200.874a21.376 21.376 0 0 1 4.31 6.23H682.666A42.667 42.667 0 0 1 640 234.666V65.92z" fill="#245BDB" /><path d="M304.47 500.352a42.667 42.667 0 0 1 42.666-42.667h193.963a42.667 42.667 0 0 1 42.666 42.667v193.963A42.667 42.667 0 0 1 541.1 736.98H347.136a42.667 42.667 0 0 1-42.667-42.666V500.352z m83.413 3.883a21.333 21.333 0 0 1 21.333 21.333v15.53a21.333 21.333 0 0 1-21.333 21.334h-15.531a21.333 21.333 0 0 1-21.333-21.333v-15.531a21.333 21.333 0 0 1 21.333-21.333h15.53zM640.597 519.979l-33.578 19.2V655.53l33.578 19.2a32 32 0 0 0 47.872-27.819v-99.157a32 32 0 0 0-47.872-27.776z" fill="#FFFFFF" /></svg>