<?xml version="1.0" standalone="no"?><!DOCTYPE svg PUBLIC "-//W3C//DTD SVG 1.1//EN" "http://www.w3.org/Graphics/SVG/1.1/DTD/svg11.dtd"><svg class="icon" width="32px" height="32.00px" viewBox="0 0 1024 1024" version="1.1" xmlns="http://www.w3.org/2000/svg"><path d="M170.667 106.667A42.667 42.667 0 0 1 213.333 64h417.835a21.333 21.333 0 0 1 15.061 6.23l200.875 200.874a21.333 21.333 0 0 1 6.23 15.061v631.168A42.667 42.667 0 0 1 810.666 960H213.333a42.667 42.667 0 0 1-42.666-42.667V106.667z" fill="#D136D1" /><path d="M640 65.92a21.29 21.29 0 0 1 6.23 4.31l200.874 200.874a21.376 21.376 0 0 1 4.31 6.23H682.666A42.667 42.667 0 0 1 640 234.666V65.92z" fill="#B320B3" /><path d="M320.64 766.165l32.213-87.338h130.432l32.171 87.338c1.28 3.456 4.523 5.76 8.15 5.76h36.565a8.533 8.533 0 0 0 3.2-0.597 8.96 8.96 0 0 0 4.949-11.52L446.379 440.149a8.704 8.704 0 0 0-8.107-5.674h-40.021a8.704 8.704 0 0 0-8.107 5.674L268.203 759.808a9.045 9.045 0 0 0-0.598 3.2c0 4.95 3.926 8.917 8.747 8.917h36.139a8.704 8.704 0 0 0 8.149-5.76z m146.603-133.888h-98.347l49.536-128 48.81 128z m180.352 90.326c7.765 9.216 18.432 13.738 32.426 13.738 12.032 0 21.846-3.114 29.014-9.088a335.787 335.787 0 0 1 4.394-3.712 25.344 25.344 0 0 0 4.992-5.504c1.152-1.706 2.262-3.84 3.414-6.485 1.408-3.157 3.584-4.608 7.338-4.31l28.672 1.963c5.12 0.342 6.528 5.291 5.248 9.643-4.096 13.824-8.704 20.096-22.613 33.28-16 14.635-36.395 22.059-60.459 22.059-26.794 0-49.066-9.43-65.28-27.776-16.469-18.475-24.49-42.795-24.49-73.6 0-28.16 7.722-51.627 23.168-70.187 16.213-20.523 38.186-30.89 65.621-30.89 30.25 0 53.632 10.837 69.077 32.127 13.526 18.432 20.651 44.16 21.334 76.715a7.381 7.381 0 0 1-7.211 7.552H634.41c1.92 14.933 6.273 26.325 13.227 34.475z m1.194-100.139c7.808-8.661 17.92-12.885 30.891-12.885 26.155 0 40.875 13.568 45.44 42.41h-89.728c2.176-12.33 6.613-22.016 13.397-29.525z" fill="#FFFFFF" /></svg>