<?xml version="1.0" standalone="no"?><!DOCTYPE svg PUBLIC "-//W3C//DTD SVG 1.1//EN" "http://www.w3.org/Graphics/SVG/1.1/DTD/svg11.dtd"><svg class="icon" width="32px" height="32.00px" viewBox="0 0 1024 1024" version="1.1" xmlns="http://www.w3.org/2000/svg"><path d="M170.667 106.667A42.667 42.667 0 0 1 213.333 64h417.835a21.333 21.333 0 0 1 15.061 6.23l200.875 200.874a21.333 21.333 0 0 1 6.23 15.061v631.168A42.667 42.667 0 0 1 810.666 960H213.333a42.667 42.667 0 0 1-42.666-42.667V106.667z" fill="#34C724" /><path d="M640 65.92a21.29 21.29 0 0 1 6.23 4.31l200.874 200.874a21.376 21.376 0 0 1 4.31 6.23H682.666A42.667 42.667 0 0 1 640 234.666V65.92z" fill="#2EA121" /><path d="M451.755 385.28a10.539 10.539 0 1 0-18.176 10.667l19.498 33.365a104.619 104.619 0 0 0-45.781 86.57h209.45c0-35.413-17.578-66.73-44.5-85.674l19.967-34.133a10.539 10.539 0 0 0-18.218-10.624l-20.054 34.432A104.363 104.363 0 0 0 512 411.136c-14.336 0-27.99 2.901-40.405 8.107l-19.84-33.92z m13.696 92.075a11.648 11.648 0 1 0 23.253 0 11.648 11.648 0 0 0-23.253 0z m81.493 11.605a11.648 11.648 0 1 1 11.605-11.605 11.392 11.392 0 0 1-11.648 11.605zM442.197 748.885a34.901 34.901 0 0 1-34.901-34.944V539.136h209.45v174.805a34.901 34.901 0 0 1-34.943 34.944v46.251a23.296 23.296 0 0 1-46.507 0v-46.25h-46.55v46.25a23.253 23.253 0 1 1-46.549 0v-46.25z m-81.45-209.749a23.253 23.253 0 0 0-23.296 23.296v69.803a23.253 23.253 0 1 0 46.549 0v-69.803a23.253 23.253 0 0 0-23.253-23.296zM640 562.432a23.253 23.253 0 1 1 46.55 0v69.803a23.253 23.253 0 1 1-46.507 0v-69.803z" fill="#FFFFFF" /></svg>