<?xml version="1.0" standalone="no"?><!DOCTYPE svg PUBLIC "-//W3C//DTD SVG 1.1//EN" "http://www.w3.org/Graphics/SVG/1.1/DTD/svg11.dtd"><svg class="icon" width="32px" height="32.00px" viewBox="0 0 1024 1024" version="1.1" xmlns="http://www.w3.org/2000/svg"><path d="M170.667 106.667A42.667 42.667 0 0 1 213.333 64h417.835a21.333 21.333 0 0 1 15.061 6.23l200.875 200.874a21.333 21.333 0 0 1 6.23 15.061v631.168A42.667 42.667 0 0 1 810.666 960H213.333a42.667 42.667 0 0 1-42.666-42.667V106.667z" fill="#3370FF" /><path d="M640 65.92a21.29 21.29 0 0 1 6.23 4.31l200.874 200.874a21.376 21.376 0 0 1 4.31 6.23H682.666A42.667 42.667 0 0 1 640 234.666V65.92z" fill="#245BDB" /><path d="M358.485 780.885a9.515 9.515 0 0 1-9.301 9.686h-28.416a9.472 9.472 0 0 1-9.216-9.686V448.981c0-5.333 4.096-9.685 9.216-9.685h110.55c20.693 0 37.845 2.56 51.626 7.765 14.165 5.334 25.472 12.8 33.92 22.358a81.067 81.067 0 0 1 17.707 33.024c3.157 11.818 4.736 24.234 4.736 37.12 0 19.84-3.84 36.437-11.648 49.749-7.68 13.056-17.664 23.381-29.867 30.976a119.04 119.04 0 0 1-40.192 15.36 227.37 227.37 0 0 1-43.52 4.181h-55.595v141.056z m56.448-186.538c12.971 0 24.534-0.854 34.731-2.56 9.43-1.622 17.323-4.566 23.68-8.79a39.68 39.68 0 0 0 13.952-16.426c3.413-7.168 5.12-16.939 5.12-29.227 0-17.536-5.035-30.293-15.275-38.87-10.666-9.002-28.757-13.653-53.802-13.653h-64.854v109.526h56.448z m257.195 168.789c-15.701 0-27.435-3.115-35.2-9.13-7.595-5.889-12.63-13.227-15.787-29.014a8.875 8.875 0 0 0-8.618-7.168h-24.15a8.96 8.96 0 0 0-8.32 9.557c0.555 10.923 2.432 17.792 6.443 27.307a77.056 77.056 0 0 0 43.52 42.24c10.197 3.968 21.76 5.973 34.688 5.973 12.587 0 24.192-1.365 34.859-4.053 10.922-2.816 20.48-7.04 28.586-12.715a64 64 0 0 0 19.798-22.058c4.864-8.96 7.338-19.2 7.338-30.592 0-15.488-3.882-27.947-11.69-37.12a76.8 76.8 0 0 0-26.88-20.139 157.91 157.91 0 0 0-32.768-10.752 283.435 283.435 0 0 1-30.166-7.979c-7.68-2.688-17.066-7.168-22.101-13.184-5.035-5.973-5.035-10.922-5.035-17.493 0-7.893 2.688-13.91 8.363-18.688 6.059-5.12 15.445-7.765 28.16-7.765 13.056 0 23.595 2.816 31.787 8.32 7.424 4.992 12.501 15.36 14.25 28.757 0.128 0.981 0.427 1.92 0.854 2.773 1.408 3.03 4.437 5.12 7.893 5.12h23.637l1.067-0.085a9.045 9.045 0 0 0 7.68-10.155c-3.157-25.898-13.099-46.208-28.8-57.77-15.104-11.136-34.475-16.683-58.027-16.683-24.533 0-43.904 6.23-57.856 18.816-14.208 12.8-21.418 29.44-21.418 49.408 0 15.744 2.133 29.013 10.752 40.49 8.618 11.478 19.072 18.262 28.074 22.614 8.96 4.31 21.078 7.381 32.768 9.515 10.838 1.92 20.864 4.266 30.123 6.954 8.533 2.518 15.488 5.888 20.907 10.112 4.053 3.115 5.973 7.979 5.973 15.36a25.003 25.003 0 0 1-2.219 10.496 27.99 27.99 0 0 1-6.912 9.174 35.499 35.499 0 0 1-12.33 6.826 59.947 59.947 0 0 1-19.286 2.731z" fill="#FFFFFF" /></svg>