<?xml version="1.0" standalone="no"?><!DOCTYPE svg PUBLIC "-//W3C//DTD SVG 1.1//EN" "http://www.w3.org/Graphics/SVG/1.1/DTD/svg11.dtd"><svg class="icon" width="32px" height="32.00px" viewBox="0 0 1024 1024" version="1.1" xmlns="http://www.w3.org/2000/svg"><path d="M170.667 106.667A42.667 42.667 0 0 1 213.333 64h417.835a21.333 21.333 0 0 1 15.061 6.23l200.875 200.874a21.333 21.333 0 0 1 6.23 15.061v631.168A42.667 42.667 0 0 1 810.666 960H213.333a42.667 42.667 0 0 1-42.666-42.667V106.667z" fill="#3370FF" /><path d="M640 65.92a21.29 21.29 0 0 1 6.23 4.31l200.874 200.874a21.376 21.376 0 0 1 4.31 6.23H682.666A42.667 42.667 0 0 1 640 234.666V65.92z" fill="#245BDB" /><path d="M512.17 522.667l-62.89 232.789a6.485 6.485 0 0 1-6.272 4.779h-37.035a6.485 6.485 0 0 1-6.229-4.694l-85.333-301.226a6.485 6.485 0 0 1 6.229-8.278h37.163a6.445 6.445 0 0 1 6.272 4.864l60.714 234.838 63.062-234.88a6.485 6.485 0 0 1 6.229-4.822h36.224c2.944 0 5.504 2.006 6.272 4.822l62.635 234.794 60.672-234.752a6.485 6.485 0 0 1 6.272-4.864h37.162a6.485 6.485 0 0 1 6.23 8.278L624.213 755.54a6.485 6.485 0 0 1-6.186 4.694h-37.078a6.485 6.485 0 0 1-6.229-4.779l-62.55-232.832z" fill="#FFFFFF" /></svg>