<?xml version="1.0" standalone="no"?><!DOCTYPE svg PUBLIC "-//W3C//DTD SVG 1.1//EN" "http://www.w3.org/Graphics/SVG/1.1/DTD/svg11.dtd"><svg class="icon" width="32px" height="32.00px" viewBox="0 0 1024 1024" version="1.1" xmlns="http://www.w3.org/2000/svg"><path d="M170.667 106.667A42.667 42.667 0 0 1 213.333 64h417.835a21.333 21.333 0 0 1 15.061 6.23l200.875 200.874a21.333 21.333 0 0 1 6.23 15.061v631.168A42.667 42.667 0 0 1 810.666 960H213.333a42.667 42.667 0 0 1-42.666-42.667V106.667z" fill="#FF8800" /><path d="M640 65.92a21.29 21.29 0 0 1 6.23 4.31l200.874 200.874a21.376 21.376 0 0 1 4.31 6.23H682.666A42.667 42.667 0 0 1 640 234.666V65.92z" fill="#DE7802" /><path d="M443.008 789.12V636.16h72.619c17.45 0 34.816-1.536 52.053-4.608a148.65 148.65 0 0 0 47.36-16.47c14.208-8.02 25.813-18.986 34.73-32.853 9.046-14.037 13.483-31.658 13.483-52.736 0-13.909-1.877-27.221-5.632-39.978a83.2 83.2 0 0 0-20.394-34.774c-9.814-10.069-22.955-17.92-39.382-23.552-16.256-5.589-36.693-8.362-61.226-8.362H401.664a6.016 6.016 0 0 0-6.059 6.016v360.32c0 3.328 2.731 6.016 6.059 6.016h35.328a6.016 6.016 0 0 0 5.973-5.974z m116.693-197.205a285.184 285.184 0 0 1-43.093 2.944h-73.6V464.043h83.883c31.829 0 54.698 5.546 68.608 16.213 13.568 10.41 20.394 25.813 20.394 46.677 0 14.464-2.304 25.942-6.741 34.518-4.437 8.533-10.667 15.146-18.773 20.053-8.278 5.035-18.475 8.533-30.678 10.41z" fill="#FFFFFF" /></svg>