<?xml version="1.0" standalone="no"?><!DOCTYPE svg PUBLIC "-//W3C//DTD SVG 1.1//EN" "http://www.w3.org/Graphics/SVG/1.1/DTD/svg11.dtd"><svg class="icon" width="32px" height="32.00px" viewBox="0 0 1024 1024" version="1.1" xmlns="http://www.w3.org/2000/svg"><path d="M170.667 106.667A42.667 42.667 0 0 1 213.333 64h417.835a21.333 21.333 0 0 1 15.061 6.23l200.875 200.874a21.333 21.333 0 0 1 6.23 15.061v631.168A42.667 42.667 0 0 1 810.666 960H213.333a42.667 42.667 0 0 1-42.666-42.667V106.667z" fill="#34C724" /><path d="M640 65.92a21.29 21.29 0 0 1 6.23 4.31l200.874 200.874a21.376 21.376 0 0 1 4.31 6.23H682.666A42.667 42.667 0 0 1 640 234.666V65.92z" fill="#2EA121" /><path d="M364.672 422.827h46.55c2.09 0 4.01 0.981 5.205 2.688L505.94 555.22l90.027-129.706a6.272 6.272 0 0 1 5.163-2.731h46.592a6.272 6.272 0 0 1 5.12 9.941L536.235 596.31 662.1 773.59a6.272 6.272 0 0 1-5.12 9.942H610.39a6.272 6.272 0 0 1-5.162-2.731L505.94 637.312 407.168 780.8a6.272 6.272 0 0 1-5.205 2.73h-46.55a6.272 6.272 0 0 1-5.12-9.94l124.928-177.28-115.626-163.627a6.272 6.272 0 0 1 5.12-9.899z" fill="#FFFFFF" /></svg>