<?xml version="1.0" standalone="no"?><!DOCTYPE svg PUBLIC "-//W3C//DTD SVG 1.1//EN" "http://www.w3.org/Graphics/SVG/1.1/DTD/svg11.dtd"><svg class="icon" width="32px" height="32.00px" viewBox="0 0 1024 1024" version="1.1" xmlns="http://www.w3.org/2000/svg"><path d="M170.667 106.667A42.667 42.667 0 0 1 213.333 64h418.475a21.333 21.333 0 0 1 14.293 5.461l200.15 180.182a21.333 21.333 0 0 1 7.082 15.872v651.818A42.667 42.667 0 0 1 810.667 960H213.333a42.667 42.667 0 0 1-42.666-42.667V106.667z" fill="#3370FF" /><path d="M853.333 277.333v-11.818a21.333 21.333 0 0 0-7.082-15.872L646.1 69.46a21.29 21.29 0 0 0-6.101-3.84v169.046a42.667 42.667 0 0 0 42.667 42.666h170.666z" fill="#245BDB" /><path d="M364.459 453.419a35.072 35.072 0 0 1 34.816-30.635h225.45c17.664 0 32.598 13.141 34.816 30.635l15.36 120.618H349.1l15.36-120.618z m54.485 342.314c0-6.741 5.461-12.202 12.245-12.202h28.502a40.747 40.747 0 0 0 40.704-40.747v-87.253h23.296v87.253c0 22.485 18.218 40.747 40.704 40.747h28.501c6.741 0 12.245 5.461 12.245 12.202a11.05 11.05 0 0 1-11.093 11.094H429.995a11.05 11.05 0 0 1-11.094-11.094z m-72.405-186.752a11.648 11.648 0 1 0 0 23.254h331.008a11.648 11.648 0 0 0 0-23.254H346.539z" fill="#FFFFFF" /></svg>