<?xml version="1.0" standalone="no"?>
<!DOCTYPE svg PUBLIC "-//W3C//DTD SVG 1.1//EN" "http://www.w3.org/Graphics/SVG/1.1/DTD/svg11.dtd" >
<!--
2013-9-30: Created.
-->
<svg>
<metadata>
Created by iconfont
</metadata>
<defs>

<font id="pro-app-page" horiz-adv-x="1024" >
  <font-face
    font-family="pro-app-page"
    font-weight="500"
    font-stretch="normal"
    units-per-em="1024"
    ascent="896"
    descent="-128"
  />
    <missing-glyph />
    
    <glyph glyph-name="touxiang11" unicode="&#59102;" d="M0 384.000256a511.999744 511.999744 0 1 1 1023.999488 0 511.999744 511.999744 0 0 1-1023.999488 0zM666.930867 480.000208c95.999952 130.559935 77.516761-85.913557-11.775995-94.310353-140.64633-46.335977 11.775994 94.310353 11.775995 94.310353zM387.379006 381.491457c4.198398-15.974392 35.327982-81.663959-34.559982-184.422308-69.887965-102.707149 160.87032-158.310321 160.870319-158.31032s218.931091 74.086363 230.758285 110.335944c72.396764 61.439969-134.758333-0.8704-95.231953 225.638288-94.259153 59.80157-261.836669 6.758397-261.836669 6.758396zM511.999744-127.999488a511.641344 511.641344 0 0 1 439.03978 248.575876v0.716799c-25.855987 39.32158-203.263898 98.815951-272.895863 98.815951-138.086331-241.407879-324.454238-41.574379-321.07504-2.252799-96.460752 6.655997-212.684694-63.027168-277.196661-108.287946A511.487744 511.487744 0 0 1 511.999744-127.999488zM392.857404 341.913877c5.631997-20.22399 152.678324-157.491121 285.900657-123.801538-39.01438 48.025576-25.190387 122.931139-22.732789 167.577516 13.823993 30.310385-259.07187-16.844792-263.167868-43.775978zM530.534135 727.552084c54.732773-10.137595 131.379134-15.155192 141.465529-91.801554 106.956747-446.310177-371.353414-508.620546-309.913445-40.44798 31.180784 165.887917 168.447916 132.249534 168.447916 132.249534zM415.078192 666.931315c29.644785-20.22399 89.497555-86.476757 234.598283-53.913574 12.441594-48.281576 6.246397-48.281576 39.83358-99.32795 24.575988-8.447996 95.743952 233.215883-112.639943 266.086267-243.967878 37.887981-275.302262-176.844712-212.633494-254.310273 15.257592 15.974392 3.379198 103.577548 50.841574 141.46553z"  horiz-adv-x="1024" />

    
    <glyph glyph-name="packup" unicode="&#59173;" d="M549.888 126.976L860.8 469.12a51.2 51.2 0 0 1-37.888 85.632H201.088a51.2 51.2 0 0 1-37.888-85.632l310.912-342.08a51.2 51.2 0 0 1 75.776 0z"  horiz-adv-x="1024" />

    
    <glyph glyph-name="unfold" unicode="&#59174;" d="M476.16 652.528941L186.729412 330.992941a48.188235 48.188235 0 0 1 35.84-80.414117h578.861176A48.188235 48.188235 0 0 1 837.270588 330.992941L547.84 652.528941a48.188235 48.188235 0 0 1-71.68 0z"  horiz-adv-x="1024" />

    
    <glyph glyph-name="guide1" unicode="&#59044;" d="M130.133333 725.333333A106.666667 106.666667 0 0 0 234.666667 853.333333h533.333333a42.666667 42.666667 0 0 0 42.666667-42.666666v-85.333334h42.666666a42.666667 42.666667 0 0 0 42.666667-42.666666v-725.333334a42.666667 42.666667 0 0 0-42.666667-42.666666H170.666667a42.666667 42.666667 0 0 0-42.666667 42.666666V725.333333h2.133333zM234.666667 725.333333h490.666666V768H234.666667a21.333333 21.333333 0 1 1 0-42.666667z m0-85.333333h-21.333334v-640h597.333334V640H234.666667z m64-170.666667h384v-85.333333H298.666667v85.333333z m0-170.666666h298.666666v-85.333334H298.666667v85.333334z"  horiz-adv-x="1024" />

    
    <glyph glyph-name="icon_file-folder_colorful" unicode="&#59081;" d="M106.667 725.333A42.667 42.667 0 0 0 149.333 768H401.58a85.333 85.333 0 0 0 55.253-20.31l76.501-65.023H832a64 64 0 0 0 64-64v-535.723a64 64 0 0 0-64-64H170.667a64 64 0 0 0-64 64v642.39zM106.667 640a42.667 42.667 0 0 0 42.666 42.667h725.334A42.667 42.667 0 0 0 917.333 640v-597.333A42.667 42.667 0 0 0 874.667 0H149.333a42.667 42.667 0 0 0-42.666 42.667V640z"  horiz-adv-x="1024" />

    
    <glyph glyph-name="icon_file-audio_colorful" unicode="&#59082;" d="M170.667 789.333A42.667 42.667 0 0 0 213.333 832h417.835a21.333 21.333 0 0 0 15.061-6.23l200.875-200.874a21.333 21.333 0 0 0 6.23-15.061v-631.168A42.667 42.667 0 0 0 810.666-64H213.333a42.667 42.667 0 0 0-42.666 42.667V789.333zM640 830.08a21.29 21.29 0 0 0 6.23-4.31l200.874-200.874a21.376 21.376 0 0 0 4.31-6.23H682.666A42.667 42.667 0 0 0 640 661.334V830.08zM639.232 483.84a21.333 21.333 0 0 0 16.341-18.688l3.926-40.533a21.333 21.333 0 0 0-25.814-22.87l-98.218 21.632a8.533 8.533 0 0 1-10.326-9.13l22.998-241.067a15.787 15.787 0 0 0-1.28-7.595 93.099 93.099 0 1 0-36.523 77.867l-21.59 246.955a21.333 21.333 0 0 0 26.113 22.613l124.373-29.184z"  horiz-adv-x="1024" />

    
    <glyph glyph-name="icon_file-sheet_colorful" unicode="&#59083;" d="M170.667 789.333A42.667 42.667 0 0 0 213.333 832h417.835a21.333 21.333 0 0 0 15.061-6.23l200.875-200.874a21.333 21.333 0 0 0 6.23-15.061v-631.168A42.667 42.667 0 0 0 810.666-64H213.333a42.667 42.667 0 0 0-42.666 42.667V789.333zM640 830.08a21.29 21.29 0 0 0 6.23-4.31l200.874-200.874a21.376 21.376 0 0 0 4.31-6.23H682.666A42.667 42.667 0 0 0 640 661.334V830.08zM698.197 484.864H325.803a11.648 11.648 0 0 1-11.606-11.648v-349.099c0-6.4 5.206-11.648 11.606-11.648h372.394c6.4 0 11.648 5.248 11.648 11.648V473.216a11.648 11.648 0 0 1-11.648 11.648z m-337.493-46.55h81.493v-81.493h-81.493v81.494z m0-279.295V310.315h81.493v-151.296h-81.493z m128 197.845v81.45h174.592v-81.493h-174.55z m174.592-46.55h-174.55V159.02h174.507V310.315z"  horiz-adv-x="1024" />

    
    <glyph glyph-name="icon_file-code_colorful" unicode="&#59084;" d="M170.667 789.333A42.667 42.667 0 0 0 213.333 832h417.835a21.333 21.333 0 0 0 15.061-6.23l200.875-200.874a21.333 21.333 0 0 0 6.23-15.061v-631.168A42.667 42.667 0 0 0 810.666-64H213.333a42.667 42.667 0 0 0-42.666 42.667V789.333zM640 830.08a21.29 21.29 0 0 0 6.23-4.31l200.874-200.874a21.376 21.376 0 0 0 4.31-6.23H682.666A42.667 42.667 0 0 0 640 661.334V830.08zM439.339 406.357L331.52 292.864l107.819-113.493c3.84-4.096 3.797-10.624-0.171-14.592l-0.043-0.043-14.506-14.421a9.813 9.813 0 0 0-14.08 0.17L282.112 285.611a10.539 10.539 0 0 0 0 14.464L410.539 435.2a9.813 9.813 0 0 0 14.08 0.213l14.506-14.464a10.539 10.539 0 0 0 0.256-14.549l-0.042-0.085z m256.853-113.493L596.096 406.357a11.093 11.093 0 0 0 0.17 14.55v0.042l13.483 14.464a8.661 8.661 0 0 0 13.099-0.213l119.21-135.125a11.136 11.136 0 0 0 0-14.422l-119.21-135.168a8.661 8.661 0 0 0-13.099-0.213l-13.482 14.464a11.093 11.093 0 0 0-0.214 14.592h0.043l100.139 113.493zM538.88 508.074l20.95-2.26c5.76-0.64 9.813-5.42 9.173-10.753l-50.091-397.269c-0.64-5.333-5.845-9.13-11.52-8.533l-21.035 2.261c-5.717 0.64-9.813 5.419-9.173 10.752l50.09 397.27c0.683 5.333 5.846 9.13 11.606 8.533z"  horiz-adv-x="1024" />

    
    <glyph glyph-name="icon_file-numbers_colorful" unicode="&#59085;" d="M170.667 789.333A42.667 42.667 0 0 0 213.333 832h417.835a21.333 21.333 0 0 0 15.061-6.23l200.875-200.874a21.333 21.333 0 0 0 6.23-15.061v-631.168A42.667 42.667 0 0 0 810.666-64H213.333a42.667 42.667 0 0 0-42.666 42.667V789.333zM640 830.08a21.29 21.29 0 0 0 6.23-4.31l200.874-200.874a21.376 21.376 0 0 0 4.31-6.23H682.666A42.667 42.667 0 0 0 640 661.334V830.08zM540.117 496.299a10.667 10.667 0 0 1-10.666-10.667v-304.47c0-5.887 4.778-10.666 10.666-10.666h48.47a10.667 10.667 0 0 1 10.666 10.667V485.632a10.667 10.667 0 0 1-10.666 10.667H540.16z m104.747-81.451a10.667 10.667 0 0 1-10.667-10.667v-223.018a10.643 10.643 0 0 1 10.667-10.667h48.47A10.667 10.667 0 0 1 704 181.163V404.18a10.667 10.667 0 0 1-10.667 10.667h-48.469z m-220.16-92.117a10.667 10.667 0 0 0 10.667 10.666h48.512a10.667 10.667 0 0 0 10.666-10.666v-141.568a10.667 10.667 0 0 0-10.666-10.667h-48.47a10.667 10.667 0 0 0-10.666 10.667V322.73z m-94.037-70.784A10.667 10.667 0 0 1 320 241.28v-60.16c0-5.845 4.779-10.667 10.667-10.667h48.469a10.667 10.667 0 0 1 10.667 10.667v60.16a10.667 10.667 0 0 1-10.667 10.667h-48.47z m-28.16-127.062a10.667 10.667 0 0 0 10.666 10.667h397.611a10.667 10.667 0 0 0 10.667-10.667v-1.92a10.667 10.667 0 0 0-10.667-10.666H313.216a10.667 10.667 0 0 0-10.667 10.666v1.92z"  horiz-adv-x="1024" />

    
    <glyph glyph-name="icon_file-ai_colorful" unicode="&#59086;" d="M170.667 789.333A42.667 42.667 0 0 0 213.333 832h417.835a21.333 21.333 0 0 0 15.061-6.23l200.875-200.874a21.333 21.333 0 0 0 6.23-15.061v-631.168A42.667 42.667 0 0 0 810.666-64H213.333a42.667 42.667 0 0 0-42.666 42.667V789.333zM640 830.08a21.29 21.29 0 0 0 6.23-4.31l200.874-200.874a21.376 21.376 0 0 0 4.31-6.23H682.666A42.667 42.667 0 0 0 640 661.334V830.08zM343.936 129.877l32.213 87.339h130.432l32.171-87.339c1.28-3.456 4.523-5.76 8.107-5.76h36.608a8.533 8.533 0 0 1 3.2 0.598 8.96 8.96 0 0 1 4.949 11.52L469.675 455.893a8.704 8.704 0 0 1-8.107 5.675h-40.021a8.704 8.704 0 0 1-8.107-5.675L291.499 136.235a9.088 9.088 0 0 1-0.598-3.2c0-4.907 3.926-8.918 8.747-8.918h36.139a8.704 8.704 0 0 1 8.149 5.76z m146.603 133.888h-98.347l49.536 128 48.81-128zM657.664 347.136a21.333 21.333 0 0 0 21.333 21.333h9.728a21.333 21.333 0 0 0 21.334-21.333v-9.685a21.333 21.333 0 0 0-21.334-21.334h-9.728a21.333 21.333 0 0 0-21.333 21.334v9.685z m21.333-60.117a21.333 21.333 0 0 1-21.333-21.334v-120.234a21.333 21.333 0 0 1 21.333-21.334h9.728a21.333 21.333 0 0 1 21.334 21.334V265.685a21.333 21.333 0 0 1-21.334 21.334h-9.728z"  horiz-adv-x="1024" />

    
    <glyph glyph-name="icon_file-text_colorful" unicode="&#59087;" d="M170.667 789.333A42.667 42.667 0 0 0 213.333 832h417.835a21.333 21.333 0 0 0 15.061-6.23l200.875-200.874a21.333 21.333 0 0 0 6.23-15.061v-631.168A42.667 42.667 0 0 0 810.666-64H213.333a42.667 42.667 0 0 0-42.666 42.667V789.333zM640 830.08a21.29 21.29 0 0 0 6.23-4.31l200.874-200.874a21.376 21.376 0 0 0 4.31-6.23H688.426A48.427 48.427 0 0 0 640 667.094V830.08zM535.296 438.315v-320a5.803 5.803 0 0 0-5.845-5.846h-34.902a5.803 5.803 0 0 0-5.802 5.846v320H343.253a5.803 5.803 0 0 0-5.802 5.802V479.02a5.827 5.827 0 0 0 5.845 5.845h337.45c3.2 0 5.803-2.603 5.803-5.845v-34.902a5.803 5.803 0 0 0-5.802-5.802H535.253z"  horiz-adv-x="1024" />

    
    <glyph glyph-name="icon_file-doc_colorful" unicode="&#59088;" d="M170.667 789.333A42.667 42.667 0 0 0 213.333 832h420.694a21.333 21.333 0 0 0 15.232-6.4l197.973-201.387a21.333 21.333 0 0 0 6.101-14.933v-630.613A42.667 42.667 0 0 0 810.667-64H213.333a42.667 42.667 0 0 0-42.666 42.667V789.333zM640 831.147a21.333 21.333 0 0 0 9.259-5.547l197.973-201.387a21.333 21.333 0 0 0 3.925-5.546h-162.73A48.427 48.427 0 0 0 640 667.093V831.147zM344.448 461.568h323.499a6.956 6.956 0 0 0 6.954-6.955v-32.597c0-3.84-3.114-6.997-6.954-6.997H344.448a6.997 6.997 0 0 0-6.997 6.997v32.597c0 3.84 3.114 6.955 6.997 6.955z m0-139.648h323.499a6.956 6.956 0 0 0 6.954-6.955v-32.597c0-3.84-3.114-6.997-6.954-6.997H344.448a6.997 6.997 0 0 0-6.997 6.997v32.597c0 3.84 3.114 6.955 6.997 6.955z m0-139.605h172.203c3.84 0 6.997-3.115 6.997-6.998v-32.597c0-3.84-3.115-6.955-6.997-6.955H344.448a6.997 6.997 0 0 0-6.997 6.955v32.597c0 3.84 3.114 6.998 6.997 6.998z"  horiz-adv-x="1024" />

    
    <glyph glyph-name="icon_file-ppt_colorful" unicode="&#59089;" d="M170.667 789.333A42.667 42.667 0 0 0 213.333 832h417.835a21.333 21.333 0 0 0 15.061-6.23l200.875-200.874a21.333 21.333 0 0 0 6.23-15.061v-631.168A42.667 42.667 0 0 0 810.666-64H213.333a42.667 42.667 0 0 0-42.666 42.667V789.333zM640 830.08a21.29 21.29 0 0 0 6.23-4.31l200.874-200.874a21.376 21.376 0 0 0 4.31-6.23H682.666A42.667 42.667 0 0 0 640 661.334V830.08zM443.008 106.88V259.84h72.619c17.45 0 34.816 1.536 52.053 4.608a148.65 148.65 0 0 1 47.36 16.47c14.208 8.02 25.813 18.986 34.73 32.853 9.046 14.037 13.483 31.658 13.483 52.736 0 13.909-1.877 27.221-5.632 39.978a83.2 83.2 0 0 1-20.394 34.774c-9.814 10.069-22.955 17.92-39.382 23.552-16.256 5.589-36.693 8.362-61.226 8.362H401.664a6.016 6.016 0 0 1-6.059-6.016v-360.32c0-3.328 2.731-6.016 6.059-6.016h35.328a6.016 6.016 0 0 1 5.973 5.974z m116.693 197.205a285.184 285.184 0 0 0-43.093-2.944h-73.6V431.957h83.883c31.829 0 54.698-5.546 68.608-16.213 13.568-10.41 20.394-25.813 20.394-46.677 0-14.464-2.304-25.942-6.741-34.518-4.437-8.533-10.667-15.146-18.773-20.053-8.278-5.035-18.475-8.533-30.678-10.41z"  horiz-adv-x="1024" />

    
    <glyph glyph-name="icon_file-bitable_colorful" unicode="&#59090;" d="M170.667 789.333A42.667 42.667 0 0 0 213.333 832h417.835a21.333 21.333 0 0 0 15.061-6.23l200.875-200.874a21.333 21.333 0 0 0 6.23-15.061v-631.168A42.667 42.667 0 0 0 810.666-64H213.333a42.667 42.667 0 0 0-42.666 42.667V789.333zM640 830.08a21.29 21.29 0 0 0 6.23-4.31l200.874-200.874a21.376 21.376 0 0 0 4.31-6.23H682.666A42.667 42.667 0 0 0 640 661.334V830.08zM343.296 473.173h337.45c3.2 0 5.803-2.56 5.803-5.802v-46.507a5.803 5.803 0 0 0-5.802-5.845H343.253a5.803 5.803 0 0 0-5.802 5.845v46.507a5.827 5.827 0 0 0 5.845 5.845z m0-139.605h69.803c3.2 0 5.802-2.56 5.802-5.803v-46.549a5.803 5.803 0 0 0-5.802-5.803h-69.803a5.803 5.803 0 0 0-5.845 5.803v46.507a5.827 5.827 0 0 0 5.845 5.845z m0-139.648h69.803c3.2 0 5.802-2.56 5.802-5.803v-46.506a5.803 5.803 0 0 0-5.802-5.846h-69.803a5.803 5.803 0 0 0-5.845 5.803V188.16c0 3.2 2.602 5.803 5.845 5.803z m128 139.648h209.45c3.2 0 5.803-2.56 5.803-5.803v-46.549a5.803 5.803 0 0 0-5.802-5.803H471.253a5.803 5.803 0 0 0-5.802 5.803v46.507c0 3.242 2.602 5.845 5.802 5.845z m0-139.648h209.45c3.2 0 5.803-2.56 5.803-5.803v-46.506a5.803 5.803 0 0 0-5.802-5.846H471.253a5.803 5.803 0 0 0-5.802 5.803V188.16c0 3.2 2.602 5.803 5.802 5.803z"  horiz-adv-x="1024" />

    
    <glyph glyph-name="icon_file-image_colorful" unicode="&#59091;" d="M170.667 789.333A42.667 42.667 0 0 0 213.333 832h417.835a21.333 21.333 0 0 0 15.061-6.23l200.875-200.874a21.333 21.333 0 0 0 6.23-15.061v-631.168A42.667 42.667 0 0 0 810.666-64H213.333a42.667 42.667 0 0 0-42.666 42.667V789.333zM640 830.08a21.29 21.29 0 0 0 6.23-4.31l200.874-200.874a21.376 21.376 0 0 0 4.31-6.23H682.666A42.667 42.667 0 0 0 640 661.334V830.08zM346.624 508.16a42.667 42.667 0 0 1-42.667-42.667v-7.808a42.667 42.667 0 0 1 42.667-42.666h7.765a42.667 42.667 0 0 1 42.667 42.666v7.766a42.667 42.667 0 0 1-42.667 42.666h-7.765zM701.781 390.4a25.6 25.6 0 0 0 44.374-17.408v-227.541a21.333 21.333 0 0 0-21.334-21.334H305.195a17.067 17.067 0 0 0-13.056 28.032l124.8 148.907a42.667 42.667 0 0 0 65.408 0l64.981-77.483L701.781 390.4z"  horiz-adv-x="1024" />

    
    <glyph glyph-name="icon_file-video_colorful" unicode="&#59092;" d="M170.667 789.333A42.667 42.667 0 0 0 213.333 832h417.835a21.333 21.333 0 0 0 15.061-6.23l200.875-200.874a21.333 21.333 0 0 0 6.23-15.061v-631.168A42.667 42.667 0 0 0 810.666-64H213.333a42.667 42.667 0 0 0-42.666 42.667V789.333zM640 830.08a21.29 21.29 0 0 0 6.23-4.31l200.874-200.874a21.376 21.376 0 0 0 4.31-6.23H682.666A42.667 42.667 0 0 0 640 661.334V830.08zM304.47 395.648a42.667 42.667 0 0 0 42.666 42.667h193.963a42.667 42.667 0 0 0 42.666-42.667v-193.963A42.667 42.667 0 0 0 541.1 159.02H347.136a42.667 42.667 0 0 0-42.667 42.666V395.648z m83.413-3.883a21.333 21.333 0 0 0 21.333-21.333v-15.53a21.333 21.333 0 0 0-21.333-21.334h-15.531a21.333 21.333 0 0 0-21.333 21.333v15.531a21.333 21.333 0 0 0 21.333 21.333h15.53zM640.597 376.021l-33.578-19.2V240.47l33.578-19.2a32 32 0 0 1 47.872 27.819v99.157a32 32 0 0 1-47.872 27.776z"  horiz-adv-x="1024" />

    
    <glyph glyph-name="icon_file-zip_colorful" unicode="&#59093;" d="M170.667 789.333A42.667 42.667 0 0 0 213.333 832h417.835a21.333 21.333 0 0 0 15.061-6.23l200.875-200.874a21.333 21.333 0 0 0 6.23-15.061v-631.168A42.667 42.667 0 0 0 810.666-64H213.333a42.667 42.667 0 0 0-42.666 42.667V789.333zM640 830.08a21.29 21.29 0 0 0 6.23-4.31l200.874-200.874a21.376 21.376 0 0 0 4.31-6.23H682.666A42.667 42.667 0 0 0 640 661.334V830.08zM658.304 490.667c13.44 0 24.363-10.752 24.363-24.022v-335.957c0-13.27-10.923-24.021-24.363-24.021h-292.65a24.192 24.192 0 0 0-24.32 24.021v336c0 13.227 10.922 23.979 24.362 23.979h292.608z m-97.536-264.022h-97.536v-83.968h97.536v83.968z m-24.405-23.978v-27.734H487.68v27.734h48.725z m25.514 192H512v-48h-48.768v-48H512v-48h49.92v48h-48.81v48h48.767v48z m-49.877 48h-48.768v-48H512v48z"  horiz-adv-x="1024" />

    
    <glyph glyph-name="icon_file-nages_colorful" unicode="&#59094;" d="M170.667 789.333A42.667 42.667 0 0 0 213.333 832h417.835a21.333 21.333 0 0 0 15.061-6.23l200.875-200.874a21.333 21.333 0 0 0 6.23-15.061v-631.168A42.667 42.667 0 0 0 810.666-64H213.333a42.667 42.667 0 0 0-42.666 42.667V789.333zM640 830.08a21.29 21.29 0 0 0 6.23-4.31l200.874-200.874a21.376 21.376 0 0 0 4.31-6.23H682.666A42.667 42.667 0 0 0 640 661.334V830.08zM610.987 475.605a34.901 34.901 0 0 1-47.702-12.8L448.683 264.32a4.267 4.267 0 0 1 1.578-5.803l53.078-30.634a4.267 4.267 0 0 1 5.802 1.536l114.646 198.528a34.901 34.901 0 0 1-12.8 47.658zM441.3 238.933a4.267 4.267 0 0 1-6.4-3.114l-10.709-75.862a4.267 4.267 0 0 1 6.827-3.925l60.288 47.232a4.267 4.267 0 0 1-0.47 7.04l-49.536 28.587zM302.507 113.024a10.667 10.667 0 0 0 10.666 10.667h397.611a10.667 10.667 0 0 0 10.667-10.667v-1.963a10.667 10.667 0 0 0-10.667-10.666H313.216a10.667 10.667 0 0 0-10.667 10.666v1.963z"  horiz-adv-x="1024" />

    
    <glyph glyph-name="icon_file-ae_colorful" unicode="&#59095;" d="M170.667 789.333A42.667 42.667 0 0 0 213.333 832h417.835a21.333 21.333 0 0 0 15.061-6.23l200.875-200.874a21.333 21.333 0 0 0 6.23-15.061v-631.168A42.667 42.667 0 0 0 810.666-64H213.333a42.667 42.667 0 0 0-42.666 42.667V789.333zM640 830.08a21.29 21.29 0 0 0 6.23-4.31l200.874-200.874a21.376 21.376 0 0 0 4.31-6.23H682.666A42.667 42.667 0 0 0 640 661.334V830.08zM320.64 129.835l32.213 87.338h130.432l32.171-87.338c1.28-3.456 4.523-5.76 8.15-5.76h36.565a8.533 8.533 0 0 1 3.2 0.597 8.96 8.96 0 0 1 4.949 11.52L446.379 455.851a8.704 8.704 0 0 1-8.107 5.674h-40.021a8.704 8.704 0 0 1-8.107-5.674L268.203 136.192a9.045 9.045 0 0 1-0.598-3.2c0-4.95 3.926-8.917 8.747-8.917h36.139a8.704 8.704 0 0 1 8.149 5.76z m146.603 133.888h-98.347l49.536 128 48.81-128z m180.352-90.326c7.765-9.216 18.432-13.738 32.426-13.738 12.032 0 21.846 3.114 29.014 9.088a335.787 335.787 0 0 0 4.394 3.712 25.344 25.344 0 0 1 4.992 5.504c1.152 1.706 2.262 3.84 3.414 6.485 1.408 3.157 3.584 4.608 7.338 4.31l28.672-1.963c5.12-0.342 6.528-5.291 5.248-9.643-4.096-13.824-8.704-20.096-22.613-33.28-16-14.635-36.395-22.059-60.459-22.059-26.794 0-49.066 9.43-65.28 27.776-16.469 18.475-24.49 42.795-24.49 73.6 0 28.16 7.722 51.627 23.168 70.187 16.213 20.523 38.186 30.89 65.621 30.89 30.25 0 53.632-10.837 69.077-32.127 13.526-18.432 20.651-44.16 21.334-76.715a7.381 7.381 0 0 0-7.211-7.552H634.41c1.92-14.933 6.273-26.325 13.227-34.475z m1.194 100.139c7.808 8.661 17.92 12.885 30.891 12.885 26.155 0 40.875-13.568 45.44-42.41h-89.728c2.176 12.33 6.613 22.016 13.397 29.525z"  horiz-adv-x="1024" />

    
    <glyph glyph-name="icon_file-unknow_colorful" unicode="&#59096;" d="M170.667 789.333A42.667 42.667 0 0 0 213.333 832h417.835a21.333 21.333 0 0 0 15.061-6.23l200.875-200.874a21.333 21.333 0 0 0 6.23-15.061v-631.168A42.667 42.667 0 0 0 810.666-64H213.333a42.667 42.667 0 0 0-42.666 42.667V789.333zM640 830.08a21.29 21.29 0 0 0 6.23-4.31l200.874-200.874a21.376 21.376 0 0 0 4.31-6.23H682.666A42.667 42.667 0 0 0 640 661.334V830.08zM609.621 475.136c-23.296 22.059-53.845 32.981-91.861 32.981-42.667 0-76.117-13.653-100.395-41.557-20.48-23.979-31.573-46.933-33.152-83.115l-0.128-4.266a10.581 10.581 0 0 1 10.667-10.667h25.173a10.752 10.752 0 0 1 10.752 10.581l0.086 4.096c1.28 25.003 7.765 38.102 19.413 52.651 14.677 19.584 36.267 29.227 65.835 29.227 26.453 0 46.25-6.742 59.904-20.395 13.013-13.568 19.84-32.085 19.84-55.253 0-15.787-5.76-30.891-17.408-45.867-3.712-4.65-9.088-10.155-26.283-27.392-27.221-23.808-44.032-43.136-52.907-62.165a108.8 108.8 0 0 1-11.008-48.982v-12.032c0-5.888 4.779-10.666 10.667-10.666h25.813a10.667 10.667 0 0 1 10.667 10.666v12.032c0 15.104 3.712 28.63 11.392 41.814 5.803 9.813 13.227 17.536 26.112 28.842 25.899 23.467 40.277 37.376 46.72 45.568a112.555 112.555 0 0 1 23.339 69.376c0 35.243-11.094 63.574-33.238 84.48z m-110.208-339.37a10.667 10.667 0 0 1-10.666-10.667v-25.216c0-5.888 4.778-10.667 10.666-10.667h25.174a10.667 10.667 0 0 1 10.666 10.667v25.173a10.667 10.667 0 0 1-10.666 10.667h-25.174z"  horiz-adv-x="1024" />

    
    <glyph glyph-name="icon_file-sharefolder_colorful" unicode="&#59098;" d="M106.667 725.333A42.667 42.667 0 0 0 149.333 768H401.58a85.333 85.333 0 0 0 55.253-20.31l76.501-65.023H832a64 64 0 0 0 64-64v-535.723a64 64 0 0 0-64-64H170.667a64 64 0 0 0-64 64v642.39zM106.667 640a42.667 42.667 0 0 0 42.666 42.667h725.334A42.667 42.667 0 0 0 917.333 640v-597.333A42.667 42.667 0 0 0 874.667 0H149.333a42.667 42.667 0 0 0-42.666 42.667V640zM381.44 448.939c4.352 25.386 23.979 41.728 48.043 41.728s43.05-19.072 47.914-41.728c2.688-12.502 5.931-35.499 0-65.28-2.005-10.198-10.88-28.758-10.88-28.758s-9.386-21.333-5.504-35.925c2.859-10.795 8.875-14.165 22.742-21.93a465.36 465.36 0 0 0 17.664-10.24c15.616-9.643 27.733-19.073 35.882-26.454a193.525 193.525 0 0 0 21.419 11.733c29.312 13.739 30.976 22.358 32.043 27.904l0.085 0.342c1.067 5.546-0.043 15.061-5.461 26.24a126.72 126.72 0 0 0-8.107 23.04s-4.907 31.914-1.195 52.224c3.67 20.266 20.267 33.365 40.619 33.365s36.437-15.275 40.533-33.365c2.304-10.027 4.992-28.416 0-52.224-1.706-8.15-9.216-23.04-9.216-23.04s-7.893-17.067-4.608-28.715c2.39-8.661 7.467-11.35 19.2-17.536 4.139-2.176 9.046-4.779 14.934-8.235 22.784-13.226 36.608-26.026 40.149-30.89l0.939-1.28c3.413-4.523 7.424-9.814 6.57-16.811-0.938-7.68-11.093-9.77-11.093-9.77H311.339c-4.267 0-9.814 0.426-12.203 12.202-2.39 11.776 7.637 22.613 7.637 22.613s18.902 21.163 54.187 38.656c34.603 17.152 36.608 27.947 37.888 34.859l0.085 0.427c1.28 6.912-0.085 18.773-6.442 32.81-6.4 13.995-9.6 28.758-9.6 28.758s-5.803 39.936-1.451 65.28z"  horiz-adv-x="1024" />

    
    <glyph glyph-name="icon_file-ios_colorful" unicode="&#59099;" d="M170.667 789.333A42.667 42.667 0 0 0 213.333 832h417.835a21.333 21.333 0 0 0 15.061-6.23l200.875-200.874a21.333 21.333 0 0 0 6.23-15.061v-631.168A42.667 42.667 0 0 0 810.666-64H213.333a42.667 42.667 0 0 0-42.666 42.667V789.333zM640 830.08a21.29 21.29 0 0 0 6.23-4.31l200.874-200.874a21.376 21.376 0 0 0 4.31-6.23H682.666A42.667 42.667 0 0 0 640 661.334V830.08zM586.752 452.352a83.627 83.627 0 0 1 15.957 47.53V506.326c0 1.451-0.384 1.792-1.834 1.75a9.813 9.813 0 0 1-0.896-0.086h-0.086c-18.602-2.261-34.73-10.282-49.408-21.504-6.314-4.864-11.093-11.221-15.786-17.664-7.424-10.24-12.544-21.504-14.934-33.962a52.48 52.48 0 0 1-1.024-19.755c0.214-1.11 0.64-1.536 1.75-1.621a55.893 55.893 0 0 1 20.821 2.816c13.312 4.224 24.235 12.245 34.133 21.845 3.755 3.67 6.827 7.936 9.899 12.203l1.408 1.962zM355.84 335.787c-4.821-16.342-6.827-33.067-6.741-53.035l0.384-4.864c0.341-4.608 0.725-10.283 1.493-15.915a255.147 255.147 0 0 1 22.059-73.941c6.272-13.483 13.525-26.368 22.186-38.4 8.192-11.563 16.64-22.955 27.136-32.555 6.358-5.802 13.227-10.581 21.206-13.696a35.84 35.84 0 0 1 16.554-2.389c6.144 0.597 12.203 1.707 18.006 3.84 4.522 1.707 9.088 3.413 13.568 5.205 10.453 4.267 21.333 6.784 32.554 7.68 8.96 0.64 17.664-1.024 26.112-3.84 4.736-1.536 9.43-3.285 14.08-5.034l7.851-2.859c6.997-2.56 14.293-4.139 21.675-4.267 10.24-0.213 19.797 2.859 28.245 8.96 6.443 4.694 12.373 10.027 17.365 16.384a255.701 255.701 0 0 0 5.974 7.339c9.557 12.245 18.432 24.96 25.685 38.827 5.888 11.264 10.752 23.04 14.933 35.157 0.683 1.92 0.598 2.219-1.237 3.072a13.653 13.653 0 0 1-0.512 0.213l-0.085 0.043a87.595 87.595 0 0 0-28.672 20.693 89.813 89.813 0 0 0-16 22.656 98.56 98.56 0 0 0-8.747 43.606c0 11.221 2.56 21.888 6.699 32.042 7.338 17.963 20.138 31.147 36.309 41.088 1.579 0.939 1.707 1.451 0.512 2.902a63.872 63.872 0 0 1-3.37 3.84 109.227 109.227 0 0 1-12.502 12.885 88.875 88.875 0 0 1-25.643 14.421c-10.965 4.31-22.442 6.4-34.176 6.912a73.515 73.515 0 0 1-19.242-0.981c-9.984-2.219-19.627-5.461-29.312-8.875-6.699-2.389-13.483-4.608-20.267-6.826l-5.888-1.92a13.568 13.568 0 0 0-7.04-0.256 105.899 105.899 0 0 0-16.299 4.821 263.51 263.51 0 0 1-30.506 9.941 77.44 77.44 0 0 1-20.608 2.774 95.787 95.787 0 0 1-51.243-17.494 111.701 111.701 0 0 1-19.2-16.64 96.768 96.768 0 0 1-12.501-18.261 115.797 115.797 0 0 1-10.795-23.296z"  horiz-adv-x="1024" />

    
    <glyph glyph-name="icon_file-sketch_colorful" unicode="&#59100;" d="M170.667 789.333A42.667 42.667 0 0 0 213.333 832h417.835a21.333 21.333 0 0 0 15.061-6.23l200.875-200.874a21.333 21.333 0 0 0 6.23-15.061v-631.168A42.667 42.667 0 0 0 810.666-64H213.333a42.667 42.667 0 0 0-42.666 42.667V789.333zM640 830.08a21.29 21.29 0 0 0 6.23-4.31l200.874-200.874a21.376 21.376 0 0 0 4.31-6.23H682.666A42.667 42.667 0 0 0 640 661.334V830.08zM680.96 314.325c20.224 22.614 21.76 56.363 3.584 80.726l-39.125 52.48a63.872 63.872 0 0 1-51.2 25.685h-163.84c-20.054 0-38.912-9.43-50.987-25.472l-39.68-52.65c-18.347-24.32-16.896-58.24 3.413-80.982L482.22 158.549a39.936 39.936 0 0 1 59.52 0L680.96 314.283z"  horiz-adv-x="1024" />

    
    <glyph glyph-name="icon_file-mindnote_colorful" unicode="&#59101;" d="M170.667 789.333A42.667 42.667 0 0 0 213.333 832H651.82a21.333 21.333 0 0 0 15.872-7.083l180.181-200.149a21.333 21.333 0 0 0 5.461-14.293v-631.808A42.667 42.667 0 0 0 810.667-64H213.333a42.667 42.667 0 0 0-42.666 42.667V789.333zM661.333 829.781a21.333 21.333 0 0 0 6.358-4.864l180.181-200.149a22.291 22.291 0 0 0 3.84-6.101H704a42.667 42.667 0 0 0-42.667 42.666V829.781zM372.352 287.019h52.395c3.2 0 5.802-2.56 5.802-5.803v-23.296a5.803 5.803 0 0 0-5.802-5.803h-52.395v-69.802c0-12.886 10.453-23.296 23.296-23.296h29.099c3.2 0 5.802-2.56 5.802-5.803v-23.296a5.803 5.803 0 0 0-5.802-5.803H384a46.507 46.507 0 0 0-46.507 46.55V356.864a58.197 58.197 0 1 0 34.902-11.648v-58.197z m127.061 23.296a10.667 10.667 0 0 1-10.666-10.667v-36.864c0-5.888 4.778-10.667 10.666-10.667h211.371a10.667 10.667 0 0 1 10.667 10.667v36.864a10.667 10.667 0 0 1-10.667 10.667h-211.37z m0-128a10.667 10.667 0 0 1-10.666-10.667v-36.864c0-5.888 4.778-10.667 10.666-10.667h211.371a10.667 10.667 0 0 1 10.667 10.667v36.864a10.667 10.667 0 0 1-10.667 10.667h-211.37z m1.92 255.018a10.667 10.667 0 0 1-10.666-10.666v-36.864c0-5.888 4.778-10.667 10.666-10.667h211.414a10.667 10.667 0 0 1 10.666 10.667v36.864a10.667 10.667 0 0 1-10.666 10.666H501.333z"  horiz-adv-x="1024" />

    
    <glyph glyph-name="icon_file-pdf_colorful" unicode="&#59071;" d="M170.667 789.333A42.667 42.667 0 0 0 213.333 832h417.835a21.333 21.333 0 0 0 15.061-6.23l200.875-200.874a21.333 21.333 0 0 0 6.23-15.061v-631.168A42.667 42.667 0 0 0 810.666-64H213.333a42.667 42.667 0 0 0-42.666 42.667V789.333zM640 828.16a42.667 42.667 0 0 0 12.501-8.661l188.331-188.331a42.422 42.422 0 0 0 8.661-12.501h-124.16A85.333 85.333 0 0 0 640 704V828.16zM748.8 232.49c-10.539 12.374-32.256 18.433-66.347 18.433-19.797 0-47.104-0.512-74.538-4.566-74.88 53.974-92.459 112-92.459 112s12.8 32.128 13.61 84.566c0.513 33.152-4.735 57.898-18.133 68.522a37.675 37.675 0 0 1-22.357 8.32 29.867 29.867 0 0 1-17.621-5.504c-38.955-28.074 3.584-160.554 4.693-164.096a1177.6 1177.6 0 0 0-65.323-133.333c-7.765-13.483-7.765-13.739-12.97-19.883 0 0-68.139-33.792-100.139-71.253-18.048-21.205-18.645-35.755-17.664-46.635 1.536-13.056 18.219-24.746 34.987-24.746l2.048 0.042c17.066 1.024 36.01 5.718 57.13 25.686 15.275 14.464 32.427 53.674 54.528 92.074 63.36 17.792 119.126 30.422 165.846 37.675 34.261-18.219 85.248-38.827 119.936-38.827 11.648 0 21.034 2.39 27.861 6.998 8.15 5.546 11.605 12.373 13.781 25.13 2.134 12.715-0.853 22.4-6.826 29.398z m-74.453-19.925c31.658 0 48.768-5.589 57.6-10.24 2.688-1.493 4.693-2.858 6.058-4.053-2.474-1.92-7.338-4.352-16.17-4.352-14.592 0-33.792 6.187-57.174 18.475 3.286 0.085 6.528 0.17 9.686 0.17z m-181.76 279.126l0.085 0.128c4.95-3.627 7.253-29.184 6.827-43.99-0.683-19.882-0.811-27.562-3.328-39.765-6.742 25.43-7.254 71.253-3.542 83.627z m1.578-186.027c15.446-25.43 34.987-51.2 57.088-70.827-43.093-9.216-78.805-17.706-104.533-26.709a795.179 795.179 0 0 1 47.445 97.536zM320.427 90.283c3.925 5.76 14.549 16.896 41.557 38.485-14.507-33.365-30.763-38.485-45.867-46.507a50.904 50.904 0 0 0 4.31 8.022z"  horiz-adv-x="1024" />

    
    <glyph glyph-name="icon_file-android_colorful" unicode="&#59073;" d="M170.667 789.333A42.667 42.667 0 0 0 213.333 832h417.835a21.333 21.333 0 0 0 15.061-6.23l200.875-200.874a21.333 21.333 0 0 0 6.23-15.061v-631.168A42.667 42.667 0 0 0 810.666-64H213.333a42.667 42.667 0 0 0-42.666 42.667V789.333zM640 830.08a21.29 21.29 0 0 0 6.23-4.31l200.874-200.874a21.376 21.376 0 0 0 4.31-6.23H682.666A42.667 42.667 0 0 0 640 661.334V830.08zM451.755 510.72a10.539 10.539 0 1 1-18.176-10.667l19.498-33.365a104.619 104.619 0 0 1-45.781-86.57h209.45c0 35.413-17.578 66.73-44.5 85.674l19.967 34.133a10.539 10.539 0 0 1-18.218 10.624l-20.054-34.432A104.363 104.363 0 0 1 512 484.864c-14.336 0-27.99-2.901-40.405-8.107l-19.84 33.92z m13.696-92.075a11.648 11.648 0 1 1 23.253 0 11.648 11.648 0 0 1-23.253 0z m81.493-11.605a11.648 11.648 0 1 0 11.605 11.605 11.392 11.392 0 0 0-11.648-11.605zM442.197 147.115a34.901 34.901 0 0 0-34.901 34.944V356.864h209.45v-174.805a34.901 34.901 0 0 0-34.943-34.944v-46.251a23.296 23.296 0 0 0-46.507 0v46.25h-46.55v-46.25a23.253 23.253 0 1 0-46.549 0v46.25z m-81.45 209.749a23.253 23.253 0 0 1-23.296-23.296v-69.803a23.253 23.253 0 1 1 46.549 0v69.803a23.253 23.253 0 0 1-23.253 23.296zM640 333.568a23.253 23.253 0 1 0 46.55 0v-69.803a23.253 23.253 0 1 0-46.507 0v69.803z"  horiz-adv-x="1024" />

    
    <glyph glyph-name="icon_file-slide_colorful" unicode="&#59074;" d="M170.667 789.333A42.667 42.667 0 0 0 213.333 832h417.835a21.333 21.333 0 0 0 15.061-6.23l200.875-200.874a21.333 21.333 0 0 0 6.23-15.061v-631.168A42.667 42.667 0 0 0 810.666-64H213.333a42.667 42.667 0 0 0-42.666 42.667V789.333zM640 830.08a21.29 21.29 0 0 0 6.23-4.31l200.874-200.874a21.376 21.376 0 0 0 4.31-6.23H682.666A42.667 42.667 0 0 0 640 661.334V830.08zM698.155 484.864H325.803a11.648 11.648 0 0 1-11.648-11.648v-349.099c0-6.4 5.205-11.648 11.648-11.648h372.352c6.4 0 11.648 5.248 11.648 11.648V473.216a11.648 11.648 0 0 1-11.648 11.648z m-337.451-81.493h302.55V193.92H360.746V403.413z"  horiz-adv-x="1024" />

    
    <glyph glyph-name="icon_file-excel_colorful" unicode="&#59075;" d="M170.667 789.333A42.667 42.667 0 0 0 213.333 832h417.835a21.333 21.333 0 0 0 15.061-6.23l200.875-200.874a21.333 21.333 0 0 0 6.23-15.061v-631.168A42.667 42.667 0 0 0 810.666-64H213.333a42.667 42.667 0 0 0-42.666 42.667V789.333zM640 830.08a21.29 21.29 0 0 0 6.23-4.31l200.874-200.874a21.376 21.376 0 0 0 4.31-6.23H682.666A42.667 42.667 0 0 0 640 661.334V830.08zM364.672 473.173h46.55c2.09 0 4.01-0.981 5.205-2.688L505.94 340.78l90.027 129.706a6.272 6.272 0 0 0 5.163 2.731h46.592a6.272 6.272 0 0 0 5.12-9.941L536.235 299.69 662.1 122.41a6.272 6.272 0 0 0-5.12-9.942H610.39a6.272 6.272 0 0 0-5.162 2.731L505.94 258.688 407.168 115.2a6.272 6.272 0 0 0-5.205-2.73h-46.55a6.272 6.272 0 0 0-5.12 9.94l124.928 177.28-115.626 163.627a6.272 6.272 0 0 0 5.12 9.899z"  horiz-adv-x="1024" />

    
    <glyph glyph-name="icon_file-word_colorful" unicode="&#59076;" d="M170.667 789.333A42.667 42.667 0 0 0 213.333 832h417.835a21.333 21.333 0 0 0 15.061-6.23l200.875-200.874a21.333 21.333 0 0 0 6.23-15.061v-631.168A42.667 42.667 0 0 0 810.666-64H213.333a42.667 42.667 0 0 0-42.666 42.667V789.333zM640 830.08a21.29 21.29 0 0 0 6.23-4.31l200.874-200.874a21.376 21.376 0 0 0 4.31-6.23H682.666A42.667 42.667 0 0 0 640 661.334V830.08zM512.17 373.333l-62.89-232.789a6.485 6.485 0 0 0-6.272-4.779h-37.035a6.485 6.485 0 0 0-6.229 4.694l-85.333 301.226a6.485 6.485 0 0 0 6.229 8.278h37.163a6.445 6.445 0 0 0 6.272-4.864l60.714-234.838 63.062 234.88a6.485 6.485 0 0 0 6.229 4.822h36.224c2.944 0 5.504-2.006 6.272-4.822l62.635-234.794 60.672 234.752a6.485 6.485 0 0 0 6.272 4.864h37.162a6.485 6.485 0 0 0 6.23-8.278L624.213 140.46a6.485 6.485 0 0 0-6.186-4.694h-37.078a6.485 6.485 0 0 0-6.229 4.779l-62.55 232.832z"  horiz-adv-x="1024" />

    
    <glyph glyph-name="icon_file-csv_colorful" unicode="&#59078;" d="M170.667 762.24c0 26.752 21.077 48.427 47.061 48.427h425.13c6.23 0 12.203-2.56 16.598-7.04l186.88-190.635a24.576 24.576 0 0 0 6.997-17.195v-632.704c0-26.752-21.077-48.426-47.061-48.426H217.728c-25.984 0-47.061 21.674-47.061 48.426V762.24zM652.544 808.533a23.467 23.467 0 0 0 6.912-4.906l186.88-190.635a24.32 24.32 0 0 0 5.29-8.15H699.649c-26.027 0-47.104 21.675-47.104 48.427V808.533zM515.285 450.005c38.486 0 70.102-12.501 94.848-34.048 12.032-10.41 22.486-28.501 29.867-43.904 6.315-13.226-3.755-27.562-18.39-27.562h-8.191a23.04 23.04 0 0 0-19.03 10.538c-5.93 8.96-15.104 21.334-24.106 27.734-14.678 10.794-33.451 16.469-56.406 16.469-34.346 0-60.032-13.013-77.44-38.485-16.042-22.486-25.941-53.419-25.941-93.568 0-41.131 9.899-73.387 25.472-95.403 16.981-23.467 43.52-37.803 79.317-37.803 23.382 0 42.624 8.448 57.259 20.182 9.13 7.765 17.323 22.357 22.528 33.194a23.125 23.125 0 0 0 20.565 13.398h9.558c13.952 0 23.978-13.227 18.944-26.24-7.211-18.774-18.774-43.008-34.006-56.15-27.264-23.466-48.938-32.81-94.848-34.048-52.736-1.408-94.89 19.926-121.472 56.15-23.381 31.317-34.816 73.429-34.816 126.293 0 51.883 11.904 94.507 36.182 126.805 27.52 37.206 67.84 56.448 120.106 56.448z"  horiz-adv-x="1024" />

    
    <glyph glyph-name="icon_file-ps_colorful" unicode="&#59079;" d="M170.667 789.333A42.667 42.667 0 0 0 213.333 832h417.835a21.333 21.333 0 0 0 15.061-6.23l200.875-200.874a21.333 21.333 0 0 0 6.23-15.061v-631.168A42.667 42.667 0 0 0 810.666-64H213.333a42.667 42.667 0 0 0-42.666 42.667V789.333zM640 830.08a21.29 21.29 0 0 0 6.23-4.31l200.874-200.874a21.376 21.376 0 0 0 4.31-6.23H682.666A42.667 42.667 0 0 0 640 661.334V830.08zM358.485 115.115a9.515 9.515 0 0 0-9.301-9.686h-28.416a9.472 9.472 0 0 0-9.216 9.686V447.019c0 5.333 4.096 9.685 9.216 9.685h110.55c20.693 0 37.845-2.56 51.626-7.765 14.165-5.334 25.472-12.8 33.92-22.358a81.067 81.067 0 0 0 17.707-33.024c3.157-11.818 4.736-24.234 4.736-37.12 0-19.84-3.84-36.437-11.648-49.749-7.68-13.056-17.664-23.381-29.867-30.976a119.04 119.04 0 0 0-40.192-15.36 227.37 227.37 0 0 0-43.52-4.181h-55.595v-141.056z m56.448 186.538c12.971 0 24.534 0.854 34.731 2.56 9.43 1.622 17.323 4.566 23.68 8.79a39.68 39.68 0 0 1 13.952 16.426c3.413 7.168 5.12 16.939 5.12 29.227 0 17.536-5.035 30.293-15.275 38.87-10.666 9.002-28.757 13.653-53.802 13.653h-64.854v-109.526h56.448z m257.195-168.789c-15.701 0-27.435 3.115-35.2 9.13-7.595 5.889-12.63 13.227-15.787 29.014a8.875 8.875 0 0 1-8.618 7.168h-24.15a8.96 8.96 0 0 1-8.32-9.557c0.555-10.923 2.432-17.792 6.443-27.307a77.056 77.056 0 0 1 43.52-42.24c10.197-3.968 21.76-5.973 34.688-5.973 12.587 0 24.192 1.365 34.859 4.053 10.922 2.816 20.48 7.04 28.586 12.715a64 64 0 0 1 19.798 22.058c4.864 8.96 7.338 19.2 7.338 30.592 0 15.488-3.882 27.947-11.69 37.12a76.8 76.8 0 0 1-26.88 20.139 157.91 157.91 0 0 1-32.768 10.752 283.435 283.435 0 0 0-30.166 7.979c-7.68 2.688-17.066 7.168-22.101 13.184-5.035 5.973-5.035 10.922-5.035 17.493 0 7.893 2.688 13.91 8.363 18.688 6.059 5.12 15.445 7.765 28.16 7.765 13.056 0 23.595-2.816 31.787-8.32 7.424-4.992 12.501-15.36 14.25-28.757 0.128-0.981 0.427-1.92 0.854-2.773 1.408-3.03 4.437-5.12 7.893-5.12h23.637l1.067 0.085a9.045 9.045 0 0 1 7.68 10.155c-3.157 25.898-13.099 46.208-28.8 57.77-15.104 11.136-34.475 16.683-58.027 16.683-24.533 0-43.904-6.23-57.856-18.816-14.208-12.8-21.418-29.44-21.418-49.408 0-15.744 2.133-29.013 10.752-40.49 8.618-11.478 19.072-18.262 28.074-22.614 8.96-4.31 21.078-7.381 32.768-9.515 10.838-1.92 20.864-4.266 30.123-6.954 8.533-2.518 15.488-5.888 20.907-10.112 4.053-3.115 5.973-7.979 5.973-15.36a25.003 25.003 0 0 0-2.219-10.496 27.99 27.99 0 0 0-6.912-9.174 35.499 35.499 0 0 0-12.33-6.826 59.947 59.947 0 0 0-19.286-2.731z"  horiz-adv-x="1024" />

    
    <glyph glyph-name="icon_file-keynote_colorful" unicode="&#59080;" d="M170.667 789.333A42.667 42.667 0 0 0 213.333 832h418.475a21.333 21.333 0 0 0 14.293-5.461l200.15-180.182a21.333 21.333 0 0 0 7.082-15.872v-651.818A42.667 42.667 0 0 0 810.667-64H213.333a42.667 42.667 0 0 0-42.666 42.667V789.333zM853.333 618.667v11.818a21.333 21.333 0 0 1-7.082 15.872L646.1 826.54a21.29 21.29 0 0 1-6.101 3.84v-169.046a42.667 42.667 0 0 1 42.667-42.666h170.666zM364.459 442.581a35.072 35.072 0 0 0 34.816 30.635h225.45c17.664 0 32.598-13.141 34.816-30.635l15.36-120.618H349.1l15.36 120.618z m54.485-342.314c0 6.741 5.461 12.202 12.245 12.202h28.502a40.747 40.747 0 0 1 40.704 40.747v87.253h23.296v-87.253c0-22.485 18.218-40.747 40.704-40.747h28.501c6.741 0 12.245-5.461 12.245-12.202a11.05 11.05 0 0 0-11.093-11.094H429.995a11.05 11.05 0 0 0-11.094 11.094z m-72.405 186.752a11.648 11.648 0 1 1 0-23.254h331.008a11.648 11.648 0 0 1 0 23.254H346.539z"  horiz-adv-x="1024" />

    
    <glyph glyph-name="liucheng" unicode="&#58892;" d="M945.298 759.515h-65.243v-65.243h65.243a131.145 131.145 0 1 0 0-262.217v65.243l-98.157-98.157 98.157-98.158v65.243a196.681 196.681 0 0 1 0 393.363zM847.14 727.04a32.256 32.256 0 1 1 32.257 32.256 32.256 32.256 0 0 1-32.256-32.256zM0 204.873a196.535 196.535 0 0 1 196.315-196.315v-65.244l98.158 98.158-98.158 98.158v-65.244a131.145 131.145 0 1 0 0 262.217h65.244v65.244h-65.244A197.486 197.486 0 0 1 0 204.873zM229.303 368.86a32.256 32.256 0 1 1 32.256 32.255 32.256 32.256 0 0 1-32.256-32.256zM673.646 602.843H476.672a146.578 146.578 0 0 0 0 293.157h196.974a146.578 146.578 0 0 0 0-293.157zM477.33 828.782a79.36 79.36 0 1 1 0-158.647h196.974a79.36 79.36 0 0 1 0 158.647zM673.646 241.81H476.672a146.578 146.578 0 0 0 0 293.157h196.974a146.578 146.578 0 1 0 0-293.157zM477.33 467.75a79.36 79.36 0 1 1 0-158.647h196.974a79.36 79.36 0 0 1 0 158.647z m196.316-595.676H476.672a146.578 146.578 0 0 0 0 293.157h196.974a146.578 146.578 0 1 0 0-293.157zM477.33 98.011a79.36 79.36 0 1 1 0-158.646h196.974a79.36 79.36 0 0 1 0 158.646z"  horiz-adv-x="1141" />

    
    <glyph glyph-name="xiaji1" unicode="&#59067;" d="M295.9872 594.9952000000001v-147.968h280.0128V556.9536h384V256h-384v111.0016H295.9872v-304.9984h280.0128v111.0016h384V-128h-384v109.9776H216.0128V594.9952000000001H64V896h384v-301.0048H295.9872zM144.0256 815.9744000000001v-140.9536h223.9488V815.9744000000001H144.0256z m512-338.944v-141.056h223.9488V476.9792h-224z m0-384v-141.056h223.9488v141.0048h-224z"  horiz-adv-x="1024" />

    
    <glyph glyph-name="bumen" unicode="&#59068;" d="M0 896m170.666667 0l682.666666 0q170.666667 0 170.666667-170.666667l0-682.666666q0-170.666667-170.666667-170.666667l-682.666666 0q-170.666667 0-170.666667 170.666667l0 682.666666q0 170.666667 170.666667 170.666667ZM791.893333 228.124444H231.822222V563.2h518.257778c23.04 0 41.813333-18.773333 41.813333-41.813333v-293.262223zM581.688889 563.2c0 38.684444-31.288889 69.973333-69.973333 69.973333h-217.884445c-34.133333 0-62.008889-27.591111-62.008889-62.008889v-7.964444h349.866667zM301.795556 321.422222v209.92h420.124444v-209.92H301.795556zM791.893333 183.751111v271.928889c0 19.342222-15.644444 34.986667-34.986666 34.986667H266.808889c-19.342222 0-34.986667-15.928889-34.986667-34.986667v-271.928889c0-23.893333 19.342222-43.235556 43.235556-43.235555h473.6c23.893333 0 43.235556 19.342222 43.235555 43.235555z"  horiz-adv-x="1024" />

    
    <glyph glyph-name="icon-searchnormal" unicode="&#59043;" d="M799.68 156.65l169.579-169.6a21.333 21.333 0 0 0 0-30.165l-30.166-30.165a21.333 21.333 0 0 0-30.165 0l-169.6 169.6A424.896 424.896 0 0 0 469.312 0C233.664 0 42.645 191.019 42.645 426.667S233.664 853.333 469.312 853.333s426.667-191.018 426.667-426.666c0-102.464-36.118-196.48-96.299-270.016z m-330.368-71.317c188.523 0 341.333 152.811 341.333 341.334S657.835 768 469.312 768 127.979 615.19 127.979 426.667s152.81-341.334 341.333-341.334z"  horiz-adv-x="1024" />

    
    <glyph glyph-name="guanliandanxuan" unicode="&#59042;" d="M266.51647988 437.89930107h315.17206523v-66.09171709H266.51647988zM266.51647988 233.32970097999998h235.14263965v-66.0917171H266.51647988zM266.51647988 629.4303999h457.69637989v-66.09171709H266.51647988zM864.03955362 485.55727441l-2.24801719 1.34880996c-57.99885381 30.12343594-129.4858125 8.09286328-159.60924844-49.90598964L631.59453565 303.46784971c-30.12343594-57.99885381-7.64325967-129.03620977 49.90599052-159.60924844l2.24801719-1.34881085c4.94563886-2.6976208 9.89127773-4.49603526 14.8369166-6.29444882l25.62739981 49.0067833c-5.39524248 1.34881084-10.34088047 3.14722442-15.28651935 5.39524248l-2.24801718 1.34880996c-31.4722459 16.63533018-43.61154082 55.301233-26.97621152 86.32387529l70.13814873 133.53224503c16.63533018 31.4722459 55.301233 43.61154082 86.32387529 26.97621064l2.24801807-1.34881083c31.4722459-16.63533018 43.61154082-55.301233 26.97621064-86.3238753l-31.4722459-60.246871c13.93770937-17.08493379 24.27858984-36.86748838 30.57303867-57.9988538l49.00678331 93.51753222c30.12343594 57.09964658 8.09286328 128.58660615-49.45638691 159.15964482zM759.28193457 291.77815840000005c-4.94563886 2.6976208-9.44167412 4.49603526-14.8369166 6.29444883L718.81761817 249.51542754000002c4.94563886-1.34881084 10.34088047-3.14722442 15.28651933-5.3952416l2.24801719-1.34881084c31.4722459-16.63533018 43.61154082-55.301233 26.97621153-86.32387529l-70.13814874-133.53224502c-16.63533018-31.4722459-55.301233-43.61154082-86.32387529-26.97621065l-2.24801807 1.34881084c-31.4722459 16.63533018-43.61154082 55.301233-26.97621064 86.3238753l31.4722459 60.24687099c-13.93770937 17.08493379-24.27858984 36.86748838-30.57303868 57.99885381l-49.0067833-93.51753135c-30.12343594-57.99885381-8.09286328-129.4858125 49.90599053-159.60924931l2.24801719-1.34880997c57.99885381-30.12343594 129.03620977-7.64325967 159.60924843 49.90599053l70.13814874 133.53224414c30.12343594 57.99885381 8.09286328 129.4858125-49.90599054 159.60924844l-2.24801718 1.34881084zM193.23110674-7.208180269999957V773.75312901h636.63858018v-253.57638429c21.13136543-4.49603526 41.36352363-11.68969131 59.79726738-21.13136542v287.74625097l-0.44960362 4.94563887c-2.24801719 23.82898623-21.13136543 42.26273086-44.51074805 42.26273086H174.79736211l-4.94563887-0.44960362c-22.48017627-2.6976208-40.01471279-22.48017627-40.01471279-46.7587661v-805.23989913l0.44960361-4.94563798c2.24801719-23.37938261 21.58096904-41.81312724 44.51074805-41.81312725h369.57409102c-11.24008769 18.43374463-21.13136543 37.7666956-29.22422872 57.99885381H193.23110674z"  horiz-adv-x="1024" />

    
    <glyph glyph-name="pe_listquery" unicode="&#59040;" d="M213.504 576v-554.496h597.504V746.496H384v-170.496H213.504z m640 256c23.552 0 42.496-18.944 42.496-42.496v-810.496c0-23.552-18.944-42.496-42.496-42.496H170.496c-23.552 0-42.496 18.944-42.496 42.496V630.272l203.264 201.728h522.24z"  horiz-adv-x="1024" />

    
    <glyph glyph-name="file" unicode="&#59039;" d="M0 896m170.666667 0l682.666666 0q170.666667 0 170.666667-170.666667l0-682.666666q0-170.666667-170.666667-170.666667l-682.666666 0q-170.666667 0-170.666667 170.666667l0 682.666666q0 170.666667 170.666667 170.666667ZM472.192 662.741333L273.066667 463.658667v-282.581334c0-41.728 35.072-75.818667 77.952-75.818666h321.962666c42.88 0 77.952 34.133333 77.952 75.818666V586.922667c0 41.728-35.072 75.818667-77.994666 75.818666h-200.746667zM691.2 164.992H332.8v258.816h79.658667A99.541333 99.541333 0 0 1 512 523.392V603.008h179.2v-438.016z"  horiz-adv-x="1024" />

    
    <glyph glyph-name="shangchuan1" unicode="&#59038;" d="M948.069961 479.725557C898.889858 531.540309 833.462757 564.034305 762.766359 571.060034c-44.789022 118.998285-144.027444 190.133791-284.981132 190.133791-183.108062 2.19554-315.718696-137.001715-324.939966-310.888508-44.789022-14.490566-81.234991-42.593482-109.777015-82.552315-28.542024-39.519726-43.910806-87.382504-43.03259-136.123499 0-62.353345 21.077187-115.48542 63.670669-161.152659 43.03259-45.22813 93.090909-68.06175 151.931389-68.06175h92.212693c19.320755 0 32.054889 14.490566 32.054888 31.615781 0.439108 16.686106-12.734134 31.176672-29.859348 31.61578H216.076822c-40.83705 0-76.843911 16.686106-107.581475 49.180103-29.42024 31.61578-45.667238 73.331046-44.789022 116.363637 0 39.519726 12.295026 74.64837 36.885077 106.26415 25.02916 31.61578 54.888508 50.058319 90.017152 56.205832l28.981132 4.830189-2.19554 29.859348h-0.878216c0 153.687822 104.068611 269.173242 262.147513 269.173242 118.998285 0 195.842196-55.327616 230.97084-166.421955l7.025729-21.955403 22.83362-0.878217c60.157804-0.878216 111.972556-21.955403 155.883361-64.109777C939.726908 402.003431 961.682311 351.506003 961.682311 293.543739c3.073756-107.581475-75.087479-230.092624-181.790738-227.897084h-194.524871c-2.19554 0-4.391081 0-6.586621 0.439108-33.811321 2.634648-61.036021 28.981132-65.427101 62.792453h-0.878216v173.886793l70.25729-76.843911c8.782161-8.782161 22.833619-11.855918 32.054888-3.073757l7.903945 4.830189c8.782161 10.538593 8.782161 24.590051 0 33.372213L505.009927 389.708405v0.878216l-8.343054 7.903945c-9.221269 8.782161-23.711835 8.782161-32.933104 0l-7.903945-7.903945v-0.878216L339.905295 263.684391c-8.782161-8.782161-8.782161-22.833619 0-33.811321l8.343054-5.269296c8.782161-8.782161 21.955403-5.708405 32.933104 3.073756l68.06175 75.087479-0.878216-173.886793c0-3.951973 0-7.464837 0.439108-11.416809v-2.195541c0-59.718696 57.084048-112.411664 116.802744-112.411664H780.330681c160.274443 6.147513 243.704974 153.687822 243.704975 290.689537 0.878216 69.818182-26.346484 137.001715-75.965695 186.181818z"  horiz-adv-x="1024" />

    
    <glyph glyph-name="yihangyilie2-10" unicode="&#59028;" d="M538.624 657.8176m19.8144 0l50.3808 0q19.8144 0 19.8144-19.8144l0-507.9552q0-19.8144-19.8144-19.8144l-50.3808 0q-19.8144 0-19.8144 19.8144l0 507.9552q0 19.8144 19.8144 19.8144ZM684.4928 657.8176m19.8144 0l50.3808 0q19.8144 0 19.8144-19.8144l0-507.9552q0-19.8144-19.8144-19.8144l-50.3808 0q-19.8144 0-19.8144 19.8144l0 507.9552q0 19.8144 19.8144 19.8144ZM830.3616 657.8176m19.8144 0l50.3808 0q19.8144 0 19.8144-19.8144l0-507.9552q0-19.8144-19.8144-19.8144l-50.3808 0q-19.8144 0-19.8144 19.8144l0 507.9552q0 19.8144 19.8144 19.8144ZM101.7344 657.8176m19.8144 0l341.5552 0q19.8144 0 19.8144-19.8144l0-507.9552q0-19.8144-19.8144-19.8144l-341.5552 0q-19.8144 0-19.8144 19.8144l0 507.9552q0 19.8144 19.8144 19.8144Z"  horiz-adv-x="1024" />

    
    <glyph glyph-name="yihangyilie2-08" unicode="&#59029;" d="M101.7344 657.8176m19.8144 0l124.928 0q19.8144 0 19.8144-19.8144l0-507.9552q0-19.8144-19.8144-19.8144l-124.928 0q-19.8144 0-19.8144 19.8144l0 507.9552q0 19.8144 19.8144 19.8144ZM537.9072 657.8176m19.8144 0l342.9888 0q19.8144 0 19.8144-19.8144l0-507.9552q0-19.8144-19.8144-19.8144l-342.9888 0q-19.8144 0-19.8144 19.8144l0 507.9552q0 19.8144 19.8144 19.8144ZM319.7952 657.8176m19.8144 0l124.928 0q19.8144 0 19.8144-19.8144l0-507.9552q0-19.8144-19.8144-19.8144l-124.928 0q-19.8144 0-19.8144 19.8144l0 507.9552q0 19.8144 19.8144 19.8144Z"  horiz-adv-x="1024" />

    
    <glyph glyph-name="yihangyilie2-02" unicode="&#59030;" d="M328.8064 657.8176m19.8144 0l552.0896 0q19.8144 0 19.8144-19.8144l0-507.9552q0-19.8144-19.8144-19.8144l-552.0896 0q-19.8144 0-19.8144 19.8144l0 507.9552q0 19.8144 19.8144 19.8144ZM101.7344 657.8176m19.8144 0l131.8912 0q19.8144 0 19.8144-19.8144l0-507.9552q0-19.8144-19.8144-19.8144l-131.8912 0q-19.8144 0-19.8144 19.8144l0 507.9552q0 19.8144 19.8144 19.8144Z"  horiz-adv-x="1024" />

    
    <glyph glyph-name="yihangyilie2-06" unicode="&#59031;" d="M101.7344 657.8176m19.8144 0l124.928 0q19.8144 0 19.8144-19.8144l0-507.9552q0-19.8144-19.8144-19.8144l-124.928 0q-19.8144 0-19.8144 19.8144l0 507.9552q0 19.8144 19.8144 19.8144ZM319.7952 657.8176m19.8144 0l342.9888 0q19.8144 0 19.8144-19.8144l0-507.9552q0-19.8144-19.8144-19.8144l-342.9888 0q-19.8144 0-19.8144 19.8144l0 507.9552q0 19.8144 19.8144 19.8144ZM756.0192 657.8176m19.8144 0l124.928 0q19.8144 0 19.8144-19.8144l0-507.9552q0-19.8144-19.8144-19.8144l-124.928 0q-19.8144 0-19.8144 19.8144l0 507.9552q0 19.8144 19.8144 19.8144Z"  horiz-adv-x="1024" />

    
    <glyph glyph-name="yihangyilie2-05" unicode="&#59032;" d="M101.7344 657.8176m19.8144 0l124.928 0q19.8144 0 19.8144-19.8144l0-507.9552q0-19.8144-19.8144-19.8144l-124.928 0q-19.8144 0-19.8144 19.8144l0 507.9552q0 19.8144 19.8144 19.8144ZM319.7952 657.8176m19.8144 0l124.928 0q19.8144 0 19.8144-19.8144l0-507.9552q0-19.8144-19.8144-19.8144l-124.928 0q-19.8144 0-19.8144 19.8144l0 507.9552q0 19.8144 19.8144 19.8144ZM537.9072 657.8176m19.8144 0l124.928 0q19.8144 0 19.8144-19.8144l0-507.9552q0-19.8144-19.8144-19.8144l-124.928 0q-19.8144 0-19.8144 19.8144l0 507.9552q0 19.8144 19.8144 19.8144ZM756.0192 657.8176m19.8144 0l124.928 0q19.8144 0 19.8144-19.8144l0-507.9552q0-19.8144-19.8144-19.8144l-124.928 0q-19.8144 0-19.8144 19.8144l0 507.9552q0 19.8144 19.8144 19.8144Z"  horiz-adv-x="1024" />

    
    <glyph glyph-name="yihangyilie2-03" unicode="&#59033;" d="M101.7344 657.8176m19.8144 0l552.0896 0q19.8144 0 19.8144-19.8144l0-507.9552q0-19.8144-19.8144-19.8144l-552.0896 0q-19.8144 0-19.8144 19.8144l0 507.9552q0 19.8144 19.8144 19.8144ZM749.0048 657.8176m19.8144 0l131.8912 0q19.8144 0 19.8144-19.8144l0-507.9552q0-19.8144-19.8144-19.8144l-131.8912 0q-19.8144 0-19.8144 19.8144l0 507.9552q0 19.8144 19.8144 19.8144Z"  horiz-adv-x="1024" />

    
    <glyph glyph-name="yihangyilie2-07" unicode="&#59034;" d="M537.9072 657.8176m19.8144 0l124.928 0q19.8144 0 19.8144-19.8144l0-507.9552q0-19.8144-19.8144-19.8144l-124.928 0q-19.8144 0-19.8144 19.8144l0 507.9552q0 19.8144 19.8144 19.8144ZM101.7344 657.8176m19.8144 0l342.9888 0q19.8144 0 19.8144-19.8144l0-507.9552q0-19.8144-19.8144-19.8144l-342.9888 0q-19.8144 0-19.8144 19.8144l0 507.9552q0 19.8144 19.8144 19.8144ZM756.0192 657.8176m19.8144 0l124.928 0q19.8144 0 19.8144-19.8144l0-507.9552q0-19.8144-19.8144-19.8144l-124.928 0q-19.8144 0-19.8144 19.8144l0 507.9552q0 19.8144 19.8144 19.8144Z"  horiz-adv-x="1024" />

    
    <glyph glyph-name="yihangyilie2-04" unicode="&#59035;" d="M101.7344 657.8176m19.8144 0l197.4784 0q19.8144 0 19.8144-19.8144l0-507.9552q0-19.8144-19.8144-19.8144l-197.4784 0q-19.8144 0-19.8144 19.8144l0 507.9552q0 19.8144 19.8144 19.8144ZM394.3424 657.8176m19.8144 0l197.4784 0q19.8144 0 19.8144-19.8144l0-507.9552q0-19.8144-19.8144-19.8144l-197.4784 0q-19.8144 0-19.8144 19.8144l0 507.9552q0 19.8144 19.8144 19.8144ZM687.0016 657.8176m19.8144 0l193.8944 0q19.8144 0 19.8144-19.8144l0-507.9552q0-19.8144-19.8144-19.8144l-193.8944 0q-19.8144 0-19.8144 19.8144l0 507.9552q0 19.8144 19.8144 19.8144Z"  horiz-adv-x="1024" />

    
    <glyph glyph-name="yihangyilie1" unicode="&#59036;" d="M463.872 110.08H123.392c-10.752 0-19.968 8.704-19.968 19.968V637.952c0 10.752 8.704 19.968 19.968 19.968h340.48c10.752 0 19.968-8.704 19.968-19.968v-507.904c0-10.752-9.216-19.968-19.968-19.968zM900.608 110.08h-340.48c-10.752 0-19.968 8.704-19.968 19.968V637.952c0 10.752 8.704 19.968 19.968 19.968h340.48c10.752 0 19.968-8.704 19.968-19.968v-507.904c0-10.752-8.704-19.968-19.968-19.968z"  horiz-adv-x="1024" />

    
    <glyph glyph-name="yihangyilie2-09" unicode="&#59037;" d="M101.7344 657.8176m19.8144 0l50.3808 0q19.8144 0 19.8144-19.8144l0-507.9552q0-19.8144-19.8144-19.8144l-50.3808 0q-19.8144 0-19.8144 19.8144l0 507.9552q0 19.8144 19.8144 19.8144ZM247.552 657.8176m19.8144 0l50.3808 0q19.8144 0 19.8144-19.8144l0-507.9552q0-19.8144-19.8144-19.8144l-50.3808 0q-19.8144 0-19.8144 19.8144l0 507.9552q0 19.8144 19.8144 19.8144ZM393.4208 657.8176m19.8144 0l50.3808 0q19.8144 0 19.8144-19.8144l0-507.9552q0-19.8144-19.8144-19.8144l-50.3808 0q-19.8144 0-19.8144 19.8144l0 507.9552q0 19.8144 19.8144 19.8144ZM539.2896 657.8176m19.8144 0l341.5552 0q19.8144 0 19.8144-19.8144l0-507.9552q0-19.8144-19.8144-19.8144l-341.5552 0q-19.8144 0-19.8144 19.8144l0 507.9552q0 19.8144 19.8144 19.8144Z"  horiz-adv-x="1024" />

    
    <glyph glyph-name="yihangduolie" unicode="&#59024;" d="M239.616 896h153.088c28.16 0 50.688-24.064 50.688-53.248V-71.68c0-29.184-22.528-53.248-50.688-53.248H51.712c-28.16 0-50.688 24.064-50.688 53.248V842.752C0.512 871.936 23.04 896 51.712 896h187.904zM72.704 827.392v-886.272h303.104V827.392H72.704zM819.712 896H972.8c28.16 0 50.688-24.064 50.688-53.248V-71.68c0-29.184-22.528-53.248-50.688-53.248h-340.992c-28.16 0-50.688 24.064-50.688 53.248V842.752c0 29.184 22.528 53.248 50.688 53.248h187.904z m-166.4-68.608v-886.272h303.104V827.392h-303.104z"  horiz-adv-x="1024" />

    
    <glyph glyph-name="baobiao" unicode="&#59023;" d="M931.2 896H92.8C60.8 896 28.8 864 28.8 832v-896c0-38.4 32-64 64-64h838.4c38.4 0 64 32 64 64V832c0 32-32 64-64 64z m0-960H92.8V768h838.4v-832zM156.8 64h640v-64H156.8zM156.8 192h448v-64H156.8zM867.2 704H156.8v-448h710.4V704zM534.4 396.8c-12.8-12.8-32-12.8-44.8 0L380.8 499.2 272 396.8c-6.4-12.8-32-12.8-38.4 0-12.8 12.8-12.8 32 0 38.4l128 128 6.4 6.4h6.4c-6.4 6.4 6.4 6.4 6.4 6.4 6.4 0 12.8 0 19.2-6.4l128-128c19.2-12.8 19.2-32 6.4-44.8z m268.8 211.2v-128c0-19.2-12.8-32-32-32s-32 12.8-32 32v57.6L598.4 396.8c-12.8-12.8-32-12.8-44.8 0-12.8 12.8-12.8 32 0 38.4L688 576H668.8c-44.8 0-64 12.8-64 32 6.4 19.2 19.2 32 38.4 32h140.8l6.4-6.4c12.8-19.2 12.8-19.2 12.8-25.6z"  horiz-adv-x="1024" />

    
    <glyph glyph-name="table" unicode="&#58985;" d="M986.670097 896H37.329438A37.375983 37.375983 0 0 1 0 858.763653v-949.526841a37.236347 37.236347 0 0 1 37.329438-37.236347h949.340659a37.375983 37.375983 0 0 1 37.329438 37.236347V858.763653a37.236347 37.236347 0 0 1-37.329438 37.236347zM380.043464 291.049002v279.272601h256.74461v-279.272601H380.043464z m256.74461-67.863242v-283.461689H380.043464v283.461689h256.74461zM72.285058 570.368148h240.779527v-279.319146H72.285058v279.272601z m629.992441 0h258.699519v-279.319146h-258.699519v279.272601z m258.699519 256.465338v-187.205733H72.285058V826.786941h888.69196zM72.285058 223.139215h240.779527v-283.461689H72.285058v283.461689z m629.992441-283.461689v283.461689h258.699519v-283.461689h-258.699519z"  horiz-adv-x="1024" />

    
    <glyph glyph-name="Linechart" unicode="&#59016;" d="M970.333091 681.937455l-427.054546-401.128728-215.412363 215.505455L25.925818 194.56l56.738909-49.384727 246.178909 244.037818 214.434909-214.574546L1024 623.243636z"  horiz-adv-x="1024" />

    
    <glyph glyph-name="Piechart" unicode="&#59017;" d="M512-126.836373A511.530593 511.530593 0 0 0 342.436219 867.366854l40.354598 14.056619 161.744204-460.79644 474.434152-115.431835-10.05374-41.425134a511.530593 511.530593 0 0 0-497.008523-390.606437zM342.436219 792.429251c-67.769658-26.297979-130.465901-75.263418-171.425584-123.949587-40.959683-48.686169-86.713512-132.513885-96.953433-218.529221-10.239921-86.06188-2.699616-146.430868 20.898748-212.571448 23.598363-66.187125 67.024937-129.860815 119.015807-177.010996 52.037416-47.150181 114.268208-85.503339 194.279227-104.726464a440.037327 440.037327 0 0 1 219.692847 3.444338c65.023498 17.594046 124.88049 48.220718 187.437097 104.633373 70.283093 64.790772 108.07771 141.683269 122.553235 191.30034l-439.851146 103.516291-155.646798 433.846829z m494.308908-103.935197c62.835878-64.185686 117.386729-172.775392 121.203427-289.60358l64.697682-14.89443c0 72.796528-15.778787 146.803229-44.590201 210.756189A511.530593 511.530593 0 0 1 469.364693 894.223374l24.249995-66.978392c26.484159 0.744722 58.414094-3.444337 84.525892-7.633395 111.987498-16.849324 195.815214-66.885301 258.651092-131.117533z"  horiz-adv-x="1024" />

    
    <glyph glyph-name="Funneldiagram" unicode="&#59018;" d="M617.099636-108.590545c1.768727 4.514909 404.200727 947.898182 404.200728 947.898181A39.005091 39.005091 0 0 1 1024 849.594182 45.335273 45.335273 0 0 1 978.664727 896H46.545455C16.290909 896 0 875.52 0 849.594182c0-5.399273 1.070545-5.399273 2.699636-10.286546l407.738182-947.898181c7.168-19.409455 20.154182-19.409455 33.745455-19.409455h142.429091c16.430545 0 24.017455 8.657455 30.487272 19.409455z m-148.293818 50.455272l-98.583273 232.727273h287.976728l-100.305455-232.727273h-89.088z m350.161455 603.089455H212.107636L94.114909 827.252364h841.309091l-116.456727-282.298182z m-31.464728-73.821091l-97.326545-223.232H339.921455l-96.814546 223.232h544.395636z"  horiz-adv-x="1024" />

    
    <glyph glyph-name="iframe" unicode="&#59019;" d="M0.930909 802.955636L0.093091-35.188364a46.545455 46.545455 0 0 1 46.545454-46.545454H977.454545a46.545455 46.545455 0 0 1 46.545455 46.545454V802.909091a46.545455 46.545455 0 0 1-46.545455 46.545454H47.476364a46.545455 46.545455 0 0 1-46.545455-46.498909z m443.159273-22.248727v-150.202182H70.283636V780.706909H444.043636zM70.283636 283.368727v282.530909H444.043636v-282.530909H70.283636z m221.090909-70.795636v-225.512727H70.283636v225.512727h221.090909z m68.887273-225.512727v225.512727h595.781818v-225.512727H360.261818z m595.781818 296.308363h-444.416V780.706909h444.416v-497.338182z"  horiz-adv-x="1024" />

    
    <glyph glyph-name="Rotationchart" unicode="&#59020;" d="M785.082182 755.758545c26.298182 0 47.848727-20.852364 50.594909-47.522909l0.279273-5.818181V616.727273h137.169454c26.298182 0 47.802182-20.852364 50.594909-47.522909l0.279273-5.818182v-355.700364c0-27.461818-19.781818-50.129455-45.335273-53.061818l-5.585454-0.279273H835.956364v-86.900363c0-27.461818-19.735273-50.129455-45.335273-53.061819l-5.585455-0.279272H237.707636c-26.298182 0-47.848727 20.805818-50.594909 47.522909l-0.279272 5.818182-0.046546 86.900363H50.874182C22.667636 154.344727 0 178.269091 0 207.685818V563.386182C0 592.802909 22.667636 616.727273 50.874182 616.727273h135.866182V702.370909c0 27.508364 19.828364 50.176 45.381818 53.061818l5.585454 0.325818h547.374546z m-16.896-68.608H258.885818v-607.185454h509.300364V687.150545z m-305.850182-405.876363l58.600727-42.216727-82.292363-91.089455H325.818182l136.517818 133.306182zM698.181818 337.454545v-189.486545h-187.438545L698.181818 337.454545z m258.048 210.664728l-120.273454 0.046545v-327.959273h120.273454V548.119273zM186.740364 548.165818H67.770182v-327.959273h118.970182V548.165818zM424.820364 616.727273v-96.209455H329.448727V616.727273h95.418182z"  horiz-adv-x="1024" />

    
    <glyph glyph-name="Barchart" unicode="&#59021;" d="M246.877091 616.727273H42.449455C15.592727 616.727273 0 594.245818 0 569.064727V-84.712727c0-26.484364 16.663273-43.287273 42.449455-43.287273h204.427636c33.605818 0 41.425455 20.619636 41.425454 43.287273V569.064727c0 19.642182-9.402182 47.662545-41.425454 47.662546z m365.847273-232.727273H408.296727c-26.903273 0-42.496-22.481455-42.496-47.662545v-421.050182c0-26.484364 16.663273-43.287273 42.496-43.287273h204.427637c33.559273 0 41.425455 20.619636 41.425454 43.287273v421.050182c0 19.642182-9.402182 47.662545-41.425454 47.662545zM982.574545 896H778.24c-26.903273 0-42.496-22.481455-42.496-47.662545V-84.712727c0-26.484364 16.663273-43.287273 42.496-43.287273h204.381091c33.605818 0 41.425455 20.619636 41.425454 43.287273V848.337455C1024 867.979636 1014.597818 896 982.574545 896zM222.673455-64.512H62.696727V553.984h159.976728v-618.496z m369.012363 0H433.570909v379.066182h158.114909v-379.066182z m369.291637 0h-157.509819V827.252364h157.509819v-891.810909z"  horiz-adv-x="1024" />

    
    <glyph glyph-name="Indicatorcard" unicode="&#59022;" d="M972.986182 896c26.391273 0 47.941818-20.898909 50.734545-47.662545L1024 842.472727v-916.945454c0-27.554909-19.828364-50.269091-45.428364-53.201455l-5.585454-0.325818H51.013818c-26.391273 0-47.941818 20.898909-50.734545 47.662545L0-74.472727V842.472727C0 870.027636 19.828364 892.741818 45.428364 895.674182L51.013818 896h921.972364z m-16.942546-68.747636H72.285091V-61.905455H956.043636V827.252364zM791.272727 384v-238.312727h-75.403636l-0.046546 100.957091-198.516363-187.997091-4.096 4.282182-6.376727-6.376728-132.701091 132.654546-135.912728-129.396364L186.181818 114.455273 371.665455 290.909091l3.630545-3.863273 3.863273 3.863273 133.12-133.12 159.232 150.807273H558.545455V384h232.727272zM349.090909 482.676364v-75.403637H186.181818V482.676364h162.909091zM558.545455 663.272727v-75.403636H186.181818V663.272727h372.363637z"  horiz-adv-x="1024" />

    
    <glyph glyph-name="supplier_web_normal" unicode="&#59295;" d="M610.709333 12.8c150.933333 40.042667 265.386667 169.685333 282.944 328.533333h-147.669333c-7.978667-125.397333-53.077333-234.901333-135.253333-328.533333zM660.266667 341.333333H364.928c9.386667-116.629333 58.453333-228.864 147.2-336.682666C601.472 112.469333 650.837333 224.704 660.266667 341.333333zM609.301333 755.562667c82.389333-94.357333 127.893333-203.989333 136.490667-328.896h147.861333c-17.621333 159.36-132.714667 289.28-284.352 328.896zM660.096 426.666667c-9.877333 115.968-59.178667 227.925333-147.946667 335.872-88.234667-107.946667-137.237333-219.904-147.050666-335.872h294.997333z m-243.2-414.805334c-83.370667 97.92-129.237333 207.744-137.6 329.472H130.346667c17.706667-160.106667 133.824-290.56 286.549333-329.472z m1.28 744.597334C264.832 717.952 148.096 587.221333 130.346667 426.666667h149.184c8.96 121.216 55.189333 231.146667 138.666666 329.792zM512-85.333333C252.8-85.333333 42.666667 124.8 42.666667 384S252.8 853.333333 512 853.333333s469.333333-210.133333 469.333333-469.333333-210.133333-469.333333-469.333333-469.333333z"  horiz-adv-x="1024" />

    
    <glyph glyph-name="suo" unicode="&#59015;" d="M789.70520849 506.23079122h-91.01215898V589.5367292000001c0 85.78092832-71.43723193 155.58691641-159.35565234 155.5869164-87.80592041 0-159.29940234-69.74973809-159.29940235-155.5869164v-83.30593799H289.02583584V589.5367292000001c0 65.13725566 26.04365244 126.44952539 73.5184749 172.68685224A251.21155781 251.21155781 0 0 0 539.33739717 833.9983125c66.71224951 0 129.54326396-25.42490508 176.84933731-71.77473106a240.13034912 240.13034912 0 0 0 73.51847401-172.68685224v-83.30593799z m59.17477852-16.64993672H229.8510582a54.16854698 54.16854698 0 0 1-54.61854521-53.38105049v-448.8733169c0-29.30614013 24.58115771-53.32479961 54.56229521-53.32479961H848.93623613a54.16854698 54.16854698 0 0 1 54.61854522 53.32479961v448.8733169a54.16854698 54.16854698 0 0 1-54.61854521 53.38105049z m-275.39896728-282.2614418v-55.51854171a33.86237344 33.86237344 0 0 0-34.14362256-33.35612519 33.86237344 33.86237344 0 0 0-34.14362168 33.35612519v55.51854171a55.12479346 55.12479346 0 0 0-22.72491475 44.437333 56.24978906 56.24978906 0 0 0 56.86853643 55.5747917 56.24978906 56.24978906 0 0 0 56.92478642-55.5747917 55.12479346 55.12479346 0 0 0-22.78116387-44.437333z"  horiz-adv-x="1024" />

    
    <glyph glyph-name="tab_new" unicode="&#59014;" d="M954.36981-9.681V538.438H394.98681l-120.32 190.93H72.70581v-739.096h881.664zM48.59481 802.909h260.469l120.32-193.164h543.139a48.873 48.873 0 0 0 48.593-49.152v-592.896a48.873 48.873 0 0 0-48.64-49.152H48.64181A48.873 48.873 0 0 0 0.00081-32.303v786.06A48.873 48.873 0 0 0 48.64081 802.91z"  horiz-adv-x="1024" />

    
    <glyph glyph-name="shouji" unicode="&#59013;" d="M741.41474609-64.67724609000004H253.47851562c-37.14697266 0-67.37431641 30.22646484-67.3743164 67.38310546V762.40078125c0 37.14697266 30.22734375 67.37783203 67.3743164 67.37783203h487.9397461c37.15664063 0 67.3875-30.22558594 67.3875-67.37783203v-759.69931641c-0.00439453-37.15136719-30.23525391-67.37871094-67.39189453-67.37871093zM253.47851562 767.99414063c-3.08671875 0-5.59335937-2.51103516-5.59335937-5.59863282v-759.6984375a5.59863281 5.59863281 0 0 1 5.59335937-5.59335937h487.9397461c3.08232423 0 5.60214843 2.50664063 5.60214843 5.59335937V762.40078125c0 3.08232423-2.52421875 5.59335937-5.60214843 5.59335937H253.47851562zM457.54560547 63.991113280000036a39.89707031 39.89707031 0 1 1 79.79853515 0 39.90585937 39.90585937 0 0 1-79.79853515 0z m304.10507812 71.75302735H233.24785156a30.88828125 30.88828125 0 1 0 0 61.78007812h528.40283203a30.89267578 30.89267578 0 1 0 0-61.78007812z"  horiz-adv-x="1024" />

    
    <glyph glyph-name="lianjie" unicode="&#59012;" d="M221.882182 17.687273h273.035636c123.764364 0 221.882182 99.653818 221.882182 225.28v17.361454c0 125.672727-98.117818 225.28-221.882182 225.28h-21.317818v-64.093091h21.317818c88.994909 0 155.927273-83.176727 155.927273-161.186909v-17.314909c0-88.529455-79.127273-161.326545-155.927273-161.326545H221.882182c-73.169455 0-159.045818 68.701091-159.045818 161.326545v17.314909c0 73.681455 54.365091 161.186909 159.045818 161.186909V485.655273C98.117818 481.28 0 381.626182 0 260.375273v-17.361455c0-125.672727 98.117818-225.28 221.882182-225.28zM547.700364 709.818182h273.035636C944.500364 709.818182 1042.618182 610.164364 1042.618182 484.538182v-17.361455c0-125.672727-98.117818-225.28-221.882182-225.28h-21.317818v64.093091h21.317818c88.994909 0 155.927273 83.223273 155.927273 161.186909V484.538182c0 88.529455-79.127273 161.28-155.927273 161.28h-273.035636c-73.169455 0-159.045818-68.701091-159.045819-161.28v-17.361455c0-73.634909 54.365091-161.186909 159.045819-161.186909v-64.093091C423.936 246.225455 325.818182 345.832727 325.818182 467.176727V484.538182C325.818182 610.164364 423.936 709.818182 547.700364 709.818182z"  horiz-adv-x="1070" />

    
    <glyph glyph-name="jine" unicode="&#59011;" d="M511.348364-56.832c241.757091 0 446.650182 199.307636 446.650181 440.832S766.370909 824.459636 512 824.459636c-254.370909 0-442.647273-198.981818-442.647273-440.459636 0-241.477818 200.285091-440.832 441.995637-440.832z m0-69.911273C229.003636-126.743273 0 102.260364 0 384.651636S228.957091 896 511.348364 896c282.437818 0 511.394909-228.957091 511.394909-511.348364 0-282.437818-229.003636-511.394909-511.394909-511.394909zM676.584727 604.392727h-44.264727a8.378182 8.378182 0 0 1-7.819636-5.026909l-107.752728-202.798545-106.728727 202.798545c-1.675636 2.792727-4.468364 5.026909-7.819636 5.026909l-50.269091 0.558546a8.052364 8.052364 0 0 1-3.909818-1.117091c-4.468364-2.234182-5.585455-7.819636-3.351273-11.682909l122.321454-222.626909H389.585455a8.797091 8.797091 0 0 1-8.936728-8.890182v-28.997818c0-4.980364 3.909818-8.890182 8.936728-8.890182h95.092363v-51.712H389.585455a8.797091 8.797091 0 0 1-8.936728-8.936727v-28.904728c0-5.026909 3.909818-8.936727 8.936728-8.936727h95.092363v-74.007273c0-4.980364 3.863273-8.890182 8.843637-8.890182h47.150545a8.797091 8.797091 0 0 1 8.936727 8.890182v74.007273h94.859637a8.797091 8.797091 0 0 1 8.890181 8.936727v28.904728a8.797091 8.797091 0 0 1-8.890181 8.936727h-94.859637v51.712h94.859637a8.797091 8.797091 0 0 1 8.890181 8.890182v28.997818a8.797091 8.797091 0 0 1-8.890181 8.890182h-78.149819l118.597819 222.626909a10.333091 10.333091 0 0 1 1.117091 3.863272 9.634909 9.634909 0 0 1-9.448728 8.378182z"  horiz-adv-x="1024" />

    
    <glyph glyph-name="xialaduoxuan" unicode="&#59010;" d="M455.121455 58.181818h512v-75.403636h-512zM455.121455 430.545455h512v-75.403637h-512zM46.545455 802.909091h930.90909v-75.403636H46.545455zM165.981091 384l162.909091 156.299636L372.363636 497.570909 165.981091 290.909091l-3.537455 3.537454L46.545455 414.626909l45.381818 45.521455zM165.981091 41.518545L328.890182 197.818182l43.473454-42.775273-206.382545-206.661818-3.537455 3.584L46.545455 72.145455l45.381818 45.521454z"  horiz-adv-x="1024" />

    
    <glyph glyph-name="people1" unicode="&#59009;" d="M947.001045-128c28.063082 172.75317-129.378721 349.229469-310.415852 349.229469H432.13889c-174.614734 0-334.895423-132.636459-313.67359-349.229469H46.608917v52.868427c0 178.617098 143.666227 327.635322 312.742808 362.260419a308.321593 308.321593 0 0 0-132.729537 253.63814 308.600827 308.600827 0 1 0 484.565196-253.545062c169.07658-34.43894 312.556651-183.596782 312.556651-362.353497v-52.868427h-76.789529zM299.735127 540.906604c0-140.082716 112.857338-234.091715 235.534427-234.091715s240.048721 109.273826 240.048721 234.091715c0 124.817888-92.519747 240.979503-240.09526 240.979502-138.081534 0-235.487888-100.943326-235.487888-240.979502z"  horiz-adv-x="1024" />

    
    <glyph glyph-name="pic2" unicode="&#59008;" d="M817.943273 895.394909h153.320727c28.206545 0 50.874182-23.924364 50.874182-53.341091v-914.245818c0-29.416727-22.667636-53.341091-50.874182-53.341091H51.525818c-28.253091 0-50.920727 23.924364-50.920727 53.341091V842.053818C0.605091 871.470545 23.272727 895.394909 51.479273 895.394909h766.464zM72.750545 826.786909v-886.458182h881.617455V826.786909H72.704zM208.477091 684.450909H369.105455v-160.628364H208.523636V684.450909zM392.378182 62.696727H202.333091l229.934545 222.580364 98.722909-70.516364-138.565818-152.064z m437.201454 316.416v-316.416h-315.810909"  horiz-adv-x="1024" />

    
    <glyph glyph-name="fenzubiaoti" unicode="&#59007;" d="M116.177455 778.658909v-312.180364h85.224727V778.705455h116.177454V849.454545H0v-70.795636h116.177455z m296.168727 8.052364V849.454545H335.266909v-62.743272h77.079273z m-77.079273-42.914909v-277.317819h77.079273V743.796364H335.266909z m214.714182 0V826.926545H472.901818V743.796364H426.216727v-50.967273h46.685091V529.221818c0-13.963636 2.327273-25.181091 7.074909-33.792 4.654545-8.564364 11.124364-15.173818 19.269818-19.828363 8.145455-4.654545 17.547636-7.773091 28.206546-9.402182 10.705455-1.582545 22.016-2.373818 33.978182-2.373818 7.586909 0 15.36 0.139636 23.272727 0.512 8.005818 0.372364 15.266909 1.070545 21.783273 2.14109V525.498182c-3.630545-0.744727-7.447273-1.256727-11.403637-1.629091a139.776 139.776 0 0 0-12.520727-0.512c-13.032727 0-21.690182 2.141091-26.065454 6.423273-4.328727 4.282182-6.516364 12.893091-6.516364 25.739636v137.309091h56.459636V743.796364h-56.459636zM624.686545 849.454545v-382.976h77.079273V849.454545h-77.079273z m305.943273-214.574545h-125.44c0.372364 5.399273 1.536 11.450182 3.537455 18.245818 2.001455 6.795636 5.445818 13.265455 10.333091 19.316364s11.403636 11.170909 19.549091 15.313454c8.145455 4.096 18.338909 6.144 30.673454 6.144 18.804364 0 32.814545-4.980364 42.077091-15.034181 9.216-10.007273 15.639273-24.669091 19.269818-43.93891z m-125.44-48.267636h202.519273a193.489455 193.489455 0 0 1-5.445818 61.719272 150.155636 150.155636 0 0 1-24.669091 52.549819 124.229818 124.229818 0 0 1-43.752727 36.770909c-17.687273 9.076364-38.493091 13.637818-62.37091 13.637818-21.410909 0-40.820364-3.723636-58.368-11.264a138.053818 138.053818 0 0 1-45.335272-30.813091c-12.706909-13.032727-22.481455-28.532364-29.323637-46.405818a159.976727 159.976727 0 0 1-10.333091-57.949091c0-21.410909 3.351273-41.099636 10.053819-58.973091 6.702545-17.873455 16.197818-33.28 28.485818-46.126546 12.334545-12.893091 27.322182-22.807273 45.056-29.78909 17.733818-6.981818 37.701818-10.472727 59.717818-10.472728 31.883636 0 59.019636 7.168 81.454545 21.457455 22.434909 14.336 39.098182 38.074182 49.943273 71.354182h-67.863273c-2.513455-8.564364-9.402182-16.756364-20.619636-24.389819a69.352727 69.352727 0 0 0-40.168727-11.543272c-21.736727 0-38.4 5.538909-49.943273 16.616727-11.636364 11.077818-17.92 28.951273-19.037091 53.620364zM0 337.454545h1005.847273v-69.678545H0zM0 151.272727h1005.847273v-69.678545H0zM0-34.909091h558.545455v-69.678545H0z"  horiz-adv-x="1024" />

    
    <glyph glyph-name="dizhi" unicode="&#59006;" d="M549.608727 17.361455a24.576 24.576 0 0 0-33.978182 0c-221.882182 210.245818-332.8 381.067636-332.8 512.465454 0 202.007273 156.578909 365.754182 349.789091 365.754182 193.163636 0 349.789091-163.746909 349.789091-365.800727 0-131.351273-110.917818-302.173091-332.8-512.465455z m257.722182 512.465454c0 146.059636-110.126545 285.416727-274.711273 285.416727-164.631273 0-272.337455-135.959273-272.337454-285.463272 0-97.419636 105.053091-250.647273 273.547636-419.374546 168.448 168.727273 273.501091 333.125818 273.501091 419.374546zM532.619636 384.605091c82.757818 0 149.876364 68.654545 149.876364 153.320727S615.377455 691.2 532.619636 691.2c-82.850909 0-149.922909-68.608-149.922909-153.274182 0-84.712727 67.118545-153.320727 149.876364-153.320727z m0 60.229818a93.090909 93.090909 0 1 0 0 186.181818 93.090909 93.090909 0 0 0 0-186.181818z m340.805819-175.383273l85.364363-327.400727H120.32l75.357091 327.400727-75.403636 25.693091-80.523637-318.091636c-15.220364-61.44 3.584-75.682909 6.609455-80.709818 3.025455-5.026909 11.264-21.224727 73.960727-21.224728l798.301091-1.489454c69.818182 0 86.016 2.792727 102.213818 26.856727 16.197818 23.970909 9.402182 55.761455 0 99.746909l-75.589818 293.608728-71.819636-24.389819z"  horiz-adv-x="1070" />

    
    <glyph glyph-name="fujian2" unicode="&#59005;" d="M618.496 633.390545l-326.097455-324.235636a136.564364 136.564364 0 0 1-40.494545-97.28c0-38.027636 15.453091-72.424727 40.494545-97.28a138.984727 138.984727 0 0 1 195.677091 0l391.354182 389.12a228.212364 228.212364 0 0 1 0 324.189091 231.470545 231.470545 0 0 1-326.097454 0l-410.996364-408.529455-0.884364-0.837818a318.370909 318.370909 0 0 1 0-452.189091 322.978909 322.978909 0 0 1 454.842182 0l0.837818 0.884364h0.046546l280.482909 278.807273-47.197091 49.058909-283.182545-278.667637c-120.087273-111.383273-266.24-88.901818-355.653819 0-43.101091 42.821818-76.008727 107.147636-76.008727 175.988364 0 68.887273 32.674909 131.630545 76.008727 174.173091l411.834182 408.576c54.178909 53.666909 173.986909 52.736 221.277091 0 24.529455-27.368727 47.429818-65.629091 47.429818-109.381818 0-43.752727-21.550545-81.640727-47.476363-107.380364l-391.307637-389.12c-20.154182-20.014545-40.773818-20.107636-66.094545-15.36-25.320727 4.654545-47.941818 34.210909-48.174546 52.782546 0 23.784727 5.771636 35.234909 22.946909 51.991272l326.144 324.282182-49.710545 50.408727z"  horiz-adv-x="1024" />

    
    <glyph glyph-name="duoxuan" unicode="&#59003;" d="M817.943273 896h153.320727c28.206545 0 50.874182-23.924364 50.874182-53.341091v-914.245818c0-29.416727-22.667636-53.341091-50.874182-53.341091H51.525818c-28.253091 0-50.920727 23.924364-50.920727 53.341091V842.658909C0.605091 872.075636 23.272727 896 51.479273 896h766.464zM72.750545 827.392v-886.458182h881.617455V827.392H72.704zM423.656727 235.240727l363.613091 353.745455 47.941818-52.037818-411.508363-411.508364-7.074909 7.028364-231.051637 239.383272L239.429818 425.890909z"  horiz-adv-x="1024" />

    
    <glyph glyph-name="xiala1" unicode="&#59002;" d="M512 188.974545l453.818182 434.688 21.178182-22.481454a46.545455 46.545455 0 0 0-1.861819-65.722182l-443.578181-419.84a46.545455 46.545455 0 0 0-63.953455 0L33.373091 536.064a46.545455 46.545455 0 0 0-2.466909 65.070545l20.386909 22.528L512 188.928z"  horiz-adv-x="1024" />

    
    <glyph glyph-name="riqiqujian" unicode="&#59001;" d="M724.340364 732.858182h-424.494546V653.498182H210.059636V732.858182H72.704v-744.261818h881.664V732.858182h-143.266909V653.498182h-86.760727V732.858182z m86.528 67.025454h160.395636c28.206545 0 51.106909-21.829818 51.106909-48.779636v-780.613818c0-26.996364-22.900364-48.826182-51.106909-48.826182H51.525818c-28.253091 0-51.106909 21.876364-51.106909 48.826182V751.104c0 26.996364 22.853818 48.779636 51.060364 48.779636h160.581818V848.709818h88.715636v-48.826182h424.866909V848.709818h85.178182v-48.826182zM46.545455 570.181818h930.90909v-67.630545H46.545455V570.181818zM770.327273 295.563636c-8.517818-12.427636-17.454545-24.669091-26.763637-36.631272-9.309091-12.055273-19.781818-22.714182-31.418181-32.023273-11.636364-9.309091-24.669091-16.849455-39.005091-22.714182a127.534545 127.534545 0 0 0-48.267637-8.704c-23.272727 0-45.381818 3.863273-66.327272 11.636364-20.945455 7.773091-41.518545 16.663273-61.672728 26.763636a1007.243636 1007.243636 0 0 1-60.509091 25.6A176.733091 176.733091 0 0 1 372.363636 271.127273c-25.6 0-45.940364-8.378182-61.114181-24.994909A217.6 217.6 0 0 1 274.618182 190.836364l-41.890909 41.890909a278.807273 278.807273 0 0 0 22.109091 36.631272c8.517818 12.055273 18.804364 22.714182 30.859636 32.023273 12.008727 9.309091 25.6 16.849455 40.727273 22.714182a143.499636 143.499636 0 0 0 51.758545 8.704c21.736727 0 44.032-3.863273 66.932364-11.636364 22.853818-7.773091 45.149091-16.290909 66.885818-25.6 22.481455-10.100364 43.426909-18.990545 62.836364-26.763636 19.409455-7.773091 36.445091-11.636364 51.2-11.636364 23.272727 0 42.821818 8.378182 58.786909 24.994909 15.872 16.709818 30.440727 35.141818 43.613091 55.296l41.890909-41.890909z"  horiz-adv-x="1024" />

    
    <glyph glyph-name="btn" unicode="&#59000;" d="M817.943273 712.285091h153.320727c28.206545 0 50.874182-15.266909 50.874182-34.071273v-583.540363c0-18.757818-22.667636-34.024727-50.874182-34.024728H51.525818c-28.253091 0-50.920727 15.266909-50.920727 34.024728V678.213818c0 18.804364 22.667636 34.071273 50.874182 34.071273h766.464zM72.750545 638.510545v-512h881.617455v512H72.704zM249.576727 438.132364v-51.665455H307.2c10.286545 0 18.618182 1.861818 25.088 5.771636 6.423273 3.863273 9.588364 10.705455 9.588364 20.619637 0 10.891636-4.189091 18.152727-12.706909 21.597091a90.065455 90.065455 0 0 1-28.020364 3.723636H249.576727z m0-90.530909v-62.510546H307.2c10.286545 0 18.292364 1.396364 24.017455 4.142546 10.426182 5.12 15.592727 14.848 15.592727 29.27709 0 12.194909-5.026909 20.573091-15.080727 25.134546-5.632 2.56-13.498182 3.863273-23.738182 3.956364H249.576727z m67.118546 131.258181c28.765091-0.418909 49.105455-8.750545 61.114182-24.994909 7.214545-9.960727 10.798545-21.876364 10.798545-35.793454 0-14.289455-3.584-25.786182-10.798545-34.490182a55.854545 55.854545 0 0 0-17.82691-13.358546c12.008727-4.375273 21.038545-11.264 27.136-20.712727 6.050909-9.448727 9.122909-20.898909 9.12291-34.350545 0-13.917091-3.490909-26.344727-10.472728-37.376a64.791273 64.791273 0 0 0-43.380363-30.254546A164.305455 164.305455 0 0 0 309.061818 244.363636H202.798545V478.859636h113.896728z m291.002182 0v-41.518545h-70.144V244.363636h-49.338182V437.341091H417.745455v41.518545h189.905454z m27.834181 0h51.386182l93.370182-163.700363V478.859636h45.661091V244.363636h-48.965818l-95.790546 166.586182V244.363636h-45.614545V478.859636z"  horiz-adv-x="1024" />

    
    <glyph glyph-name="pingfen" unicode="&#58999;" d="M1020.311273 485.515636c-8.843636 25.134545-31.650909 43.566545-59.019637 47.569455l-266.426181 39.005091-115.805091 236.637091A74.286545 74.286545 0 0 1 512.128 849.454545c-28.672 0-54.737455-15.918545-66.932364-40.727272L329.390545 572.043636l-266.472727-39.005091A73.309091 73.309091 0 0 1 3.991273 485.515636a68.701091 68.701091 0 0 1 17.175272-71.959272l195.258182-191.813819-45.288727-266.146909a69.585455 69.585455 0 0 1 30.347636-69.352727 76.706909 76.706909 0 0 1 78.382546-4.142545L512.128 5.166545l232.308364-123.066181a76.613818 76.613818 0 0 1 78.382545 4.142545c23.133091 15.685818 34.909091 42.542545 30.301091 69.352727l-45.335273 266.146909 195.351273 191.813819a68.887273 68.887273 0 0 1 17.221818 71.959272z m-265.355637-214.295272a69.073455 69.073455 0 0 1-20.061091-60.928l45.288728-266.100364-232.308364 122.973091a76.520727 76.520727 0 0 1-71.540364 0l-232.261818-122.973091 45.288728 266.100364a68.980364 68.980364 0 0 1-20.014546 60.928L73.995636 463.034182l266.426182 39.051636a73.681455 73.681455 0 0 1 55.808 39.936L512.128 778.565818l115.851636-236.590545c10.472727-21.410909 31.418182-36.305455 55.714909-39.936l266.519273-39.051637-195.258182-191.767272z"  horiz-adv-x="1024" />

    
    <glyph glyph-name="wenben" unicode="&#58998;" d="M511.348364-56.832c241.757091 0 446.650182 199.307636 446.650181 440.832S766.370909 824.459636 512 824.459636c-254.370909 0-442.647273-198.981818-442.647273-440.459636 0-241.477818 200.285091-440.832 441.995637-440.832z m0-69.911273C229.003636-126.743273 0 102.260364 0 384.651636S228.957091 896 511.348364 896c282.437818 0 511.394909-228.957091 511.394909-511.348364 0-282.437818-229.003636-511.394909-511.394909-511.394909zM473.367273 524.101818h75.869091v-418.397091h-75.869091zM473.367273 686.824727h75.869091v-76.660363h-75.869091z"  horiz-adv-x="1024" />

    
    <glyph glyph-name="riqi1" unicode="&#58994;" d="M724.340364 732.858182h-424.494546V653.498182H210.059636V732.858182H72.704v-744.261818h881.664V732.858182h-143.266909V653.498182h-86.760727V732.858182z m86.528 67.025454h160.395636c28.206545 0 51.106909-21.829818 51.106909-48.779636v-780.613818c0-26.996364-22.900364-48.826182-51.106909-48.826182H51.525818c-28.253091 0-51.106909 21.876364-51.106909 48.826182V751.104c0 26.996364 22.853818 48.779636 51.060364 48.779636h160.581818V848.709818h88.715636v-48.826182h424.866909V848.709818h85.178182v-48.826182zM204.8 287.650909h153.274182v-146.432H204.8zM434.734545 507.159273h153.274182v-146.385455H434.734545zM434.734545 287.650909h153.274182v-146.432H434.734545zM664.669091 287.650909h153.274182v-146.432H664.669091zM664.669091 507.159273h153.274182v-146.385455H664.669091z"  horiz-adv-x="1024" />

    
    <glyph glyph-name="Group11" unicode="&#58997;" d="M34.13333375-6.720000000000027h628.10666625v-86.45333344H34.08000031zM34.13333375 437.33333344h628.10666625v-86.4H34.08000031zM34.13333375 864h1066.66666594v-86.4h-1066.66666594zM858.13333344-6.720000000000027h238.39999969v-86.45333344h-238.39999969zM858.13333344 437.33333344h238.39999969v-86.4h-238.39999969z"  horiz-adv-x="1194" />

    
    <glyph glyph-name="Group12" unicode="&#58996;" d="M224.814545 663.272727h109.056l225.373091-578.048h-84.805818l-58.554182 154.670546H141.917091l-60.043636-154.670546L0 84.712727 224.814545 663.272727z m-63.115636-359.144727h236.357818l-118.132363 303.010909-118.225455-303.010909zM974.056727 198.004364c0-11.077818 1.256727-19.083636 4.375273-24.017455 3.118545-4.887273 8.750545-7.354182 17.454545-7.354182h9.402182c3.723636 0 8.098909 0.605091 13.079273 1.861818v-62.836363a105.332364 105.332364 0 0 0-12.474182-3.723637c-4.980364-1.210182-10.612364-2.420364-15.592727-3.67709-5.632-1.210182-10.612364-1.861818-16.290909-2.46691-5.585455-0.605091-9.960727-0.605091-13.684364-0.60509-18.757818 0-34.350545 3.723636-46.824727 11.077818-12.520727 7.400727-20.619636 20.340364-24.389818 38.818909-18.106182-17.221818-40.587636-30.208-66.792728-38.167273a261.678545 261.678545 0 0 0-76.8-11.729454c-18.711273 0-36.817455 2.466909-53.713454 7.400727a142.196364 142.196364 0 0 0-45.568 22.155636 105.797818 105.797818 0 0 0-31.185455 36.957091 115.712 115.712 0 0 0-11.869091 52.317091c0 25.274182 4.328727 46.219636 13.73091 61.579636 9.309091 16.011636 21.876364 28.392727 36.817454 36.957091 14.987636 9.262545 32.488727 15.406545 51.2 19.083637 18.757818 3.723636 38.074182 6.795636 57.437091 9.262545 16.849455 3.072 32.488727 5.538909 47.476364 6.749091 14.987636 1.256727 28.066909 3.723636 39.936 6.795636 11.264 3.072 20.619636 8.005818 27.461818 14.754909 6.888727 6.795636 10.007273 16.663273 10.007273 29.60291a45.195636 45.195636 0 0 1-8.750546 28.299636 61.44 61.44 0 0 1-20.573091 17.221818 94.952727 94.952727 0 0 1-27.461818 8.052364 240.267636 240.267636 0 0 1-28.765091 1.861818c-25.6 0-46.824727-5.585455-63.674182-16.058182-16.849455-10.472727-26.205091-27.089455-28.113454-49.245091H618.123636c1.861818 26.484364 8.145455 48.034909 19.362909 65.861818 11.264 17.221818 25.6 31.418182 43.101091 41.890909a180.875636 180.875636 0 0 0 58.647273 22.155637 347.694545 347.694545 0 0 0 67.490909 6.190545c20.573091 0 40.587636-1.861818 59.950546-6.190545 19.968-4.282182 37.422545-11.077818 53.061818-20.293818 15.592727-9.262545 28.718545-21.550545 38.074182-36.957091 9.355636-14.801455 14.382545-33.233455 14.382545-54.784v-208.802909h1.861818z m-91.182545 113.943272c-13.730909-9.216-31.185455-14.149818-51.2-16.011636-20.573091-1.861818-40.587636-4.933818-61.160727-8.005818-9.402182-1.861818-18.757818-3.723636-28.113455-6.749091a98.676364 98.676364 0 0 1-24.343273-11.729455 50.548364 50.548364 0 0 1-16.244363-19.688727c-3.723636-8.005818-6.237091-17.873455-6.237091-29.556364 0-9.867636 3.118545-18.478545 8.750545-25.274181 5.585455-6.749091 13.079273-12.288 21.224727-16.011637 8.098909-3.723636 17.454545-6.749091 27.461819-8.005818 10.007273-1.861818 18.711273-2.466909 26.856727-2.466909 10.007273 0 21.224727 1.256727 33.047273 3.723636 11.915636 2.466909 23.133091 7.400727 33.140363 13.498182 10.612364 6.190545 19.362909 14.196364 26.205091 24.064 6.888727 9.867636 10.612364 21.550545 10.612364 36.305455v65.908363z"  horiz-adv-x="1024" />

    
    <glyph glyph-name="biaoqianye" unicode="&#58995;" d="M954.368931-9.681455V538.437818H394.985658L274.665658 729.367273H72.704931v-739.095273h881.664zM48.594385 802.909091H309.062749l120.32-193.163636h543.138909a48.872727 48.872727 0 0 0 48.593455-49.152v-592.896A48.872727 48.872727 0 0 0 972.475113-81.454545H48.640931A48.872727 48.872727 0 0 0 0.000931-32.302545V753.757091A48.872727 48.872727 0 0 0 48.640931 802.909091z"  horiz-adv-x="1024" />

    
    <glyph glyph-name="fuwenbenkuang1" unicode="&#58991;" d="M59.578182 692.130909V781.265455c0 28.206545 23.877818 50.874182 53.294545 50.874181h798.533818c29.416727 0 53.341091-22.667636 53.341091-50.874181V-23.272727c0-28.206545-23.924364-50.874182-53.341091-50.874182H112.872727c-29.416727 0-53.341091 22.667636-53.341091 50.874182V692.130909z m68.561454-694.178909h770.792728V764.369455H128.093091v-766.417455zM0 709.818182V896h186.181818v-186.181818zM0-128v186.181818h186.181818v-186.181818zM837.818182 709.818182V896h186.181818v-186.181818zM837.818182-128v186.181818h186.181818v-186.181818zM331.031273 585.448727h376.645818v-70.376727h-147.921455v-341.550545h-81.454545V515.072H331.031273z"  horiz-adv-x="1024" />

    
    <glyph glyph-name="diannao" unicode="&#58972;" d="M881.84 767.6643750000001H141.7278125c-34.08 0-61.68-27.553125-61.68-61.68v-493.344375c0-34.08 27.6-61.68 61.68-61.68h308.4v-92.544375H295.904375a30.864375 30.864375 0 0 1-30.81562502-30.815625v-30.864375h493.43906252V27.600000000000023a30.864375 30.864375 0 0 1-30.8634375 30.815625H573.4878125v92.544375h308.3521875c34.08 0 61.68 27.6 61.68 61.68V705.984375c0 34.08-27.6 61.68-61.68 61.68zM480.944375 212.64a30.864375 30.864375 0 1 0 61.7278125-0.0478125 30.864375 30.864375 0 0 0-61.7278125 0z m-339.21562499 61.68V705.984375h740.15906249v-431.664375H141.68z"  horiz-adv-x="1024" />

    
    <glyph glyph-name="carousel2" unicode="&#58975;" d="M419.328 336.384H134.656c-24.064 0-44.032-19.456-44.032-44.032v-284.672c0-24.064 19.456-44.032 44.032-44.032h284.672c24.064 0 43.52 19.456 43.52 44.032v284.672c0 24.576-19.456 44.032-43.52 44.032z m-44.032-284.672H178.176v197.12h197.12v-197.12zM879.104 336.384h-284.672c-24.064 0-44.032-19.456-44.032-44.032v-284.672c0-24.064 19.456-43.52 44.032-43.52h284.672c24.064 0 43.52 19.456 43.52 44.032v284.672c0.512 24.064-19.456 43.52-43.52 43.52z m-44.032-284.672h-197.12v197.12h197.12v-197.12zM969.216 641.024L768 842.24c-16.896 16.896-45.056 16.896-61.952 0L504.32 641.024c-16.896-16.896-16.896-45.056 0-61.952l201.216-201.216c16.896-16.896 45.056-16.896 61.952 0l201.216 201.216c17.408 17.408 17.408 45.056 0.512 61.952zM736.768 471.04l-139.264 139.264 139.264 139.264 139.264-139.264L736.768 471.04zM419.328 796.16H134.656c-24.064 0-44.032-19.456-44.032-44.032v-284.672c0-24.064 19.456-44.032 44.032-44.032h284.672c24.064 0 44.032 19.456 44.032 44.032V752.64c-0.512 24.064-19.968 43.52-44.032 43.52z m-44.032-284.672H178.176V708.608h197.12v-197.12z"  horiz-adv-x="1024" />

    
    <glyph glyph-name="js" unicode="&#58968;" d="M692.736 832h-522.24c-23.552 0-42.496-18.944-42.496-42.496v-810.496c0-23.552 18.944-42.496 42.496-42.496h164.352v84.992H211.456V749.056h443.392l159.744-155.648v-156.672l81.408-1.024v194.56l-203.264 201.728zM481.28 116.736c0-17.408-1.536-33.28-4.096-48.64-3.072-15.36-9.216-27.648-18.432-37.376-7.68-8.704-17.408-15.36-28.16-19.968-11.264-4.608-24.064-7.168-39.424-7.68v-68.608c26.624 0.512 52.736 5.12 77.824 13.312 25.088 8.192 46.08 23.552 62.976 46.08 14.336 18.944 23.552 40.448 27.648 65.536 4.096 25.088 6.144 56.832 6.144 96.256v414.72H481.28v-453.632zM790.528 168.96l-23.552 7.168c-26.112 7.68-43.52 15.36-51.712 23.04-8.192 7.68-12.8 16.896-12.8 27.648 0 13.824 5.632 25.088 16.896 33.28 11.264 8.192 28.16 12.288 50.176 12.288 14.336 0 28.672-1.536 43.008-5.12 14.336-3.584 30.208-9.216 46.592-17.408l17.92 60.416c-17.408 8.192-35.84 13.824-56.32 17.92-19.968 3.584-39.936 5.632-59.392 5.632-20.48 0-39.424-2.56-56.32-8.192-16.896-5.12-31.744-12.8-43.52-22.528-12.288-9.728-21.504-20.992-28.16-34.816-6.656-13.312-10.24-28.672-10.24-45.056 0-28.16 8.192-50.688 24.064-67.584 15.872-17.408 40.448-31.232 73.728-42.496l24.576-7.168c23.552-7.68 40.96-14.848 52.224-21.504 11.264-6.656 16.896-17.92 16.896-33.28 0-16.896-6.144-29.184-18.944-36.864-12.8-8.192-30.208-12.288-52.736-12.288-18.432 0-36.352 2.56-53.76 7.168-17.408 4.608-33.792 10.752-48.64 18.432l-18.944-62.976c16.896-8.192 35.84-14.336 56.832-18.944 21.504-4.608 44.032-6.656 69.12-6.656 45.568 0 81.408 10.752 108.032 32.768 26.112 21.504 39.424 50.176 39.424 86.016 0 29.184-8.704 52.224-26.624 69.12-17.92 17.408-44.032 31.232-77.824 41.984z"  horiz-adv-x="1024" />

    
    <glyph glyph-name="carousel1" unicode="&#58974;" d="M463.0625 292.68749963000005v-284.62499972a43.78124981 43.78124981 0 0 0-43.78124981-43.82812491H134.60937537a43.78124981 43.78124981 0 0 0-43.78125064 43.82812491v284.62499972c0 24.18750027 19.59375037 43.78124981 43.78125064 43.78125064h284.67187482c24.14062519 0 43.78124981-19.59375037 43.78124981-43.78125064z m459.84375001 0v-284.62499972a43.78124981 43.78124981 0 0 0-43.82812492-43.82812491H594.49999963a43.78124981 43.78124981 0 0 0-43.8281249 43.82812491v284.62499972c0 24.18750027 19.64062463 43.78124981 43.8281249 43.78125064h284.62500055c24.18750027 0 43.78124981-19.59375037 43.78124981-43.78125064z m-744.51562483-43.78124982v-197.06250008h197.06250009v197.06250008H178.39062519z m656.90625009 0h-197.06250009v-197.06250008h197.06250009v197.06250008z m87.60937472 218.953125a43.78124981 43.78124981 0 0 0-43.8281249-43.78124981h-284.67187482a43.78124981 43.78124981 0 0 0-43.78125064 43.78124981V752.53124963c0 24.18750027 19.59375037 43.78124981 43.78125064 43.78125064h284.67187482c24.18750027 0 43.78124981-19.59375037 43.8281249-43.78125064V467.90624991z m-459.84374999 284.67187482v-284.67187482a43.78124981 43.78124981 0 0 0-43.78124981-43.78124981H134.60937537a43.78124981 43.78124981 0 0 0-43.78125064 43.78124981V752.53124963c0 24.18750027 19.59375037 43.78124981 43.78125064 43.78125064h284.67187482c24.14062519 0 43.78124981-19.59375037 43.78124981-43.78125064z m372.23437527-43.78124981h-197.06250009v-197.10937519h197.06250009V708.74999981z m-459.84375 0H178.39062519v-197.10937519h197.06250008V708.74999981z"  horiz-adv-x="1024" />

    
    <glyph glyph-name="table_new" unicode="&#58966;" d="M63.9996875 17.700000000000045H652.85v-81.0496875H63.95z m0 416.2996875H652.85v-81H63.95z m0 400.0003125H1064v-81H63.9996875z m772.5-816.3h223.5v-81.0496875h-223.5z m0 416.2996875h223.5v-81h-223.5z"  horiz-adv-x="1194" />

    
    <glyph glyph-name="fujian1" unicode="&#58898;" d="M662.95454521 546.20454521l-57.35454521 56.98636348-286.60909131-284.97272695a120.02727305 120.02727305 0 0 1-35.59090869-85.5c0-33.42272695 13.58181826-63.65454521 35.59090869-85.5a122.15454521 122.15454521 0 0 1 171.98181826 0l343.96363652 342a200.57727305 200.57727305 0 0 1 1e-8 284.93181826 203.44090869 203.44090869 0 0 1-286.60909043 0l-361.22727305-359.05909131-0.77727305-0.73636348a279.81818174 279.81818174 0 0 1 0-397.43181826 283.86818174 283.86818174 0 0 1 399.76363652 0l0.73636348 0.77727305h0.04090957l246.51818174 245.04545479-57.35454521 56.9454539-246.51818174-245.0454539-0.73636436-0.69545479a202.62272695 202.62272695 0 0 0-285.13636348 0 199.75909131 199.75909131 0 0 0 0.81818174 284.11363653l-0.04090869 0.04090868 361.22727217 359.1a122.23636347 122.23636347 0 0 0 171.98181826 0 120.51818174 120.51818174 0 0 0 0-171l-343.96363564-341.95909042a40.62272695 40.62272695 0 0 0-69.17727305 28.51363652c0 11.12727305 4.5 21.19090869 11.82272695 28.47272695l286.65 285.01363653v-0.04090958z"  horiz-adv-x="1024" />

    
    <glyph glyph-name="people" unicode="&#58909;" d="M876.99254434-65.67289042000004c17.21411982 144.99114083-115.34687227 302.65776211-271.25528116 302.65776122H417.56771182c-135.34141992 0-265.77620244-117.10508379-265.77620333-302.65776123H62.12270674v48.65748926c0 164.37235958 132.19299404 301.59465732 287.81518359 333.40602393a283.76720771 283.76720771 0 0 0-122.17527598 233.47417236 284.05342793 284.05342793 0 1 0 446.01335684-233.35150606c155.62218867-31.72958964 287.69251729-168.99277676 287.69251728-333.52869023v-48.65748925h-84.47594414zM511.85693076 754.30802783a204.44323271 204.44323271 0 1 1 0-408.8864663 204.44323271 204.44323271 0 0 1 0 408.8864663z"  horiz-adv-x="1024" />

    
    <glyph glyph-name="manage11" unicode="&#58938;" d="M900.80081826 37.99090868999997V519.73636348H409.15536347L303.40536348 719.86363652H125.90081826v-681.87272783h774.9zM104.70990869 784.5H333.63718174l105.75-202.09090869h477.36818173a42.95454521 42.95454521 0 0 0 42.70909132-43.2v-521.1A42.95454521 42.95454521 0 0 0 916.71445479-25.090908689999992H104.75081826A42.95454521 42.95454521 0 0 0 62.00081826 18.109091310000053V741.3A42.95454521 42.95454521 0 0 0 104.75081826 784.5zM512.00081826 752.18181826h327.27272695v-64.63636347h-327.27272695V752.18181826z"  horiz-adv-x="1024" />

    
    <glyph glyph-name="table_new1" unicode="&#58927;" d="M77.38181844 64.32000000000005h513.90545437v-70.73454562H77.33818156zM77.38181844 427.63636406h513.90545437v-70.69090969H77.33818156zM77.38181844 776.72727281h872.72727281v-70.69090875h-872.72727281zM751.56363594 64.32000000000005h195.05454562v-70.73454562h-195.05454562zM751.56363594 427.63636406h195.05454562v-70.69090969h-195.05454562z"  horiz-adv-x="1024" />

    
    <glyph glyph-name="carousel_new" unicode="&#58981;" d="M459.8 286.58823544999996v-303.61764727a46.69411729 46.69411729 0 0 0-46.74705908-46.69411728H109.43529453a46.69411729 46.69411729 0 0 0-46.69411817 46.69411728V286.58823544999996c0 25.83529453 20.91176455 46.74705908 46.69411817 46.74705908h303.61764639c25.83529453 0 46.74705908-20.91176455 46.74705908-46.74705908z m490.44705908 0v-303.61764727a46.69411729 46.69411729 0 0 0-46.69411816-46.69411728h-303.61764639a46.69411729 46.69411729 0 0 0-46.74705908 46.69411728V286.58823544999996c0 25.83529453 20.96470547 46.74705908 46.74705908 46.74705908h303.61764639c25.78235273 0 46.69411729-20.91176455 46.69411816-46.74705908z m-805.55294179-38.48823545v-225.84705908H374.88235273v225.84705908H144.69411729z m721.42941181 0h-225.05294092v-225.84705908h225.05294092v225.84705908z m84.1764709 225.37058818a46.69411729 46.69411729 0 0 0-46.74705908-46.74705907h-303.61764639a46.69411729 46.69411729 0 0 0-46.74705908 46.74705907V777.08823545c0 25.78235273 20.91176455 46.69411729 46.74705908 46.74705908h303.61764639c25.83529453 0 46.69411729-20.96470547 46.74705908-46.74705908V473.47058818zM459.8 777.08823545V473.47058818a46.69411729 46.69411729 0 0 0-46.74705908-46.74705908H109.43529453a46.69411729 46.69411729 0 0 0-46.69411817 46.74705908V777.08823545c0 25.78235273 20.91176455 46.69411729 46.69411817 46.69411728h303.61764639c25.83529453 0 46.74705908-20.91176455 46.74705908-46.69411728z m403.2-40.55294092l-224.36470547-0.74117724 1.58823457-224.68235274 224.36470635 0.79411816-1.58823545 224.62941182zM374.88235273 739.76470547H144.69411729v-235.3235291H374.88235273V739.76470547z"  horiz-adv-x="1024" />

    
    <glyph glyph-name="delete_new" unicode="&#58984;" d="M235.63571416 555.45v-532.41428584h552.53571417V555.45h66.66428583v-535.75714248a64.28571416 64.28571416 0 0 0-64.28571416-64.28571504H233.45a64.28571416 64.28571416 0 0 0-64.28571416 64.28571504V555.45H235.57142832z m225.9-85.75714248V126.85714248H394.87142832V469.69285752h66.66428584z m164.63571416 0V126.85714248H564.07142832V469.69285752h62.16428584zM640.57142832 812.59285752v-85.75714336h257.14285752V657.21428584H126.28571416V726.83571416h257.14285752V812.59285752h257.14285665z"  horiz-adv-x="1024" />

    
    <glyph glyph-name="play_new" unicode="&#58986;" d="M960.9999998 384A448.49999971 448.49999971 0 0 1 512.5000001 832.49999971C264.5 832.49999971 64.00000039 632.0000001000001 64.00000039 384c0-248.0000001 200.49999961-448.49999971 448.49999971-448.49999971A448.49999971 448.49999971 0 0 1 960.9999998 384z m-447.9999996-366.8500002A366.99999961 366.99999961 0 0 0 146.15 384 366.99999961 366.99999961 0 0 0 513.00000019 750.8500002000001 366.99999961 366.99999961 0 0 0 879.85000039 384a366.99999961 366.99999961 0 0 0-366.85000019-366.8500002zM710.10000019 379.1000001l-298.35 179.4999999v-358.9999998z"  horiz-adv-x="1024" />

    
    <glyph glyph-name="pc_new" unicode="&#58987;" d="M960.35937481 805.12500019H157.29687518C120.31249963 805.12500019 90.35937463 775.40624982 90.35937463 738.56250037v-531.93750074c0-36.75000009 30.00000009-66.56249982 66.93750056-66.56249982h334.68749944v-99.74999954h-167.34374972a33.37500009 33.37500009 0 0 1-33.46875028-33.2812499v-33.28125074H826.53124963v33.28125074a33.37500009 33.37500009 0 0 1-33.46874944 33.2812499h-167.34375056v99.79687464h334.5937501c37.03124982 0 66.93749973 29.76562463 66.93750054 66.51562472V738.60937463c0 36.75000009-29.953125 66.51562473-66.93750054 66.51562556zM542.14062537 235.40624981999997a33.65624981 33.65624981 0 0 0 33.51562454 0A33.28124991 33.28124991 0 0 0 558.87500009 173.29687463000005a33.28124991 33.28124991 0 1 0-16.73437472 62.15625028z m-369.23437519 37.73437537V724.21875037h773.01562445v-451.07812518H172.95312527z"  horiz-adv-x="1137" />

    
    <glyph glyph-name="setting_new" unicode="&#58988;" d="M506.2000001 744.79999981l-311.0000001-179.55000001v-359.15000009l311.0000001-179.49999991 311.0000001 179.49999991V565.2499998000001l-311.0000001 179.49999991z m20.6499999 83.50000048l352.2999999-203.45000009c12.80000039-7.35000029 20.7-20.99999971 20.7-35.7500004v-406.85000009a41.29999981 41.29999981 0 0 0-20.7-35.79999961l-352.2999999-203.4a41.29999981 41.29999981 0 0 0-41.3499999 0l-352.29999991 203.4a41.29999981 41.29999981 0 0 0-20.69999999 35.79999961V589.09999981c0 14.74999981 7.89999961 28.4000001 20.7 35.75000039L485.5000001 828.30000029a41.29999981 41.29999981 0 0 0 41.3499999 0z m-20.6499999-545.95000019a103.29999961 103.29999961 0 1 1 0 206.6000001 103.29999961 103.29999961 0 0 1 0-206.6000001z m0-82.64999971a185.9500002 185.9500002 0 1 0 0 371.89999951 185.9500002 185.9500002 0 0 0 0-371.89999951z"  horiz-adv-x="1024" />

    
    <glyph glyph-name="phone_new" unicode="&#58989;" d="M265.05234776-65.59502021000003a67.85660742 67.85660742 0 0 0-67.85660743 67.6766162V765.60341982C197.19574033 802.95155215 227.65921719 833.28003604 265.05234776 833.28003604h491.42042841c37.43812793 0 67.85660742-30.37348125 67.85660742-67.72161358v-763.47682647c0-37.34813232-30.4184795-67.67661621-67.85660742-67.6766162H265.05234776z m13.81430917 827.10364482a5.62471875 5.62471875 0 0 1-5.62471875-5.62471875v-739.62801826c0-3.14984268 2.51987432-5.62471875 5.62471875-5.62471875h465.27673624a5.62471875 5.62471875 0 0 1 5.6697161 5.62471875V755.88390586a5.62471875 5.62471875 0 0 1-5.62471875 5.62471875H278.86665693zM515.59981982 64.22348906000002c24.8387581 0 44.99775 20.29398487 44.99775 45.40272979-0.44997715 24.7487625-20.47397607 44.54777285-44.99775 44.54777285-24.56877128 0-44.54777285-19.79901035-44.99775-44.54777285 0-25.10874492 20.11399453-45.44772803 44.99775-45.44772803zM244.71336464 186.93235342000003a31.04844785 31.04844785 0 0 0-31.13844345 31.04844785c0 17.14414307 13.94930215 48.14759268 31.09344522 48.14759268h532.18839111c11.20444013 0.13499297 21.59891982-22.85885742 27.26863594-32.53337403a31.00344961 31.00344961 0 0 0-27.26863594-46.6626665H244.66836641z"  horiz-adv-x="1024" />

    
    </font>
</defs>
</svg>
