<?xml version="1.0" standalone="no"?><!DOCTYPE svg PUBLIC "-//W3C//DTD SVG 1.1//EN" "http://www.w3.org/Graphics/SVG/1.1/DTD/svg11.dtd"><svg t="1625108269411" class="icon" viewBox="0 0 1024 1024" version="1.1" xmlns="http://www.w3.org/2000/svg" p-id="24227" width="32" height="32" xmlns:xlink="http://www.w3.org/1999/xlink"><defs><style type="text/css"></style></defs><path d="M513.6 961.5c-247 0-448-201-448-448s201-448 448-448 448 201 448 448-200.9 448-448 448z m0-806.4c-197.6 0-358.4 160.8-358.4 358.4S316 871.9 513.6 871.9 872 711.1 872 513.5 711.2 155.1 513.6 155.1z" p-id="24228" fill="#FF9801"></path><path d="M510.2 744.1c-25.8-0.2-46.8-21.6-46.5-48.3 0.2-26.7 21.6-47.7 47.4-47.5 25.8 0.2 46.8 21.6 46.6 48.3-0.4 25.8-21.8 47.8-47.5 47.5z m134.2-300.9c-6.5 11.9-14 22.9-23.3 32-9.3 9.1-25.1 23.7-48.3 44.7-6.5 6.4-12.1 10.9-15.8 15.5-3.7 4.6-6.5 8.2-8.4 12.8-1.9 3.7-3.7 7.3-4.7 11s-2.8 10.1-4.8 20.2c-3.9 20.2-15 30.3-34.3 30.1-10.1-0.1-18.4-3.8-24.8-10.3-6.4-6.5-10-16.7-9.9-29.6 0.1-16.6 3-30.4 7.7-42.3 4.7-11.9 11.2-22 19.6-31.1 8.4-9.1 19.5-19.2 33.4-31.9 12.1-10.9 21.3-19.2 26-24.6 5.6-5.5 10.2-11.9 14-18.3 3.7-6.4 5.6-13.8 5.7-22.1 0.1-15.7-2.8-19.5-13.8-30.6-11-11.1-25.7-15.9-43.1-16-20.3-0.2-34.8 6.6-46.2 15.3-12.5 9.6-21.1 17.4-27.7 38.5-6.6 22-18.7 33-37.1 32.8-10.1-0.1-19.3-3.8-26.6-11.3-7.3-7.4-10.9-15.7-10.8-25 0.2-18.4 5.8-36.8 18-56 11.2-18.3 28.8-33.8 51-46.5 22.2-11.8 48-18 77.5-17.8 27.6 0.2 51.5 6 72.6 16.3 21.1 10.3 36.6 25.2 48.4 42.8 10.9 17.6 17.2 37 17 58.2-1.9 16.6-4.7 31.3-11.3 43.2z m0 0" p-id="24229" fill="#FF9801"></path></svg>