<?xml version="1.0" standalone="no"?><!DOCTYPE svg PUBLIC "-//W3C//DTD SVG 1.1//EN" "http://www.w3.org/Graphics/SVG/1.1/DTD/svg11.dtd"><svg t="1619335681342" class="icon" viewBox="0 0 1024 1024" version="1.1" xmlns="http://www.w3.org/2000/svg" p-id="1480" xmlns:xlink="http://www.w3.org/1999/xlink" width="32" height="32"><defs><style type="text/css"></style></defs><path d="M913.066667 386.133333c-2.133333 8.533333-6.4 17.066667-12.8 32v2.133334C864 494.933333 770.133333 640 770.133333 640l-27.733333 46.933333H874.666667L622.933333 1011.2 680.533333 789.333333H576l36.266667-147.2c-29.866667 6.4-64 17.066667-104.533334 29.866667 0 0-55.466667 32-157.866666-59.733333 0 0-70.4-59.733333-29.866667-74.666667 17.066667-6.4 83.2-14.933333 136.533333-21.333333 70.4-8.533333 115.2-14.933333 115.2-14.933334s-217.6 2.133333-268.8-4.266666c-51.2-8.533333-117.333333-91.733333-132.266666-166.4 0 0-21.333333-40.533333 46.933333-21.333334 68.266667 19.2 349.866667 74.666667 349.866667 74.666667S198.4 273.066667 174.933333 245.333333C149.333333 219.733333 102.4 100.266667 108.8 27.733333c0 0 2.133333-19.2 21.333333-12.8 0 0 270.933333 121.6 456.533334 187.733334 185.6 64 347.733333 98.133333 326.4 183.466666z" fill="#3AA2EB" p-id="1481"></path></svg>