<?xml version="1.0" standalone="no"?><!DOCTYPE svg PUBLIC "-//W3C//DTD SVG 1.1//EN" "http://www.w3.org/Graphics/SVG/1.1/DTD/svg11.dtd"><svg t="1614766227823" class="icon" viewBox="0 0 1024 1024" version="1.1" xmlns="http://www.w3.org/2000/svg" p-id="7786" xmlns:xlink="http://www.w3.org/1999/xlink" width="200" height="200"><defs><style type="text/css"></style></defs><path d="M0 512c0 282.624 229.376 512 512 512s512-229.376 512-512-229.376-512-512-512-512 229.376-512 512z" fill="#FF8BE5" p-id="7787"></path><path d="M536.576 227.328a227.84 227.84 0 1 0 251.904 200.704 227.2 227.2 0 0 0-251.904-200.704z m179.2 228.352a153.984 153.984 0 0 1-155.648 151.04 153.984 153.984 0 0 1-151.04-155.648 154.624 154.624 0 0 1 157.184-151.04 153.984 153.984 0 0 1 149.504 155.648z" fill="#FFFFFF" p-id="7788"></path><path d="M416.256 564.736l50.688 50.688-182.784 182.784-50.688-50.688 182.784-182.784z" fill="#FFFFFF" p-id="7789"></path><path d="M290.816 570.88l167.424 167.424-50.688 50.688-167.424-167.424 50.688-50.688z" fill="#FFFFFF" p-id="7790"></path></svg>