<?xml version="1.0" standalone="no"?><!DOCTYPE svg PUBLIC "-//W3C//DTD SVG 1.1//EN" "http://www.w3.org/Graphics/SVG/1.1/DTD/svg11.dtd"><svg t="1615028510584" class="icon" viewBox="0 0 1024 1024" version="1.1" xmlns="http://www.w3.org/2000/svg" p-id="7943" xmlns:xlink="http://www.w3.org/1999/xlink" width="200" height="200"><defs><style type="text/css"></style></defs><path d="M0 0m170.666667 0l682.666666 0q170.666667 0 170.666667 170.666667l0 682.666666q0 170.666667-170.666667 170.666667l-682.666666 0q-170.666667 0-170.666667-170.666667l0-682.666666q0-170.666667 170.666667-170.666667Z" fill="#979DA7" fill-opacity=".1" p-id="7944"></path><path d="M472.192 233.258667L273.066667 432.341333v282.581334c0 41.728 35.072 75.818667 77.952 75.818666h321.962666c42.88 0 77.952-34.133333 77.952-75.818666V309.077333c0-41.728-35.072-75.818667-77.994666-75.818666h-200.746667zM691.2 731.008H332.8v-258.816h79.658667A99.541333 99.541333 0 0 0 512 372.608V292.992h179.2v438.016z" fill="#9A9FA8" p-id="7945"></path></svg>