<?xml version="1.0" standalone="no"?><!DOCTYPE svg PUBLIC "-//W3C//DTD SVG 1.1//EN" "http://www.w3.org/Graphics/SVG/1.1/DTD/svg11.dtd"><svg t="1614766240486" class="icon" viewBox="0 0 1024 1024" version="1.1" xmlns="http://www.w3.org/2000/svg" p-id="8040" xmlns:xlink="http://www.w3.org/1999/xlink" width="200" height="200"><defs><style type="text/css"></style></defs><path d="M1024 10.24L772.365 282.193a8.03 8.03 0 0 0-1.994 7.06 49.206 49.206 0 0 1-83.644 44.14L486.184 533.88l19.78 264.947L731.136 1024z m0 0" fill="#007FFF" p-id="8041"></path><path d="M1021.251 17.085l-248.94 269.042a8.03 8.03 0 0 0-1.994 7.114 48.505 48.505 0 0 1-82.782 43.601L490.442 533.935a3.988 3.988 0 0 0-1.132 3.072l19.456 260.204 501.976-757.275 10.779-22.744z m0 0" fill="#0069FF" p-id="8042"></path><path d="M1013.814 0.054L741.86 251.634a8.03 8.03 0 0 1-7.114 2.049 49.206 49.206 0 0 0-44.086 83.644L490.12 537.87l-264.84-19.94L0 292.863z m0 0" fill="#00EED4" p-id="8043"></path><path d="M1006.97 3.072l-269.151 248.94a8.03 8.03 0 0 1-7.006 1.994 48.505 48.505 0 0 0-43.601 82.782L490.065 533.881a3.988 3.988 0 0 1-3.126 1.132l-260.204-19.456L984.064 13.581l22.744-10.778z m0 0" fill="#00D3B4" p-id="8044"></path></svg>