<svg width="16" height="15" viewBox="0 0 16 15" fill="none" xmlns="http://www.w3.org/2000/svg">
<path d="M8.75586 7.96582H14.3073V8.7397C14.3073 10.5806 12.791 12.073 10.9205 12.073H8.75586V7.96582Z" fill="#FFA536"/>
<path d="M10.0649 0H12.5341C14.4483 0 16.0001 1.54588 16.0001 3.45281V8.68829H10.0649V0Z" fill="#F8CF62"/>
<path d="M10.0649 0H12.5341C14.4483 0 16.0001 1.54588 16.0001 3.45281V8.68829H10.0649V0Z" fill="url(#paint0_linear)"/>
<path d="M3.68926 0.0673828H10.1326V12.1407H3.68926C1.65174 12.1407 0 10.4945 0 8.46381V3.7443C0 1.71359 1.65174 0.0673828 3.68926 0.0673828Z" fill="#4290F5"/>
<path d="M10.1326 14.0592L8.30259 12.1066H3.68926C1.65174 12.1066 0 10.4558 0 8.41953V3.68703C0 1.65074 1.65174 0 3.68926 0H10.1326V14.0592Z" fill="url(#paint1_linear)"/>
<path opacity="0.081" d="M10.1326 11.0877V12.5007C10.1082 12.9895 10.0585 13.4717 9.98499 13.946L8.30248 12.1569H3.68921C1.65171 12.1569 0 10.5116 0 8.48199V3.76508C0 1.7355 1.65171 0.0901908 3.68921 0.0901908L3.79032 0.0898438C7.43444 2.46252 9.90245 6.48135 10.1326 11.0877Z" fill="white"/>
<path d="M3.76855 2.73047C4.34187 2.73047 4.80663 3.19523 4.80663 3.76855C4.80663 4.34187 4.34187 4.80663 3.76855 4.80663C3.19523 4.80663 2.73047 4.34187 2.73047 3.76855C2.73047 3.19523 3.19523 2.73047 3.76855 2.73047Z" fill="white"/>
<defs>
<linearGradient id="paint0_linear" x1="10.0423" y1="7.67833e-08" x2="15.9037" y2="3.33437" gradientUnits="userSpaceOnUse">
<stop stop-color="#FFBF00"/>
<stop offset="1" stop-color="#F7C02E"/>
</linearGradient>
<linearGradient id="paint1_linear" x1="1.30508" y1="-1.25339e-07" x2="9.19425" y2="6.4264" gradientUnits="userSpaceOnUse">
<stop stop-color="#0066F3"/>
<stop offset="1" stop-color="#0383F9"/>
</linearGradient>
</defs>
</svg>
