<?xml version="1.0" standalone="no"?><!DOCTYPE svg PUBLIC "-//W3C//DTD SVG 1.1//EN" "http://www.w3.org/Graphics/SVG/1.1/DTD/svg11.dtd"><svg t="1614766234685" class="icon" viewBox="0 0 1024 1024" version="1.1" xmlns="http://www.w3.org/2000/svg" p-id="7914" xmlns:xlink="http://www.w3.org/1999/xlink" width="200" height="200"><defs><style type="text/css"></style></defs><path d="M0 512a512 512 0 1 0 1024 0A512 512 0 0 0 0 512z" fill="#427DFF" p-id="7915"></path><path d="M232.448 520.128a227.52 227.52 0 0 1 255.424-195.136c47.488 6.656 91.52 28.48 125.504 62.272l71.936-55.04-68.544-9.6a36.096 36.096 0 0 1-9.856 0.576 37.504 37.504 0 0 1 7.04-74.624v-0.64l2.752 0.32 0.768 0.192 205.44 28.8-28.8 204.8a37.44 37.44 0 1 1-74.368-4.544 37.12 37.12 0 0 1 2.816-8.192l11.52-82.368-77.632 59.2a227.072 227.072 0 0 1-330.368 293.12A226.56 226.56 0 0 1 232.32 520.192l0.064-0.064z m375.36 52.736a153.344 153.344 0 1 0-173.312 132.352 154.368 154.368 0 0 0 173.312-132.352z" fill="#FFFFFF" p-id="7916"></path></svg>