<?xml version="1.0" standalone="no"?><!DOCTYPE svg PUBLIC "-//W3C//DTD SVG 1.1//EN" "http://www.w3.org/Graphics/SVG/1.1/DTD/svg11.dtd"><svg t="1618827821818" class="icon" viewBox="0 0 1024 1024" version="1.1" xmlns="http://www.w3.org/2000/svg" p-id="17044" width="32" height="32" xmlns:xlink="http://www.w3.org/1999/xlink"><defs><style type="text/css"></style></defs><path d="M512 880.18181826c203.33863653 0 368.18181826-164.84318174 368.18181826-368.18181826S715.33863653 143.81818174 512 143.81818174 143.81818174 308.66136347 143.81818174 512s164.84318174 368.18181826 368.18181826 368.18181826z m0 81.81818174C263.47727305 962 62 760.52272695 62 512S263.47727305 62 512 62s450 201.47727305 450 450-201.47727305 450-450 450z m-40.90909131-286.36363652h102.27272783v81.81818173h-102.27272783v-81.81818173z m-122.72727216-263.29090869c2.74090869-65.80227305 25.48636347-112.45909131 68.23636347-139.9295461C443.6 254.86590869 476.73636347 246.09090869 516.05 246.09090869c51.66818174 0 94.60227305 12.47727305 128.78181826 37.41136436C678.99090869 308.43636347 696.09090869 345.37727305 696.09090869 394.325c0 30.02727305-7.425 55.30909131-22.2954539 75.86590869-8.67272695 12.47727305-25.36363652 28.39090869-50.05227305 47.80227305l-24.34090869 19.02272695c-13.29545479 10.41136347-22.09090869 22.54090869-26.42727305 36.38863652-2.74090869 8.775-4.23409131 22.39772695-4.45909131 40.86818174h-92.57727217c1.37045479-39.02727305 5.03181826-65.98636347 10.96363653-80.87727216 5.93181826-14.89090869 21.27272695-32.03181826 45.96136347-51.42272784l25.03636348-19.75909043a87.95454521 87.95454521 0 0 0 19.88181826-20.43409131c9.14318174-12.68181826 15.25909131-26.67272695 15.25909043-41.91136347 0-17.55-5.09318174-33.54545479-15.25909043-47.96590869-10.16590869-14.42045479-30.29318174-21.64090869-57.27272695-21.64090958-26.50909131 0-49.17272695 7.01590869-60.25909131 24.79090958-11.08636347 17.79545479-17.81590869 38.12727305-17.81590869 57.27272695H348.36363653z" p-id="17045" fill="#FFC100"></path></svg>