<?xml version="1.0" standalone="no"?><!DOCTYPE svg PUBLIC "-//W3C//DTD SVG 1.1//EN" "http://www.w3.org/Graphics/SVG/1.1/DTD/svg11.dtd"><svg t="1615888850876" class="icon" viewBox="0 0 1024 1024" version="1.1" xmlns="http://www.w3.org/2000/svg" p-id="14091" xmlns:xlink="http://www.w3.org/1999/xlink" width="32" height="32"><defs><style type="text/css"></style></defs><path d="M802.4525 738.89L962 898.37 898.3925 962l-159.57-159.5025a414.36 414.36 0 0 1-260.7075 91.8C248.3 894.275 62 707.975 62 478.115 62 248.3225 248.3 62 478.115 62s416.115 186.3 416.115 416.1375c0 98.7075-34.3575 189.405-91.8 260.7525zM478.115 804.275c180.135 0 326.16-146.025 326.16-326.16S658.25 152 478.115 152C298.025 151.9775 152 298.0025 152 478.1375s146.025 326.16 326.1375 326.16z" p-id="14092" fill="#8f959e"></path></svg>