<?xml version="1.0" standalone="no"?><!DOCTYPE svg PUBLIC "-//W3C//DTD SVG 1.1//EN" "http://www.w3.org/Graphics/SVG/1.1/DTD/svg11.dtd"><svg t="1615450110181" class="icon" viewBox="0 0 1024 1024" version="1.1" xmlns="http://www.w3.org/2000/svg" p-id="7083" xmlns:xlink="http://www.w3.org/1999/xlink" width="32" height="32"><defs><style type="text/css"></style></defs><path d="M799.68 739.35l169.579 169.6a21.333 21.333 0 0 1 0 30.165l-30.166 30.165a21.333 21.333 0 0 1-30.165 0l-169.6-169.6A424.896 424.896 0 0 1 469.312 896C233.664 896 42.645 704.981 42.645 469.333S233.664 42.667 469.312 42.667s426.667 191.018 426.667 426.666c0 102.464-36.118 196.48-96.299 270.016z m-330.368 71.317c188.523 0 341.333-152.811 341.333-341.334S657.835 128 469.312 128 127.979 280.81 127.979 469.333s152.81 341.334 341.333 341.334z" p-id="7084" fill="#646A73"></path></svg>