<?xml version="1.0" standalone="no"?><!DOCTYPE svg PUBLIC "-//W3C//DTD SVG 1.1//EN" "http://www.w3.org/Graphics/SVG/1.1/DTD/svg11.dtd"><svg t="1614766246134" class="icon" viewBox="0 0 1243 1024" version="1.1" xmlns="http://www.w3.org/2000/svg" p-id="8168" xmlns:xlink="http://www.w3.org/1999/xlink" width="242.7734375" height="200"><defs><style type="text/css"></style></defs><path d="M798.500571 795.428571a16.310857 16.310857 0 0 0 2.048 25.014858c35.547429 33.28 58.441143 77.824 64.731429 126.171428a68.388571 68.388571 0 1 0 73.142857-86.016 209.92 209.92 0 0 1-116.736-65.097143 16.384 16.384 0 0 0-23.186286 0z" fill="#FB6500" p-id="8169"></path><path d="M1076.224 687.104a68.169143 68.169143 0 0 0-19.675429 41.179429 209.92 209.92 0 0 1-64.950857 116.955428 16.384 16.384 0 1 0 25.014857 20.845714 209.92 209.92 0 0 1 126.171429-64.731428 68.388571 68.388571 0 1 0-66.340571-114.249143h-0.219429z" fill="#0082EF" p-id="8170"></path><path d="M883.565714 494.153143a68.461714 68.461714 0 0 0 41.106286 116.297143 209.92 209.92 0 0 1 116.955429 64.950857 16.384 16.384 0 1 0 20.845714-24.941714 210.139429 210.139429 0 0 1-64.658286-126.171429 68.461714 68.461714 0 0 0-114.322286-30.134857z" fill="#2DBC00" p-id="8171"></path><path d="M849.92 601.088l-1.243429 1.243429a209.700571 209.700571 0 0 1-128 66.925714 68.022857 68.022857 0 0 0-30.281142 114.322286 68.461714 68.461714 0 0 0 116.297142-41.179429 210.139429 210.139429 0 0 1 65.097143-116.955429 16.384 16.384 0 1 0-21.869714-24.356571z" fill="#FFCC00" p-id="8172"></path><path d="M436.662857 10.678857c-122.733714 13.458286-233.910857 65.901714-313.782857 147.821714-31.744 32.402286-57.563429 68.827429-76.580571 107.739429a375.222857 375.222857 0 0 0 26.331428 378.88 588.434286 588.434286 0 0 0 89.965714 102.838857L147.748571 863.817143 146.285714 868.790857c-0.438857 1.462857-0.438857 3.072-0.585143 4.461714l-0.438857 3.657143 0.438857 3.730286a37.302857 37.302857 0 0 0 56.100572 28.891429h0.585143l2.194285-1.682286 35.328-17.554286 105.033143-52.882286c49.956571 14.336 101.668571 21.430857 153.6 21.138286 64.219429 0.146286 128-10.971429 188.416-32.768a68.169143 68.169143 0 0 1-46.518857-71.533714 462.701714 462.701714 0 0 1-193.682286 19.309714l-10.459428-1.462857a468.041143 468.041143 0 0 1-69.632-14.555429 47.616 47.616 0 0 0-37.302857 3.876572l-2.852572 1.462857-86.454857 50.761143-3.657143 2.267428c-2.048 1.243429-3.072 1.682286-4.096 1.682286a5.924571 5.924571 0 0 1-5.558857-6.144l3.291429-13.312 3.876571-14.628571 6.144-23.917715 7.168-26.624A36.278857 36.278857 0 0 0 234.057143 692.662857a377.856 377.856 0 0 1-87.259429-90.989714 295.497143 295.497143 0 0 1-21.211428-298.569143c15.506286-31.158857 35.986286-59.977143 61.44-86.016 65.462857-67.584 157.622857-110.592 259.657143-121.636571a483.766857 483.766857 0 0 1 106.057142 0c101.376 11.702857 193.097143 55.296 258.194286 122.441142 25.234286 26.038857 45.714286 55.296 60.854857 86.454858 20.333714 41.325714 30.573714 85.211429 30.573715 130.048 0 4.681143-0.438857 9.435429-0.658286 13.897142a68.169143 68.169143 0 0 1 83.968 9.874286l3.072 3.657143a373.248 373.248 0 0 0-37.302857-194.121143 418.377143 418.377143 0 0 0-75.702857-107.739428A514.048 514.048 0 0 0 563.2 10.971429 576.073143 576.073143 0 0 0 436.662857 10.678857z" fill="#0082EF" p-id="8173"></path></svg>